M48
; DRILL file {KiCad (5.1.0)-1} date 7/11/2019 5:38:36 PM
; FORMAT={-:-/ absolute / inch / decimal}
; #@! TF.CreationDate,2019-07-11T17:38:36-04:00
; #@! TF.GenerationSoftware,Kicad,Pcbnew,(5.1.0)-1
FMAT,2
INCH
T1C0.0157
T2C0.0276
T3C0.0354
T4C0.0669
T5C0.0866
T6C0.0197
%
G90
G05
T1
X7.563Y-4.7008
X7.748Y-4.6607
X7.813Y-4.3366
X7.813Y-4.3799
X7.8142Y-4.6722
X7.8228Y-3.7008
X7.8858Y-3.6693
X7.8898Y-4.0512
X7.9567Y-4.0472
X8.0236Y-4.0433
T3
X7.6614Y-4.752
X7.6614Y-4.8504
X7.7402Y-4.752
X7.7913Y-4.8504
X7.8189Y-4.752
X7.8701Y-4.8504
X7.8976Y-4.752
X7.9764Y-4.752
X7.9764Y-4.8504
T4
X7.6703Y-3.8654
X7.7138Y-3.7603
X7.7138Y-3.9704
X7.8189Y-3.8378
X7.8189Y-4.014
X7.924Y-3.7603
X7.924Y-3.9698
X7.9675Y-3.8654
T5
X7.5335Y-4.9685
X8.1043Y-4.9685
T6
X7.939Y-4.2461
X7.939Y-4.3051
X7.9685Y-4.2461
X7.9685Y-4.3051
X7.998Y-4.2461
X7.998Y-4.3051
X7.6319Y-4.2461
X7.6319Y-4.3051
X7.6614Y-4.2461
X7.6614Y-4.3051
X7.6909Y-4.2461
X7.6909Y-4.3051
T2
G00X7.8488Y-5.0004
M15
G01X7.7898Y-5.0004
M16
G05
T0
M30
