G04 #@! TF.GenerationSoftware,KiCad,Pcbnew,(5.1.0)-1*
G04 #@! TF.CreationDate,2019-07-11T17:38:34-04:00*
G04 #@! TF.ProjectId,8 Pin DIN to 9 Pin Mini DIN,38205069-6e20-4444-994e-20746f203920,rev?*
G04 #@! TF.SameCoordinates,Original*
G04 #@! TF.FileFunction,Soldermask,Top*
G04 #@! TF.FilePolarity,Negative*
%FSLAX46Y46*%
G04 Gerber Fmt 4.6, Leading zero omitted, Abs format (unit mm)*
G04 Created by KiCad (PCBNEW (5.1.0)-1) date 2019-07-11 17:38:34*
%MOMM*%
%LPD*%
G04 APERTURE LIST*
%ADD10C,0.100000*%
G04 APERTURE END LIST*
D10*
G36*
X199570442Y-126115518D02*
G01*
X199636627Y-126122037D01*
X199806466Y-126173557D01*
X199962991Y-126257222D01*
X199998729Y-126286552D01*
X200100186Y-126369814D01*
X200183448Y-126471271D01*
X200212778Y-126507009D01*
X200296443Y-126663534D01*
X200347963Y-126833373D01*
X200365359Y-127010000D01*
X200347963Y-127186627D01*
X200296443Y-127356466D01*
X200212778Y-127512991D01*
X200183448Y-127548729D01*
X200100186Y-127650186D01*
X199998729Y-127733448D01*
X199962991Y-127762778D01*
X199806466Y-127846443D01*
X199636627Y-127897963D01*
X199570442Y-127904482D01*
X199504260Y-127911000D01*
X197715740Y-127911000D01*
X197649558Y-127904482D01*
X197583373Y-127897963D01*
X197413534Y-127846443D01*
X197257009Y-127762778D01*
X197221271Y-127733448D01*
X197119814Y-127650186D01*
X197036552Y-127548729D01*
X197007222Y-127512991D01*
X196923557Y-127356466D01*
X196872037Y-127186627D01*
X196854641Y-127010000D01*
X196872037Y-126833373D01*
X196923557Y-126663534D01*
X197007222Y-126507009D01*
X197036552Y-126471271D01*
X197119814Y-126369814D01*
X197221271Y-126286552D01*
X197257009Y-126257222D01*
X197413534Y-126173557D01*
X197583373Y-126122037D01*
X197649558Y-126115518D01*
X197715740Y-126109000D01*
X199504260Y-126109000D01*
X199570442Y-126115518D01*
X199570442Y-126115518D01*
G37*
G36*
X206225256Y-124591298D02*
G01*
X206331579Y-124612447D01*
X206632042Y-124736903D01*
X206902451Y-124917585D01*
X207132415Y-125147549D01*
X207313097Y-125417958D01*
X207437553Y-125718421D01*
X207501000Y-126037391D01*
X207501000Y-126362609D01*
X207437553Y-126681579D01*
X207313097Y-126982042D01*
X207132415Y-127252451D01*
X206902451Y-127482415D01*
X206632042Y-127663097D01*
X206331579Y-127787553D01*
X206225256Y-127808702D01*
X206012611Y-127851000D01*
X205687389Y-127851000D01*
X205474744Y-127808702D01*
X205368421Y-127787553D01*
X205067958Y-127663097D01*
X204797549Y-127482415D01*
X204567585Y-127252451D01*
X204386903Y-126982042D01*
X204262447Y-126681579D01*
X204199000Y-126362609D01*
X204199000Y-126037391D01*
X204262447Y-125718421D01*
X204386903Y-125417958D01*
X204567585Y-125147549D01*
X204797549Y-124917585D01*
X205067958Y-124736903D01*
X205368421Y-124612447D01*
X205474744Y-124591298D01*
X205687389Y-124549000D01*
X206012611Y-124549000D01*
X206225256Y-124591298D01*
X206225256Y-124591298D01*
G37*
G36*
X191725256Y-124591298D02*
G01*
X191831579Y-124612447D01*
X192132042Y-124736903D01*
X192402451Y-124917585D01*
X192632415Y-125147549D01*
X192813097Y-125417958D01*
X192937553Y-125718421D01*
X193001000Y-126037391D01*
X193001000Y-126362609D01*
X192937553Y-126681579D01*
X192813097Y-126982042D01*
X192632415Y-127252451D01*
X192402451Y-127482415D01*
X192132042Y-127663097D01*
X191831579Y-127787553D01*
X191725256Y-127808702D01*
X191512611Y-127851000D01*
X191187389Y-127851000D01*
X190974744Y-127808702D01*
X190868421Y-127787553D01*
X190567958Y-127663097D01*
X190297549Y-127482415D01*
X190067585Y-127252451D01*
X189886903Y-126982042D01*
X189762447Y-126681579D01*
X189699000Y-126362609D01*
X189699000Y-126037391D01*
X189762447Y-125718421D01*
X189886903Y-125417958D01*
X190067585Y-125147549D01*
X190297549Y-124917585D01*
X190567958Y-124736903D01*
X190868421Y-124612447D01*
X190974744Y-124591298D01*
X191187389Y-124549000D01*
X191512611Y-124549000D01*
X191725256Y-124591298D01*
X191725256Y-124591298D01*
G37*
G36*
X194747293Y-122459507D02*
G01*
X194820225Y-122474014D01*
X194877138Y-122497588D01*
X194957626Y-122530927D01*
X195081284Y-122613553D01*
X195186447Y-122718716D01*
X195269073Y-122842374D01*
X195325986Y-122979776D01*
X195355000Y-123125638D01*
X195355000Y-123274362D01*
X195325986Y-123420224D01*
X195269073Y-123557626D01*
X195186447Y-123681284D01*
X195081284Y-123786447D01*
X194957626Y-123869073D01*
X194877138Y-123902412D01*
X194820225Y-123925986D01*
X194747293Y-123940493D01*
X194674362Y-123955000D01*
X194525638Y-123955000D01*
X194452707Y-123940493D01*
X194379775Y-123925986D01*
X194322862Y-123902412D01*
X194242374Y-123869073D01*
X194118716Y-123786447D01*
X194013553Y-123681284D01*
X193930927Y-123557626D01*
X193874014Y-123420224D01*
X193845000Y-123274362D01*
X193845000Y-123125638D01*
X193874014Y-122979776D01*
X193930927Y-122842374D01*
X194013553Y-122718716D01*
X194118716Y-122613553D01*
X194242374Y-122530927D01*
X194322862Y-122497588D01*
X194379775Y-122474014D01*
X194452707Y-122459507D01*
X194525638Y-122445000D01*
X194674362Y-122445000D01*
X194747293Y-122459507D01*
X194747293Y-122459507D01*
G37*
G36*
X202747293Y-122459507D02*
G01*
X202820225Y-122474014D01*
X202877138Y-122497588D01*
X202957626Y-122530927D01*
X203081284Y-122613553D01*
X203186447Y-122718716D01*
X203269073Y-122842374D01*
X203325986Y-122979776D01*
X203355000Y-123125638D01*
X203355000Y-123274362D01*
X203325986Y-123420224D01*
X203269073Y-123557626D01*
X203186447Y-123681284D01*
X203081284Y-123786447D01*
X202957626Y-123869073D01*
X202877138Y-123902412D01*
X202820225Y-123925986D01*
X202747293Y-123940493D01*
X202674362Y-123955000D01*
X202525638Y-123955000D01*
X202452707Y-123940493D01*
X202379775Y-123925986D01*
X202322862Y-123902412D01*
X202242374Y-123869073D01*
X202118716Y-123786447D01*
X202013553Y-123681284D01*
X201930927Y-123557626D01*
X201874014Y-123420224D01*
X201845000Y-123274362D01*
X201845000Y-123125638D01*
X201874014Y-122979776D01*
X201930927Y-122842374D01*
X202013553Y-122718716D01*
X202118716Y-122613553D01*
X202242374Y-122530927D01*
X202322862Y-122497588D01*
X202379775Y-122474014D01*
X202452707Y-122459507D01*
X202525638Y-122445000D01*
X202674362Y-122445000D01*
X202747293Y-122459507D01*
X202747293Y-122459507D01*
G37*
G36*
X200655000Y-123955000D02*
G01*
X199145000Y-123955000D01*
X199145000Y-122445000D01*
X200655000Y-122445000D01*
X200655000Y-123955000D01*
X200655000Y-123955000D01*
G37*
G36*
X198047293Y-122459507D02*
G01*
X198120225Y-122474014D01*
X198177138Y-122497588D01*
X198257626Y-122530927D01*
X198381284Y-122613553D01*
X198486447Y-122718716D01*
X198569073Y-122842374D01*
X198625986Y-122979776D01*
X198655000Y-123125638D01*
X198655000Y-123274362D01*
X198625986Y-123420224D01*
X198569073Y-123557626D01*
X198486447Y-123681284D01*
X198381284Y-123786447D01*
X198257626Y-123869073D01*
X198177138Y-123902412D01*
X198120225Y-123925986D01*
X198047293Y-123940493D01*
X197974362Y-123955000D01*
X197825638Y-123955000D01*
X197752707Y-123940493D01*
X197679775Y-123925986D01*
X197622862Y-123902412D01*
X197542374Y-123869073D01*
X197418716Y-123786447D01*
X197313553Y-123681284D01*
X197230927Y-123557626D01*
X197174014Y-123420224D01*
X197145000Y-123274362D01*
X197145000Y-123125638D01*
X197174014Y-122979776D01*
X197230927Y-122842374D01*
X197313553Y-122718716D01*
X197418716Y-122613553D01*
X197542374Y-122530927D01*
X197622862Y-122497588D01*
X197679775Y-122474014D01*
X197752707Y-122459507D01*
X197825638Y-122445000D01*
X197974362Y-122445000D01*
X198047293Y-122459507D01*
X198047293Y-122459507D01*
G37*
G36*
X194747293Y-119959507D02*
G01*
X194820225Y-119974014D01*
X194877138Y-119997588D01*
X194957626Y-120030927D01*
X195081284Y-120113553D01*
X195186447Y-120218716D01*
X195269073Y-120342374D01*
X195325986Y-120479776D01*
X195355000Y-120625638D01*
X195355000Y-120774362D01*
X195325986Y-120920224D01*
X195269073Y-121057626D01*
X195186447Y-121181284D01*
X195081284Y-121286447D01*
X194957626Y-121369073D01*
X194877138Y-121402412D01*
X194820225Y-121425986D01*
X194747293Y-121440493D01*
X194674362Y-121455000D01*
X194525638Y-121455000D01*
X194452707Y-121440493D01*
X194379775Y-121425986D01*
X194322862Y-121402412D01*
X194242374Y-121369073D01*
X194118716Y-121286447D01*
X194013553Y-121181284D01*
X193930927Y-121057626D01*
X193874014Y-120920224D01*
X193845000Y-120774362D01*
X193845000Y-120625638D01*
X193874014Y-120479776D01*
X193930927Y-120342374D01*
X194013553Y-120218716D01*
X194118716Y-120113553D01*
X194242374Y-120030927D01*
X194322862Y-119997588D01*
X194379775Y-119974014D01*
X194452707Y-119959507D01*
X194525638Y-119945000D01*
X194674362Y-119945000D01*
X194747293Y-119959507D01*
X194747293Y-119959507D01*
G37*
G36*
X196747293Y-119959507D02*
G01*
X196820225Y-119974014D01*
X196877138Y-119997588D01*
X196957626Y-120030927D01*
X197081284Y-120113553D01*
X197186447Y-120218716D01*
X197269073Y-120342374D01*
X197325986Y-120479776D01*
X197355000Y-120625638D01*
X197355000Y-120774362D01*
X197325986Y-120920224D01*
X197269073Y-121057626D01*
X197186447Y-121181284D01*
X197081284Y-121286447D01*
X196957626Y-121369073D01*
X196877138Y-121402412D01*
X196820225Y-121425986D01*
X196747293Y-121440493D01*
X196674362Y-121455000D01*
X196525638Y-121455000D01*
X196452707Y-121440493D01*
X196379775Y-121425986D01*
X196322862Y-121402412D01*
X196242374Y-121369073D01*
X196118716Y-121286447D01*
X196013553Y-121181284D01*
X195930927Y-121057626D01*
X195874014Y-120920224D01*
X195845000Y-120774362D01*
X195845000Y-120625638D01*
X195874014Y-120479776D01*
X195930927Y-120342374D01*
X196013553Y-120218716D01*
X196118716Y-120113553D01*
X196242374Y-120030927D01*
X196322862Y-119997588D01*
X196379775Y-119974014D01*
X196452707Y-119959507D01*
X196525638Y-119945000D01*
X196674362Y-119945000D01*
X196747293Y-119959507D01*
X196747293Y-119959507D01*
G37*
G36*
X198747293Y-119959507D02*
G01*
X198820225Y-119974014D01*
X198877138Y-119997588D01*
X198957626Y-120030927D01*
X199081284Y-120113553D01*
X199186447Y-120218716D01*
X199269073Y-120342374D01*
X199325986Y-120479776D01*
X199355000Y-120625638D01*
X199355000Y-120774362D01*
X199325986Y-120920224D01*
X199269073Y-121057626D01*
X199186447Y-121181284D01*
X199081284Y-121286447D01*
X198957626Y-121369073D01*
X198877138Y-121402412D01*
X198820225Y-121425986D01*
X198747293Y-121440493D01*
X198674362Y-121455000D01*
X198525638Y-121455000D01*
X198452707Y-121440493D01*
X198379775Y-121425986D01*
X198322862Y-121402412D01*
X198242374Y-121369073D01*
X198118716Y-121286447D01*
X198013553Y-121181284D01*
X197930927Y-121057626D01*
X197874014Y-120920224D01*
X197845000Y-120774362D01*
X197845000Y-120625638D01*
X197874014Y-120479776D01*
X197930927Y-120342374D01*
X198013553Y-120218716D01*
X198118716Y-120113553D01*
X198242374Y-120030927D01*
X198322862Y-119997588D01*
X198379775Y-119974014D01*
X198452707Y-119959507D01*
X198525638Y-119945000D01*
X198674362Y-119945000D01*
X198747293Y-119959507D01*
X198747293Y-119959507D01*
G37*
G36*
X200747293Y-119959507D02*
G01*
X200820225Y-119974014D01*
X200877138Y-119997588D01*
X200957626Y-120030927D01*
X201081284Y-120113553D01*
X201186447Y-120218716D01*
X201269073Y-120342374D01*
X201325986Y-120479776D01*
X201355000Y-120625638D01*
X201355000Y-120774362D01*
X201325986Y-120920224D01*
X201269073Y-121057626D01*
X201186447Y-121181284D01*
X201081284Y-121286447D01*
X200957626Y-121369073D01*
X200877138Y-121402412D01*
X200820225Y-121425986D01*
X200747293Y-121440493D01*
X200674362Y-121455000D01*
X200525638Y-121455000D01*
X200452707Y-121440493D01*
X200379775Y-121425986D01*
X200322862Y-121402412D01*
X200242374Y-121369073D01*
X200118716Y-121286447D01*
X200013553Y-121181284D01*
X199930927Y-121057626D01*
X199874014Y-120920224D01*
X199845000Y-120774362D01*
X199845000Y-120625638D01*
X199874014Y-120479776D01*
X199930927Y-120342374D01*
X200013553Y-120218716D01*
X200118716Y-120113553D01*
X200242374Y-120030927D01*
X200322862Y-119997588D01*
X200379775Y-119974014D01*
X200452707Y-119959507D01*
X200525638Y-119945000D01*
X200674362Y-119945000D01*
X200747293Y-119959507D01*
X200747293Y-119959507D01*
G37*
G36*
X202747293Y-119959507D02*
G01*
X202820225Y-119974014D01*
X202877138Y-119997588D01*
X202957626Y-120030927D01*
X203081284Y-120113553D01*
X203186447Y-120218716D01*
X203269073Y-120342374D01*
X203325986Y-120479776D01*
X203355000Y-120625638D01*
X203355000Y-120774362D01*
X203325986Y-120920224D01*
X203269073Y-121057626D01*
X203186447Y-121181284D01*
X203081284Y-121286447D01*
X202957626Y-121369073D01*
X202877138Y-121402412D01*
X202820225Y-121425986D01*
X202747293Y-121440493D01*
X202674362Y-121455000D01*
X202525638Y-121455000D01*
X202452707Y-121440493D01*
X202379775Y-121425986D01*
X202322862Y-121402412D01*
X202242374Y-121369073D01*
X202118716Y-121286447D01*
X202013553Y-121181284D01*
X201930927Y-121057626D01*
X201874014Y-120920224D01*
X201845000Y-120774362D01*
X201845000Y-120625638D01*
X201874014Y-120479776D01*
X201930927Y-120342374D01*
X202013553Y-120218716D01*
X202118716Y-120113553D01*
X202242374Y-120030927D01*
X202322862Y-119997588D01*
X202379775Y-119974014D01*
X202452707Y-119959507D01*
X202525638Y-119945000D01*
X202674362Y-119945000D01*
X202747293Y-119959507D01*
X202747293Y-119959507D01*
G37*
G36*
X205212333Y-118051000D02*
G01*
X204227667Y-118051000D01*
X204227667Y-116949000D01*
X205212333Y-116949000D01*
X205212333Y-118051000D01*
X205212333Y-118051000D01*
G37*
G36*
X198150997Y-118051000D02*
G01*
X197166331Y-118051000D01*
X197166331Y-116949000D01*
X198150997Y-116949000D01*
X198150997Y-118051000D01*
X198150997Y-118051000D01*
G37*
G36*
X196385663Y-118051000D02*
G01*
X195400997Y-118051000D01*
X195400997Y-116949000D01*
X196385663Y-116949000D01*
X196385663Y-118051000D01*
X196385663Y-118051000D01*
G37*
G36*
X194620329Y-118051000D02*
G01*
X193635663Y-118051000D01*
X193635663Y-116949000D01*
X194620329Y-116949000D01*
X194620329Y-118051000D01*
X194620329Y-118051000D01*
G37*
G36*
X192992333Y-118051000D02*
G01*
X192007667Y-118051000D01*
X192007667Y-116949000D01*
X192992333Y-116949000D01*
X192992333Y-118051000D01*
X192992333Y-118051000D01*
G37*
G36*
X201681665Y-118051000D02*
G01*
X200696999Y-118051000D01*
X200696999Y-116949000D01*
X201681665Y-116949000D01*
X201681665Y-118051000D01*
X201681665Y-118051000D01*
G37*
G36*
X203446999Y-118051000D02*
G01*
X202462333Y-118051000D01*
X202462333Y-116949000D01*
X203446999Y-116949000D01*
X203446999Y-118051000D01*
X203446999Y-118051000D01*
G37*
G36*
X199916331Y-118051000D02*
G01*
X198931665Y-118051000D01*
X198931665Y-116949000D01*
X199916331Y-116949000D01*
X199916331Y-118051000D01*
X199916331Y-118051000D01*
G37*
G36*
X206400000Y-114900000D02*
G01*
X190800000Y-114900000D01*
X190800000Y-110200000D01*
X206400000Y-110200000D01*
X206400000Y-114900000D01*
X206400000Y-114900000D01*
G37*
G36*
X193937797Y-109060567D02*
G01*
X193992575Y-109083257D01*
X193992577Y-109083258D01*
X194041876Y-109116198D01*
X194083802Y-109158124D01*
X194116742Y-109207423D01*
X194121067Y-109213896D01*
X194136612Y-109232838D01*
X194155554Y-109248383D01*
X194177165Y-109259934D01*
X194200614Y-109267047D01*
X194225000Y-109269449D01*
X194249386Y-109267047D01*
X194272835Y-109259934D01*
X194294446Y-109248383D01*
X194313388Y-109232838D01*
X194328933Y-109213896D01*
X194333258Y-109207423D01*
X194366198Y-109158124D01*
X194408124Y-109116198D01*
X194457423Y-109083258D01*
X194457425Y-109083257D01*
X194512203Y-109060567D01*
X194570353Y-109049000D01*
X194629647Y-109049000D01*
X194687797Y-109060567D01*
X194742575Y-109083257D01*
X194742577Y-109083258D01*
X194791876Y-109116198D01*
X194833802Y-109158124D01*
X194866742Y-109207423D01*
X194871067Y-109213896D01*
X194886612Y-109232838D01*
X194905554Y-109248383D01*
X194927165Y-109259934D01*
X194950614Y-109267047D01*
X194975000Y-109269449D01*
X194999386Y-109267047D01*
X195022835Y-109259934D01*
X195044446Y-109248383D01*
X195063388Y-109232838D01*
X195078933Y-109213896D01*
X195083258Y-109207423D01*
X195116198Y-109158124D01*
X195158124Y-109116198D01*
X195207423Y-109083258D01*
X195207425Y-109083257D01*
X195262203Y-109060567D01*
X195320353Y-109049000D01*
X195379647Y-109049000D01*
X195437797Y-109060567D01*
X195492575Y-109083257D01*
X195492577Y-109083258D01*
X195541876Y-109116198D01*
X195583802Y-109158124D01*
X195616742Y-109207423D01*
X195616743Y-109207425D01*
X195639433Y-109262203D01*
X195651000Y-109320353D01*
X195651000Y-109379647D01*
X195639433Y-109437797D01*
X195619423Y-109486104D01*
X195616742Y-109492577D01*
X195583802Y-109541876D01*
X195541876Y-109583802D01*
X195492577Y-109616742D01*
X195492576Y-109616743D01*
X195492575Y-109616743D01*
X195437797Y-109639433D01*
X195379647Y-109651000D01*
X195320353Y-109651000D01*
X195262203Y-109639433D01*
X195207425Y-109616743D01*
X195207424Y-109616743D01*
X195207423Y-109616742D01*
X195158124Y-109583802D01*
X195116198Y-109541876D01*
X195083258Y-109492577D01*
X195083257Y-109492575D01*
X195078933Y-109486104D01*
X195063388Y-109467162D01*
X195044446Y-109451617D01*
X195022835Y-109440066D01*
X194999386Y-109432953D01*
X194975000Y-109430551D01*
X194950614Y-109432953D01*
X194927165Y-109440066D01*
X194905554Y-109451617D01*
X194886612Y-109467162D01*
X194871067Y-109486104D01*
X194866743Y-109492575D01*
X194866742Y-109492577D01*
X194833802Y-109541876D01*
X194791876Y-109583802D01*
X194742577Y-109616742D01*
X194742576Y-109616743D01*
X194742575Y-109616743D01*
X194687797Y-109639433D01*
X194629647Y-109651000D01*
X194570353Y-109651000D01*
X194512203Y-109639433D01*
X194457425Y-109616743D01*
X194457424Y-109616743D01*
X194457423Y-109616742D01*
X194408124Y-109583802D01*
X194366198Y-109541876D01*
X194333258Y-109492577D01*
X194333257Y-109492575D01*
X194328933Y-109486104D01*
X194313388Y-109467162D01*
X194294446Y-109451617D01*
X194272835Y-109440066D01*
X194249386Y-109432953D01*
X194225000Y-109430551D01*
X194200614Y-109432953D01*
X194177165Y-109440066D01*
X194155554Y-109451617D01*
X194136612Y-109467162D01*
X194121067Y-109486104D01*
X194116743Y-109492575D01*
X194116742Y-109492577D01*
X194083802Y-109541876D01*
X194041876Y-109583802D01*
X193992577Y-109616742D01*
X193992576Y-109616743D01*
X193992575Y-109616743D01*
X193937797Y-109639433D01*
X193879647Y-109651000D01*
X193820353Y-109651000D01*
X193762203Y-109639433D01*
X193707425Y-109616743D01*
X193707424Y-109616743D01*
X193707423Y-109616742D01*
X193658124Y-109583802D01*
X193616198Y-109541876D01*
X193583258Y-109492577D01*
X193580577Y-109486104D01*
X193560567Y-109437797D01*
X193549000Y-109379647D01*
X193549000Y-109320353D01*
X193560567Y-109262203D01*
X193583257Y-109207425D01*
X193583258Y-109207423D01*
X193616198Y-109158124D01*
X193658124Y-109116198D01*
X193707423Y-109083258D01*
X193707425Y-109083257D01*
X193762203Y-109060567D01*
X193820353Y-109049000D01*
X193879647Y-109049000D01*
X193937797Y-109060567D01*
X193937797Y-109060567D01*
G37*
G36*
X201737797Y-109060567D02*
G01*
X201792575Y-109083257D01*
X201792577Y-109083258D01*
X201841876Y-109116198D01*
X201883802Y-109158124D01*
X201916742Y-109207423D01*
X201921067Y-109213896D01*
X201936612Y-109232838D01*
X201955554Y-109248383D01*
X201977165Y-109259934D01*
X202000614Y-109267047D01*
X202025000Y-109269449D01*
X202049386Y-109267047D01*
X202072835Y-109259934D01*
X202094446Y-109248383D01*
X202113388Y-109232838D01*
X202128933Y-109213896D01*
X202133258Y-109207423D01*
X202166198Y-109158124D01*
X202208124Y-109116198D01*
X202257423Y-109083258D01*
X202257425Y-109083257D01*
X202312203Y-109060567D01*
X202370353Y-109049000D01*
X202429647Y-109049000D01*
X202487797Y-109060567D01*
X202542575Y-109083257D01*
X202542577Y-109083258D01*
X202591876Y-109116198D01*
X202633802Y-109158124D01*
X202666742Y-109207423D01*
X202671067Y-109213896D01*
X202686612Y-109232838D01*
X202705554Y-109248383D01*
X202727165Y-109259934D01*
X202750614Y-109267047D01*
X202775000Y-109269449D01*
X202799386Y-109267047D01*
X202822835Y-109259934D01*
X202844446Y-109248383D01*
X202863388Y-109232838D01*
X202878933Y-109213896D01*
X202883258Y-109207423D01*
X202916198Y-109158124D01*
X202958124Y-109116198D01*
X203007423Y-109083258D01*
X203007425Y-109083257D01*
X203062203Y-109060567D01*
X203120353Y-109049000D01*
X203179647Y-109049000D01*
X203237797Y-109060567D01*
X203292575Y-109083257D01*
X203292577Y-109083258D01*
X203341876Y-109116198D01*
X203383802Y-109158124D01*
X203416742Y-109207423D01*
X203416743Y-109207425D01*
X203439433Y-109262203D01*
X203451000Y-109320353D01*
X203451000Y-109379647D01*
X203439433Y-109437797D01*
X203419423Y-109486104D01*
X203416742Y-109492577D01*
X203383802Y-109541876D01*
X203341876Y-109583802D01*
X203292577Y-109616742D01*
X203292576Y-109616743D01*
X203292575Y-109616743D01*
X203237797Y-109639433D01*
X203179647Y-109651000D01*
X203120353Y-109651000D01*
X203062203Y-109639433D01*
X203007425Y-109616743D01*
X203007424Y-109616743D01*
X203007423Y-109616742D01*
X202958124Y-109583802D01*
X202916198Y-109541876D01*
X202883258Y-109492577D01*
X202883257Y-109492575D01*
X202878933Y-109486104D01*
X202863388Y-109467162D01*
X202844446Y-109451617D01*
X202822835Y-109440066D01*
X202799386Y-109432953D01*
X202775000Y-109430551D01*
X202750614Y-109432953D01*
X202727165Y-109440066D01*
X202705554Y-109451617D01*
X202686612Y-109467162D01*
X202671067Y-109486104D01*
X202666743Y-109492575D01*
X202666742Y-109492577D01*
X202633802Y-109541876D01*
X202591876Y-109583802D01*
X202542577Y-109616742D01*
X202542576Y-109616743D01*
X202542575Y-109616743D01*
X202487797Y-109639433D01*
X202429647Y-109651000D01*
X202370353Y-109651000D01*
X202312203Y-109639433D01*
X202257425Y-109616743D01*
X202257424Y-109616743D01*
X202257423Y-109616742D01*
X202208124Y-109583802D01*
X202166198Y-109541876D01*
X202133258Y-109492577D01*
X202133257Y-109492575D01*
X202128933Y-109486104D01*
X202113388Y-109467162D01*
X202094446Y-109451617D01*
X202072835Y-109440066D01*
X202049386Y-109432953D01*
X202025000Y-109430551D01*
X202000614Y-109432953D01*
X201977165Y-109440066D01*
X201955554Y-109451617D01*
X201936612Y-109467162D01*
X201921067Y-109486104D01*
X201916743Y-109492575D01*
X201916742Y-109492577D01*
X201883802Y-109541876D01*
X201841876Y-109583802D01*
X201792577Y-109616742D01*
X201792576Y-109616743D01*
X201792575Y-109616743D01*
X201737797Y-109639433D01*
X201679647Y-109651000D01*
X201620353Y-109651000D01*
X201562203Y-109639433D01*
X201507425Y-109616743D01*
X201507424Y-109616743D01*
X201507423Y-109616742D01*
X201458124Y-109583802D01*
X201416198Y-109541876D01*
X201383258Y-109492577D01*
X201380577Y-109486104D01*
X201360567Y-109437797D01*
X201349000Y-109379647D01*
X201349000Y-109320353D01*
X201360567Y-109262203D01*
X201383257Y-109207425D01*
X201383258Y-109207423D01*
X201416198Y-109158124D01*
X201458124Y-109116198D01*
X201507423Y-109083258D01*
X201507425Y-109083257D01*
X201562203Y-109060567D01*
X201620353Y-109049000D01*
X201679647Y-109049000D01*
X201737797Y-109060567D01*
X201737797Y-109060567D01*
G37*
G36*
X193937797Y-107560567D02*
G01*
X193992575Y-107583257D01*
X193992577Y-107583258D01*
X194041876Y-107616198D01*
X194083802Y-107658124D01*
X194116742Y-107707423D01*
X194121067Y-107713896D01*
X194136612Y-107732838D01*
X194155554Y-107748383D01*
X194177165Y-107759934D01*
X194200614Y-107767047D01*
X194225000Y-107769449D01*
X194249386Y-107767047D01*
X194272835Y-107759934D01*
X194294446Y-107748383D01*
X194313388Y-107732838D01*
X194328933Y-107713896D01*
X194333258Y-107707423D01*
X194366198Y-107658124D01*
X194408124Y-107616198D01*
X194457423Y-107583258D01*
X194457425Y-107583257D01*
X194512203Y-107560567D01*
X194570353Y-107549000D01*
X194629647Y-107549000D01*
X194687797Y-107560567D01*
X194742575Y-107583257D01*
X194742577Y-107583258D01*
X194791876Y-107616198D01*
X194833802Y-107658124D01*
X194866742Y-107707423D01*
X194871067Y-107713896D01*
X194886612Y-107732838D01*
X194905554Y-107748383D01*
X194927165Y-107759934D01*
X194950614Y-107767047D01*
X194975000Y-107769449D01*
X194999386Y-107767047D01*
X195022835Y-107759934D01*
X195044446Y-107748383D01*
X195063388Y-107732838D01*
X195078933Y-107713896D01*
X195083258Y-107707423D01*
X195116198Y-107658124D01*
X195158124Y-107616198D01*
X195207423Y-107583258D01*
X195207425Y-107583257D01*
X195262203Y-107560567D01*
X195320353Y-107549000D01*
X195379647Y-107549000D01*
X195437797Y-107560567D01*
X195492575Y-107583257D01*
X195492577Y-107583258D01*
X195541876Y-107616198D01*
X195583802Y-107658124D01*
X195616742Y-107707423D01*
X195616743Y-107707425D01*
X195639433Y-107762203D01*
X195651000Y-107820353D01*
X195651000Y-107879647D01*
X195639433Y-107937797D01*
X195619423Y-107986104D01*
X195616742Y-107992577D01*
X195583802Y-108041876D01*
X195541876Y-108083802D01*
X195492577Y-108116742D01*
X195492576Y-108116743D01*
X195492575Y-108116743D01*
X195437797Y-108139433D01*
X195379647Y-108151000D01*
X195320353Y-108151000D01*
X195262203Y-108139433D01*
X195207425Y-108116743D01*
X195207424Y-108116743D01*
X195207423Y-108116742D01*
X195158124Y-108083802D01*
X195116198Y-108041876D01*
X195083258Y-107992577D01*
X195083257Y-107992575D01*
X195078933Y-107986104D01*
X195063388Y-107967162D01*
X195044446Y-107951617D01*
X195022835Y-107940066D01*
X194999386Y-107932953D01*
X194975000Y-107930551D01*
X194950614Y-107932953D01*
X194927165Y-107940066D01*
X194905554Y-107951617D01*
X194886612Y-107967162D01*
X194871067Y-107986104D01*
X194866743Y-107992575D01*
X194866742Y-107992577D01*
X194833802Y-108041876D01*
X194791876Y-108083802D01*
X194742577Y-108116742D01*
X194742576Y-108116743D01*
X194742575Y-108116743D01*
X194687797Y-108139433D01*
X194629647Y-108151000D01*
X194570353Y-108151000D01*
X194512203Y-108139433D01*
X194457425Y-108116743D01*
X194457424Y-108116743D01*
X194457423Y-108116742D01*
X194408124Y-108083802D01*
X194366198Y-108041876D01*
X194333258Y-107992577D01*
X194333257Y-107992575D01*
X194328933Y-107986104D01*
X194313388Y-107967162D01*
X194294446Y-107951617D01*
X194272835Y-107940066D01*
X194249386Y-107932953D01*
X194225000Y-107930551D01*
X194200614Y-107932953D01*
X194177165Y-107940066D01*
X194155554Y-107951617D01*
X194136612Y-107967162D01*
X194121067Y-107986104D01*
X194116743Y-107992575D01*
X194116742Y-107992577D01*
X194083802Y-108041876D01*
X194041876Y-108083802D01*
X193992577Y-108116742D01*
X193992576Y-108116743D01*
X193992575Y-108116743D01*
X193937797Y-108139433D01*
X193879647Y-108151000D01*
X193820353Y-108151000D01*
X193762203Y-108139433D01*
X193707425Y-108116743D01*
X193707424Y-108116743D01*
X193707423Y-108116742D01*
X193658124Y-108083802D01*
X193616198Y-108041876D01*
X193583258Y-107992577D01*
X193580577Y-107986104D01*
X193560567Y-107937797D01*
X193549000Y-107879647D01*
X193549000Y-107820353D01*
X193560567Y-107762203D01*
X193583257Y-107707425D01*
X193583258Y-107707423D01*
X193616198Y-107658124D01*
X193658124Y-107616198D01*
X193707423Y-107583258D01*
X193707425Y-107583257D01*
X193762203Y-107560567D01*
X193820353Y-107549000D01*
X193879647Y-107549000D01*
X193937797Y-107560567D01*
X193937797Y-107560567D01*
G37*
G36*
X201737797Y-107560567D02*
G01*
X201792575Y-107583257D01*
X201792577Y-107583258D01*
X201841876Y-107616198D01*
X201883802Y-107658124D01*
X201916742Y-107707423D01*
X201921067Y-107713896D01*
X201936612Y-107732838D01*
X201955554Y-107748383D01*
X201977165Y-107759934D01*
X202000614Y-107767047D01*
X202025000Y-107769449D01*
X202049386Y-107767047D01*
X202072835Y-107759934D01*
X202094446Y-107748383D01*
X202113388Y-107732838D01*
X202128933Y-107713896D01*
X202133258Y-107707423D01*
X202166198Y-107658124D01*
X202208124Y-107616198D01*
X202257423Y-107583258D01*
X202257425Y-107583257D01*
X202312203Y-107560567D01*
X202370353Y-107549000D01*
X202429647Y-107549000D01*
X202487797Y-107560567D01*
X202542575Y-107583257D01*
X202542577Y-107583258D01*
X202591876Y-107616198D01*
X202633802Y-107658124D01*
X202666742Y-107707423D01*
X202671067Y-107713896D01*
X202686612Y-107732838D01*
X202705554Y-107748383D01*
X202727165Y-107759934D01*
X202750614Y-107767047D01*
X202775000Y-107769449D01*
X202799386Y-107767047D01*
X202822835Y-107759934D01*
X202844446Y-107748383D01*
X202863388Y-107732838D01*
X202878933Y-107713896D01*
X202883258Y-107707423D01*
X202916198Y-107658124D01*
X202958124Y-107616198D01*
X203007423Y-107583258D01*
X203007425Y-107583257D01*
X203062203Y-107560567D01*
X203120353Y-107549000D01*
X203179647Y-107549000D01*
X203237797Y-107560567D01*
X203292575Y-107583257D01*
X203292577Y-107583258D01*
X203341876Y-107616198D01*
X203383802Y-107658124D01*
X203416742Y-107707423D01*
X203416743Y-107707425D01*
X203439433Y-107762203D01*
X203451000Y-107820353D01*
X203451000Y-107879647D01*
X203439433Y-107937797D01*
X203419423Y-107986104D01*
X203416742Y-107992577D01*
X203383802Y-108041876D01*
X203341876Y-108083802D01*
X203292577Y-108116742D01*
X203292576Y-108116743D01*
X203292575Y-108116743D01*
X203237797Y-108139433D01*
X203179647Y-108151000D01*
X203120353Y-108151000D01*
X203062203Y-108139433D01*
X203007425Y-108116743D01*
X203007424Y-108116743D01*
X203007423Y-108116742D01*
X202958124Y-108083802D01*
X202916198Y-108041876D01*
X202883258Y-107992577D01*
X202883257Y-107992575D01*
X202878933Y-107986104D01*
X202863388Y-107967162D01*
X202844446Y-107951617D01*
X202822835Y-107940066D01*
X202799386Y-107932953D01*
X202775000Y-107930551D01*
X202750614Y-107932953D01*
X202727165Y-107940066D01*
X202705554Y-107951617D01*
X202686612Y-107967162D01*
X202671067Y-107986104D01*
X202666743Y-107992575D01*
X202666742Y-107992577D01*
X202633802Y-108041876D01*
X202591876Y-108083802D01*
X202542577Y-108116742D01*
X202542576Y-108116743D01*
X202542575Y-108116743D01*
X202487797Y-108139433D01*
X202429647Y-108151000D01*
X202370353Y-108151000D01*
X202312203Y-108139433D01*
X202257425Y-108116743D01*
X202257424Y-108116743D01*
X202257423Y-108116742D01*
X202208124Y-108083802D01*
X202166198Y-108041876D01*
X202133258Y-107992577D01*
X202133257Y-107992575D01*
X202128933Y-107986104D01*
X202113388Y-107967162D01*
X202094446Y-107951617D01*
X202072835Y-107940066D01*
X202049386Y-107932953D01*
X202025000Y-107930551D01*
X202000614Y-107932953D01*
X201977165Y-107940066D01*
X201955554Y-107951617D01*
X201936612Y-107967162D01*
X201921067Y-107986104D01*
X201916743Y-107992575D01*
X201916742Y-107992577D01*
X201883802Y-108041876D01*
X201841876Y-108083802D01*
X201792577Y-108116742D01*
X201792576Y-108116743D01*
X201792575Y-108116743D01*
X201737797Y-108139433D01*
X201679647Y-108151000D01*
X201620353Y-108151000D01*
X201562203Y-108139433D01*
X201507425Y-108116743D01*
X201507424Y-108116743D01*
X201507423Y-108116742D01*
X201458124Y-108083802D01*
X201416198Y-108041876D01*
X201383258Y-107992577D01*
X201380577Y-107986104D01*
X201360567Y-107937797D01*
X201349000Y-107879647D01*
X201349000Y-107820353D01*
X201360567Y-107762203D01*
X201383257Y-107707425D01*
X201383258Y-107707423D01*
X201416198Y-107658124D01*
X201458124Y-107616198D01*
X201507423Y-107583258D01*
X201507425Y-107583257D01*
X201562203Y-107560567D01*
X201620353Y-107549000D01*
X201679647Y-107549000D01*
X201737797Y-107560567D01*
X201737797Y-107560567D01*
G37*
G36*
X204700000Y-107100000D02*
G01*
X192500000Y-107100000D01*
X192500000Y-105800000D01*
X204700000Y-105800000D01*
X204700000Y-107100000D01*
X204700000Y-107100000D01*
G37*
G36*
X198979487Y-100703996D02*
G01*
X199216253Y-100802068D01*
X199216255Y-100802069D01*
X199429339Y-100944447D01*
X199610553Y-101125661D01*
X199667668Y-101211139D01*
X199752932Y-101338747D01*
X199851004Y-101575513D01*
X199901000Y-101826861D01*
X199901000Y-102083139D01*
X199851004Y-102334487D01*
X199752932Y-102571253D01*
X199752931Y-102571255D01*
X199610553Y-102784339D01*
X199429339Y-102965553D01*
X199216255Y-103107931D01*
X199216254Y-103107932D01*
X199216253Y-103107932D01*
X198979487Y-103206004D01*
X198728139Y-103256000D01*
X198471861Y-103256000D01*
X198220513Y-103206004D01*
X197983747Y-103107932D01*
X197983746Y-103107932D01*
X197983745Y-103107931D01*
X197770661Y-102965553D01*
X197589447Y-102784339D01*
X197447069Y-102571255D01*
X197447068Y-102571253D01*
X197348996Y-102334487D01*
X197299000Y-102083139D01*
X197299000Y-101826861D01*
X197348996Y-101575513D01*
X197447068Y-101338747D01*
X197532333Y-101211139D01*
X197589447Y-101125661D01*
X197770661Y-100944447D01*
X197983745Y-100802069D01*
X197983747Y-100802068D01*
X198220513Y-100703996D01*
X198471861Y-100654000D01*
X198728139Y-100654000D01*
X198979487Y-100703996D01*
X198979487Y-100703996D01*
G37*
G36*
X196310159Y-99598324D02*
G01*
X196504251Y-99678720D01*
X196546927Y-99696397D01*
X196760011Y-99838775D01*
X196941225Y-100019989D01*
X197071792Y-100215396D01*
X197083604Y-100233075D01*
X197181676Y-100469841D01*
X197231672Y-100721189D01*
X197231672Y-100977467D01*
X197181676Y-101228815D01*
X197090926Y-101447904D01*
X197083603Y-101465583D01*
X196941225Y-101678667D01*
X196760011Y-101859881D01*
X196546927Y-102002259D01*
X196546926Y-102002260D01*
X196546925Y-102002260D01*
X196310159Y-102100332D01*
X196058811Y-102150328D01*
X195802533Y-102150328D01*
X195551185Y-102100332D01*
X195314419Y-102002260D01*
X195314418Y-102002260D01*
X195314417Y-102002259D01*
X195101333Y-101859881D01*
X194920119Y-101678667D01*
X194777741Y-101465583D01*
X194770418Y-101447904D01*
X194679668Y-101228815D01*
X194629672Y-100977467D01*
X194629672Y-100721189D01*
X194679668Y-100469841D01*
X194777740Y-100233075D01*
X194789553Y-100215396D01*
X194920119Y-100019989D01*
X195101333Y-99838775D01*
X195314417Y-99696397D01*
X195357093Y-99678720D01*
X195551185Y-99598324D01*
X195802533Y-99548328D01*
X196058811Y-99548328D01*
X196310159Y-99598324D01*
X196310159Y-99598324D01*
G37*
G36*
X201648815Y-99580647D02*
G01*
X201885581Y-99678719D01*
X201885583Y-99678720D01*
X202098667Y-99821098D01*
X202279881Y-100002312D01*
X202422260Y-100215398D01*
X202520332Y-100452164D01*
X202570328Y-100703512D01*
X202570328Y-100959790D01*
X202520332Y-101211138D01*
X202467475Y-101338745D01*
X202422259Y-101447906D01*
X202279881Y-101660990D01*
X202098667Y-101842204D01*
X201885583Y-101984582D01*
X201885582Y-101984583D01*
X201885581Y-101984583D01*
X201648815Y-102082655D01*
X201397467Y-102132651D01*
X201141189Y-102132651D01*
X200889841Y-102082655D01*
X200653075Y-101984583D01*
X200653074Y-101984583D01*
X200653073Y-101984582D01*
X200439989Y-101842204D01*
X200258775Y-101660990D01*
X200116397Y-101447906D01*
X200071181Y-101338745D01*
X200018324Y-101211138D01*
X199968328Y-100959790D01*
X199968328Y-100703512D01*
X200018324Y-100452164D01*
X200116396Y-100215398D01*
X200258775Y-100002312D01*
X200439989Y-99821098D01*
X200653073Y-99678720D01*
X200653075Y-99678719D01*
X200889841Y-99580647D01*
X201141189Y-99530651D01*
X201397467Y-99530651D01*
X201648815Y-99580647D01*
X201648815Y-99580647D01*
G37*
G36*
X202754487Y-96928996D02*
G01*
X202991253Y-97027068D01*
X202991255Y-97027069D01*
X203101170Y-97100512D01*
X203204339Y-97169447D01*
X203385553Y-97350661D01*
X203527932Y-97563747D01*
X203626004Y-97800513D01*
X203676000Y-98051861D01*
X203676000Y-98308139D01*
X203626004Y-98559487D01*
X203554959Y-98731004D01*
X203527931Y-98796255D01*
X203385553Y-99009339D01*
X203204339Y-99190553D01*
X202991255Y-99332931D01*
X202991254Y-99332932D01*
X202991253Y-99332932D01*
X202754487Y-99431004D01*
X202503139Y-99481000D01*
X202246861Y-99481000D01*
X201995513Y-99431004D01*
X201758747Y-99332932D01*
X201758746Y-99332932D01*
X201758745Y-99332931D01*
X201545661Y-99190553D01*
X201364447Y-99009339D01*
X201222069Y-98796255D01*
X201195041Y-98731004D01*
X201123996Y-98559487D01*
X201074000Y-98308139D01*
X201074000Y-98051861D01*
X201123996Y-97800513D01*
X201222068Y-97563747D01*
X201364447Y-97350661D01*
X201545661Y-97169447D01*
X201648830Y-97100512D01*
X201758745Y-97027069D01*
X201758747Y-97027068D01*
X201995513Y-96928996D01*
X202246861Y-96879000D01*
X202503139Y-96879000D01*
X202754487Y-96928996D01*
X202754487Y-96928996D01*
G37*
G36*
X195204487Y-96928996D02*
G01*
X195441253Y-97027068D01*
X195441255Y-97027069D01*
X195551170Y-97100512D01*
X195654339Y-97169447D01*
X195835553Y-97350661D01*
X195977932Y-97563747D01*
X196076004Y-97800513D01*
X196126000Y-98051861D01*
X196126000Y-98308139D01*
X196076004Y-98559487D01*
X196004959Y-98731004D01*
X195977931Y-98796255D01*
X195835553Y-99009339D01*
X195654339Y-99190553D01*
X195441255Y-99332931D01*
X195441254Y-99332932D01*
X195441253Y-99332932D01*
X195204487Y-99431004D01*
X194953139Y-99481000D01*
X194696861Y-99481000D01*
X194445513Y-99431004D01*
X194208747Y-99332932D01*
X194208746Y-99332932D01*
X194208745Y-99332931D01*
X193995661Y-99190553D01*
X193814447Y-99009339D01*
X193672069Y-98796255D01*
X193645041Y-98731004D01*
X193573996Y-98559487D01*
X193524000Y-98308139D01*
X193524000Y-98051861D01*
X193573996Y-97800513D01*
X193672068Y-97563747D01*
X193814447Y-97350661D01*
X193995661Y-97169447D01*
X194098830Y-97100512D01*
X194208745Y-97027069D01*
X194208747Y-97027068D01*
X194445513Y-96928996D01*
X194696861Y-96879000D01*
X194953139Y-96879000D01*
X195204487Y-96928996D01*
X195204487Y-96928996D01*
G37*
G36*
X198979487Y-96228996D02*
G01*
X199216253Y-96327068D01*
X199216255Y-96327069D01*
X199235624Y-96340011D01*
X199429339Y-96469447D01*
X199610553Y-96650661D01*
X199752932Y-96863747D01*
X199851004Y-97100513D01*
X199901000Y-97351861D01*
X199901000Y-97608139D01*
X199851004Y-97859487D01*
X199771320Y-98051861D01*
X199752931Y-98096255D01*
X199610553Y-98309339D01*
X199429339Y-98490553D01*
X199216255Y-98632931D01*
X199216254Y-98632932D01*
X199216253Y-98632932D01*
X198979487Y-98731004D01*
X198728139Y-98781000D01*
X198471861Y-98781000D01*
X198220513Y-98731004D01*
X197983747Y-98632932D01*
X197983746Y-98632932D01*
X197983745Y-98632931D01*
X197770661Y-98490553D01*
X197589447Y-98309339D01*
X197447069Y-98096255D01*
X197428680Y-98051861D01*
X197348996Y-97859487D01*
X197299000Y-97608139D01*
X197299000Y-97351861D01*
X197348996Y-97100513D01*
X197447068Y-96863747D01*
X197589447Y-96650661D01*
X197770661Y-96469447D01*
X197964376Y-96340011D01*
X197983745Y-96327069D01*
X197983747Y-96327068D01*
X198220513Y-96228996D01*
X198471861Y-96179000D01*
X198728139Y-96179000D01*
X198979487Y-96228996D01*
X198979487Y-96228996D01*
G37*
G36*
X196310159Y-94259668D02*
G01*
X196546925Y-94357740D01*
X196546927Y-94357741D01*
X196760011Y-94500119D01*
X196941225Y-94681333D01*
X197083604Y-94894419D01*
X197181676Y-95131185D01*
X197231672Y-95382533D01*
X197231672Y-95638811D01*
X197181676Y-95890159D01*
X197083604Y-96126925D01*
X197083603Y-96126927D01*
X196941225Y-96340011D01*
X196760011Y-96521225D01*
X196546927Y-96663603D01*
X196546926Y-96663604D01*
X196546925Y-96663604D01*
X196310159Y-96761676D01*
X196058811Y-96811672D01*
X195802533Y-96811672D01*
X195551185Y-96761676D01*
X195314419Y-96663604D01*
X195314418Y-96663604D01*
X195314417Y-96663603D01*
X195101333Y-96521225D01*
X194920119Y-96340011D01*
X194777741Y-96126927D01*
X194777740Y-96126925D01*
X194679668Y-95890159D01*
X194629672Y-95638811D01*
X194629672Y-95382533D01*
X194679668Y-95131185D01*
X194777740Y-94894419D01*
X194920119Y-94681333D01*
X195101333Y-94500119D01*
X195314417Y-94357741D01*
X195314419Y-94357740D01*
X195551185Y-94259668D01*
X195802533Y-94209672D01*
X196058811Y-94209672D01*
X196310159Y-94259668D01*
X196310159Y-94259668D01*
G37*
G36*
X201648815Y-94259668D02*
G01*
X201885581Y-94357740D01*
X201885583Y-94357741D01*
X202098667Y-94500119D01*
X202279881Y-94681333D01*
X202422260Y-94894419D01*
X202520332Y-95131185D01*
X202570328Y-95382533D01*
X202570328Y-95638811D01*
X202520332Y-95890159D01*
X202422260Y-96126925D01*
X202422259Y-96126927D01*
X202279881Y-96340011D01*
X202098667Y-96521225D01*
X201885583Y-96663603D01*
X201885582Y-96663604D01*
X201885581Y-96663604D01*
X201648815Y-96761676D01*
X201397467Y-96811672D01*
X201141189Y-96811672D01*
X200889841Y-96761676D01*
X200653075Y-96663604D01*
X200653074Y-96663604D01*
X200653073Y-96663603D01*
X200439989Y-96521225D01*
X200258775Y-96340011D01*
X200116397Y-96126927D01*
X200116396Y-96126925D01*
X200018324Y-95890159D01*
X199968328Y-95638811D01*
X199968328Y-95382533D01*
X200018324Y-95131185D01*
X200116396Y-94894419D01*
X200258775Y-94681333D01*
X200439989Y-94500119D01*
X200653073Y-94357741D01*
X200653075Y-94357740D01*
X200889841Y-94259668D01*
X201141189Y-94209672D01*
X201397467Y-94209672D01*
X201648815Y-94259668D01*
X201648815Y-94259668D01*
G37*
M02*
