G04 #@! TF.GenerationSoftware,KiCad,Pcbnew,(5.1.0)-1*
G04 #@! TF.CreationDate,2019-07-11T17:38:34-04:00*
G04 #@! TF.ProjectId,8 Pin DIN to 9 Pin Mini DIN,38205069-6e20-4444-994e-20746f203920,rev?*
G04 #@! TF.SameCoordinates,Original*
G04 #@! TF.FileFunction,Legend,Bot*
G04 #@! TF.FilePolarity,Positive*
%FSLAX46Y46*%
G04 Gerber Fmt 4.6, Leading zero omitted, Abs format (unit mm)*
G04 Created by KiCad (PCBNEW (5.1.0)-1) date 2019-07-11 17:38:34*
%MOMM*%
%LPD*%
G04 APERTURE LIST*
%ADD10C,0.150000*%
G04 APERTURE END LIST*
D10*
X202750000Y-128216666D02*
X202350000Y-128216666D01*
X202550000Y-128916666D02*
X202550000Y-128216666D01*
X202116666Y-128916666D02*
X202116666Y-128450000D01*
X202116666Y-128216666D02*
X202150000Y-128250000D01*
X202116666Y-128283333D01*
X202083333Y-128250000D01*
X202116666Y-128216666D01*
X202116666Y-128283333D01*
X201783333Y-128450000D02*
X201783333Y-128916666D01*
X201783333Y-128516666D02*
X201750000Y-128483333D01*
X201683333Y-128450000D01*
X201583333Y-128450000D01*
X201516666Y-128483333D01*
X201483333Y-128550000D01*
X201483333Y-128916666D01*
X201150000Y-128916666D02*
X201150000Y-128216666D01*
X201083333Y-128650000D02*
X200883333Y-128916666D01*
X200883333Y-128450000D02*
X201150000Y-128716666D01*
X200316666Y-128883333D02*
X200383333Y-128916666D01*
X200516666Y-128916666D01*
X200583333Y-128883333D01*
X200616666Y-128816666D01*
X200616666Y-128550000D01*
X200583333Y-128483333D01*
X200516666Y-128450000D01*
X200383333Y-128450000D01*
X200316666Y-128483333D01*
X200283333Y-128550000D01*
X200283333Y-128616666D01*
X200616666Y-128683333D01*
X199983333Y-128916666D02*
X199983333Y-128450000D01*
X199983333Y-128583333D02*
X199950000Y-128516666D01*
X199916666Y-128483333D01*
X199850000Y-128450000D01*
X199783333Y-128450000D01*
X199550000Y-128450000D02*
X199550000Y-129150000D01*
X199550000Y-128483333D02*
X199483333Y-128450000D01*
X199350000Y-128450000D01*
X199283333Y-128483333D01*
X199250000Y-128516666D01*
X199216666Y-128583333D01*
X199216666Y-128783333D01*
X199250000Y-128850000D01*
X199283333Y-128883333D01*
X199350000Y-128916666D01*
X199483333Y-128916666D01*
X199550000Y-128883333D01*
X198816666Y-128916666D02*
X198883333Y-128883333D01*
X198916666Y-128816666D01*
X198916666Y-128216666D01*
X198250000Y-128450000D02*
X198250000Y-128916666D01*
X198550000Y-128450000D02*
X198550000Y-128816666D01*
X198516666Y-128883333D01*
X198450000Y-128916666D01*
X198350000Y-128916666D01*
X198283333Y-128883333D01*
X198250000Y-128850000D01*
X197916666Y-128450000D02*
X197916666Y-128916666D01*
X197916666Y-128516666D02*
X197883333Y-128483333D01*
X197816666Y-128450000D01*
X197716666Y-128450000D01*
X197650000Y-128483333D01*
X197616666Y-128550000D01*
X197616666Y-128916666D01*
X197283333Y-128916666D02*
X197283333Y-128216666D01*
X197216666Y-128650000D02*
X197016666Y-128916666D01*
X197016666Y-128450000D02*
X197283333Y-128716666D01*
X196716666Y-128850000D02*
X196683333Y-128883333D01*
X196716666Y-128916666D01*
X196750000Y-128883333D01*
X196716666Y-128850000D01*
X196716666Y-128916666D01*
X196083333Y-128883333D02*
X196150000Y-128916666D01*
X196283333Y-128916666D01*
X196350000Y-128883333D01*
X196383333Y-128850000D01*
X196416666Y-128783333D01*
X196416666Y-128583333D01*
X196383333Y-128516666D01*
X196350000Y-128483333D01*
X196283333Y-128450000D01*
X196150000Y-128450000D01*
X196083333Y-128483333D01*
X195683333Y-128916666D02*
X195750000Y-128883333D01*
X195783333Y-128850000D01*
X195816666Y-128783333D01*
X195816666Y-128583333D01*
X195783333Y-128516666D01*
X195750000Y-128483333D01*
X195683333Y-128450000D01*
X195583333Y-128450000D01*
X195516666Y-128483333D01*
X195483333Y-128516666D01*
X195450000Y-128583333D01*
X195450000Y-128783333D01*
X195483333Y-128850000D01*
X195516666Y-128883333D01*
X195583333Y-128916666D01*
X195683333Y-128916666D01*
X195150000Y-128916666D02*
X195150000Y-128450000D01*
X195150000Y-128516666D02*
X195116666Y-128483333D01*
X195050000Y-128450000D01*
X194950000Y-128450000D01*
X194883333Y-128483333D01*
X194850000Y-128550000D01*
X194850000Y-128916666D01*
X194850000Y-128550000D02*
X194816666Y-128483333D01*
X194750000Y-128450000D01*
X194650000Y-128450000D01*
X194583333Y-128483333D01*
X194550000Y-128550000D01*
X194550000Y-128916666D01*
X203916666Y-130116666D02*
X203916666Y-129416666D01*
X203650000Y-129416666D01*
X203583333Y-129450000D01*
X203550000Y-129483333D01*
X203516666Y-129550000D01*
X203516666Y-129650000D01*
X203550000Y-129716666D01*
X203583333Y-129750000D01*
X203650000Y-129783333D01*
X203916666Y-129783333D01*
X202816666Y-130050000D02*
X202850000Y-130083333D01*
X202950000Y-130116666D01*
X203016666Y-130116666D01*
X203116666Y-130083333D01*
X203183333Y-130016666D01*
X203216666Y-129950000D01*
X203250000Y-129816666D01*
X203250000Y-129716666D01*
X203216666Y-129583333D01*
X203183333Y-129516666D01*
X203116666Y-129450000D01*
X203016666Y-129416666D01*
X202950000Y-129416666D01*
X202850000Y-129450000D01*
X202816666Y-129483333D01*
X201983333Y-129750000D02*
X201750000Y-129750000D01*
X201650000Y-130116666D02*
X201983333Y-130116666D01*
X201983333Y-129416666D01*
X201650000Y-129416666D01*
X201350000Y-129650000D02*
X201350000Y-130116666D01*
X201350000Y-129716666D02*
X201316666Y-129683333D01*
X201250000Y-129650000D01*
X201150000Y-129650000D01*
X201083333Y-129683333D01*
X201050000Y-129750000D01*
X201050000Y-130116666D01*
X200416666Y-129650000D02*
X200416666Y-130216666D01*
X200450000Y-130283333D01*
X200483333Y-130316666D01*
X200550000Y-130350000D01*
X200650000Y-130350000D01*
X200716666Y-130316666D01*
X200416666Y-130083333D02*
X200483333Y-130116666D01*
X200616666Y-130116666D01*
X200683333Y-130083333D01*
X200716666Y-130050000D01*
X200750000Y-129983333D01*
X200750000Y-129783333D01*
X200716666Y-129716666D01*
X200683333Y-129683333D01*
X200616666Y-129650000D01*
X200483333Y-129650000D01*
X200416666Y-129683333D01*
X200083333Y-130116666D02*
X200083333Y-129650000D01*
X200083333Y-129416666D02*
X200116666Y-129450000D01*
X200083333Y-129483333D01*
X200050000Y-129450000D01*
X200083333Y-129416666D01*
X200083333Y-129483333D01*
X199750000Y-129650000D02*
X199750000Y-130116666D01*
X199750000Y-129716666D02*
X199716666Y-129683333D01*
X199650000Y-129650000D01*
X199550000Y-129650000D01*
X199483333Y-129683333D01*
X199450000Y-129750000D01*
X199450000Y-130116666D01*
X198850000Y-130083333D02*
X198916666Y-130116666D01*
X199050000Y-130116666D01*
X199116666Y-130083333D01*
X199150000Y-130016666D01*
X199150000Y-129750000D01*
X199116666Y-129683333D01*
X199050000Y-129650000D01*
X198916666Y-129650000D01*
X198850000Y-129683333D01*
X198816666Y-129750000D01*
X198816666Y-129816666D01*
X199150000Y-129883333D01*
X198016666Y-129383333D02*
X198616666Y-130283333D01*
X197883333Y-129416666D02*
X197483333Y-129416666D01*
X197683333Y-130116666D02*
X197683333Y-129416666D01*
X196950000Y-129650000D02*
X196950000Y-130116666D01*
X197250000Y-129650000D02*
X197250000Y-130016666D01*
X197216666Y-130083333D01*
X197150000Y-130116666D01*
X197050000Y-130116666D01*
X196983333Y-130083333D01*
X196950000Y-130050000D01*
X196616666Y-130116666D02*
X196616666Y-129650000D01*
X196616666Y-129783333D02*
X196583333Y-129716666D01*
X196550000Y-129683333D01*
X196483333Y-129650000D01*
X196416666Y-129650000D01*
X196183333Y-130116666D02*
X196183333Y-129416666D01*
X196183333Y-129683333D02*
X196116666Y-129650000D01*
X195983333Y-129650000D01*
X195916666Y-129683333D01*
X195883333Y-129716666D01*
X195850000Y-129783333D01*
X195850000Y-129983333D01*
X195883333Y-130050000D01*
X195916666Y-130083333D01*
X195983333Y-130116666D01*
X196116666Y-130116666D01*
X196183333Y-130083333D01*
X195450000Y-130116666D02*
X195516666Y-130083333D01*
X195550000Y-130050000D01*
X195583333Y-129983333D01*
X195583333Y-129783333D01*
X195550000Y-129716666D01*
X195516666Y-129683333D01*
X195450000Y-129650000D01*
X195350000Y-129650000D01*
X195283333Y-129683333D01*
X195250000Y-129716666D01*
X195216666Y-129783333D01*
X195216666Y-129983333D01*
X195250000Y-130050000D01*
X195283333Y-130083333D01*
X195350000Y-130116666D01*
X195450000Y-130116666D01*
X194916666Y-130116666D02*
X194916666Y-129416666D01*
X194750000Y-129416666D01*
X194650000Y-129450000D01*
X194583333Y-129516666D01*
X194550000Y-129583333D01*
X194516666Y-129716666D01*
X194516666Y-129816666D01*
X194550000Y-129950000D01*
X194583333Y-130016666D01*
X194650000Y-130083333D01*
X194750000Y-130116666D01*
X194916666Y-130116666D01*
X193916666Y-129650000D02*
X193916666Y-130116666D01*
X194216666Y-129650000D02*
X194216666Y-130016666D01*
X194183333Y-130083333D01*
X194116666Y-130116666D01*
X194016666Y-130116666D01*
X193950000Y-130083333D01*
X193916666Y-130050000D01*
X193483333Y-130116666D02*
X193550000Y-130083333D01*
X193583333Y-130050000D01*
X193616666Y-129983333D01*
X193616666Y-129783333D01*
X193583333Y-129716666D01*
X193550000Y-129683333D01*
X193483333Y-129650000D01*
X193383333Y-129650000D01*
X193316666Y-129683333D01*
X193283333Y-129716666D01*
X193250000Y-129783333D01*
X193250000Y-129983333D01*
X193283333Y-130050000D01*
X193316666Y-130083333D01*
X193383333Y-130116666D01*
X193483333Y-130116666D01*
X206266666Y-130850000D02*
X206000000Y-130850000D01*
X206166666Y-130616666D02*
X206166666Y-131216666D01*
X206133333Y-131283333D01*
X206066666Y-131316666D01*
X206000000Y-131316666D01*
X205666666Y-131316666D02*
X205733333Y-131283333D01*
X205766666Y-131250000D01*
X205800000Y-131183333D01*
X205800000Y-130983333D01*
X205766666Y-130916666D01*
X205733333Y-130883333D01*
X205666666Y-130850000D01*
X205566666Y-130850000D01*
X205500000Y-130883333D01*
X205466666Y-130916666D01*
X205433333Y-130983333D01*
X205433333Y-131183333D01*
X205466666Y-131250000D01*
X205500000Y-131283333D01*
X205566666Y-131316666D01*
X205666666Y-131316666D01*
X204600000Y-131316666D02*
X204600000Y-130616666D01*
X204600000Y-130950000D02*
X204200000Y-130950000D01*
X204200000Y-131316666D02*
X204200000Y-130616666D01*
X203866666Y-131316666D02*
X203866666Y-130616666D01*
X203700000Y-130616666D01*
X203600000Y-130650000D01*
X203533333Y-130716666D01*
X203500000Y-130783333D01*
X203466666Y-130916666D01*
X203466666Y-131016666D01*
X203500000Y-131150000D01*
X203533333Y-131216666D01*
X203600000Y-131283333D01*
X203700000Y-131316666D01*
X203866666Y-131316666D01*
X202766666Y-131316666D02*
X203000000Y-130983333D01*
X203166666Y-131316666D02*
X203166666Y-130616666D01*
X202900000Y-130616666D01*
X202833333Y-130650000D01*
X202800000Y-130683333D01*
X202766666Y-130750000D01*
X202766666Y-130850000D01*
X202800000Y-130916666D01*
X202833333Y-130950000D01*
X202900000Y-130983333D01*
X203166666Y-130983333D01*
X202200000Y-131283333D02*
X202266666Y-131316666D01*
X202400000Y-131316666D01*
X202466666Y-131283333D01*
X202500000Y-131216666D01*
X202500000Y-130950000D01*
X202466666Y-130883333D01*
X202400000Y-130850000D01*
X202266666Y-130850000D01*
X202200000Y-130883333D01*
X202166666Y-130950000D01*
X202166666Y-131016666D01*
X202500000Y-131083333D01*
X201966666Y-130850000D02*
X201700000Y-130850000D01*
X201866666Y-130616666D02*
X201866666Y-131216666D01*
X201833333Y-131283333D01*
X201766666Y-131316666D01*
X201700000Y-131316666D01*
X201466666Y-131316666D02*
X201466666Y-130850000D01*
X201466666Y-130983333D02*
X201433333Y-130916666D01*
X201400000Y-130883333D01*
X201333333Y-130850000D01*
X201266666Y-130850000D01*
X200933333Y-131316666D02*
X201000000Y-131283333D01*
X201033333Y-131250000D01*
X201066666Y-131183333D01*
X201066666Y-130983333D01*
X201033333Y-130916666D01*
X201000000Y-130883333D01*
X200933333Y-130850000D01*
X200833333Y-130850000D01*
X200766666Y-130883333D01*
X200733333Y-130916666D01*
X200700000Y-130983333D01*
X200700000Y-131183333D01*
X200733333Y-131250000D01*
X200766666Y-131283333D01*
X200833333Y-131316666D01*
X200933333Y-131316666D01*
X200466666Y-130850000D02*
X200300000Y-131316666D01*
X200133333Y-130850000D01*
X199866666Y-131316666D02*
X199866666Y-130850000D01*
X199866666Y-130616666D02*
X199900000Y-130650000D01*
X199866666Y-130683333D01*
X199833333Y-130650000D01*
X199866666Y-130616666D01*
X199866666Y-130683333D01*
X199566666Y-131283333D02*
X199500000Y-131316666D01*
X199366666Y-131316666D01*
X199300000Y-131283333D01*
X199266666Y-131216666D01*
X199266666Y-131183333D01*
X199300000Y-131116666D01*
X199366666Y-131083333D01*
X199466666Y-131083333D01*
X199533333Y-131050000D01*
X199566666Y-130983333D01*
X199566666Y-130950000D01*
X199533333Y-130883333D01*
X199466666Y-130850000D01*
X199366666Y-130850000D01*
X199300000Y-130883333D01*
X198966666Y-131316666D02*
X198966666Y-130850000D01*
X198966666Y-130616666D02*
X199000000Y-130650000D01*
X198966666Y-130683333D01*
X198933333Y-130650000D01*
X198966666Y-130616666D01*
X198966666Y-130683333D01*
X198533333Y-131316666D02*
X198600000Y-131283333D01*
X198633333Y-131250000D01*
X198666666Y-131183333D01*
X198666666Y-130983333D01*
X198633333Y-130916666D01*
X198600000Y-130883333D01*
X198533333Y-130850000D01*
X198433333Y-130850000D01*
X198366666Y-130883333D01*
X198333333Y-130916666D01*
X198300000Y-130983333D01*
X198300000Y-131183333D01*
X198333333Y-131250000D01*
X198366666Y-131283333D01*
X198433333Y-131316666D01*
X198533333Y-131316666D01*
X198000000Y-130850000D02*
X198000000Y-131316666D01*
X198000000Y-130916666D02*
X197966666Y-130883333D01*
X197900000Y-130850000D01*
X197800000Y-130850000D01*
X197733333Y-130883333D01*
X197700000Y-130950000D01*
X197700000Y-131316666D01*
X196866666Y-131116666D02*
X196533333Y-131116666D01*
X196933333Y-131316666D02*
X196700000Y-130616666D01*
X196466666Y-131316666D01*
X195933333Y-131316666D02*
X195933333Y-130616666D01*
X195933333Y-131283333D02*
X196000000Y-131316666D01*
X196133333Y-131316666D01*
X196200000Y-131283333D01*
X196233333Y-131250000D01*
X196266666Y-131183333D01*
X196266666Y-130983333D01*
X196233333Y-130916666D01*
X196200000Y-130883333D01*
X196133333Y-130850000D01*
X196000000Y-130850000D01*
X195933333Y-130883333D01*
X195300000Y-131316666D02*
X195300000Y-130950000D01*
X195333333Y-130883333D01*
X195400000Y-130850000D01*
X195533333Y-130850000D01*
X195600000Y-130883333D01*
X195300000Y-131283333D02*
X195366666Y-131316666D01*
X195533333Y-131316666D01*
X195600000Y-131283333D01*
X195633333Y-131216666D01*
X195633333Y-131150000D01*
X195600000Y-131083333D01*
X195533333Y-131050000D01*
X195366666Y-131050000D01*
X195300000Y-131016666D01*
X194966666Y-130850000D02*
X194966666Y-131550000D01*
X194966666Y-130883333D02*
X194900000Y-130850000D01*
X194766666Y-130850000D01*
X194700000Y-130883333D01*
X194666666Y-130916666D01*
X194633333Y-130983333D01*
X194633333Y-131183333D01*
X194666666Y-131250000D01*
X194700000Y-131283333D01*
X194766666Y-131316666D01*
X194900000Y-131316666D01*
X194966666Y-131283333D01*
X194433333Y-130850000D02*
X194166666Y-130850000D01*
X194333333Y-130616666D02*
X194333333Y-131216666D01*
X194300000Y-131283333D01*
X194233333Y-131316666D01*
X194166666Y-131316666D01*
X193666666Y-131283333D02*
X193733333Y-131316666D01*
X193866666Y-131316666D01*
X193933333Y-131283333D01*
X193966666Y-131216666D01*
X193966666Y-130950000D01*
X193933333Y-130883333D01*
X193866666Y-130850000D01*
X193733333Y-130850000D01*
X193666666Y-130883333D01*
X193633333Y-130950000D01*
X193633333Y-131016666D01*
X193966666Y-131083333D01*
X193333333Y-131316666D02*
X193333333Y-130850000D01*
X193333333Y-130983333D02*
X193300000Y-130916666D01*
X193266666Y-130883333D01*
X193200000Y-130850000D01*
X193133333Y-130850000D01*
X192400000Y-130683333D02*
X192366666Y-130650000D01*
X192300000Y-130616666D01*
X192133333Y-130616666D01*
X192066666Y-130650000D01*
X192033333Y-130683333D01*
X192000000Y-130750000D01*
X192000000Y-130816666D01*
X192033333Y-130916666D01*
X192433333Y-131316666D01*
X192000000Y-131316666D01*
X191700000Y-131250000D02*
X191666666Y-131283333D01*
X191700000Y-131316666D01*
X191733333Y-131283333D01*
X191700000Y-131250000D01*
X191700000Y-131316666D01*
X191233333Y-130616666D02*
X191166666Y-130616666D01*
X191100000Y-130650000D01*
X191066666Y-130683333D01*
X191033333Y-130750000D01*
X191000000Y-130883333D01*
X191000000Y-131050000D01*
X191033333Y-131183333D01*
X191066666Y-131250000D01*
X191100000Y-131283333D01*
X191166666Y-131316666D01*
X191233333Y-131316666D01*
X191300000Y-131283333D01*
X191333333Y-131250000D01*
X191366666Y-131183333D01*
X191400000Y-131050000D01*
X191400000Y-130883333D01*
X191366666Y-130750000D01*
X191333333Y-130683333D01*
X191300000Y-130650000D01*
X191233333Y-130616666D01*
M02*
