G04 #@! TF.GenerationSoftware,KiCad,Pcbnew,(5.1.0)-1*
G04 #@! TF.CreationDate,2019-06-26T15:16:09-04:00*
G04 #@! TF.ProjectId,8 Pin DIN to 9 Pin Mini DIN,38205069-6e20-4444-994e-20746f203920,rev?*
G04 #@! TF.SameCoordinates,Original*
G04 #@! TF.FileFunction,Copper,L2,Bot*
G04 #@! TF.FilePolarity,Positive*
%FSLAX46Y46*%
G04 Gerber Fmt 4.6, Leading zero omitted, Abs format (unit mm)*
G04 Created by KiCad (PCBNEW (5.1.0)-1) date 2019-06-26 15:16:09*
%MOMM*%
%LPD*%
G04 APERTURE LIST*
%ADD10O,3.400000X1.700000*%
%ADD11C,1.408000*%
%ADD12R,1.408000X1.408000*%
%ADD13C,3.316000*%
%ADD14R,0.882667X1.000000*%
%ADD15C,2.200000*%
%ADD16C,0.800000*%
%ADD17C,0.250000*%
%ADD18C,0.254000*%
G04 APERTURE END LIST*
D10*
X198610000Y-122810000D03*
D11*
X202600000Y-119000000D03*
D12*
X199900000Y-119000000D03*
D11*
X197900000Y-119000000D03*
X194600000Y-119000000D03*
X202600000Y-116500000D03*
X194600000Y-116500000D03*
X196600000Y-116500000D03*
X200600000Y-116500000D03*
X198600000Y-116500000D03*
D13*
X205850000Y-122000000D03*
X191350000Y-122000000D03*
D14*
X192480000Y-105500000D03*
X194245334Y-105500000D03*
X196010668Y-105500000D03*
X197776002Y-105500000D03*
X199541336Y-105500000D03*
X201306670Y-105500000D03*
X203072004Y-105500000D03*
X204700000Y-105500000D03*
D15*
X202275000Y-98180000D03*
X194925000Y-98180000D03*
X198600000Y-101855000D03*
X201198617Y-95581383D03*
X196001383Y-95581383D03*
X196001383Y-100778617D03*
X201198617Y-100760940D03*
X198600000Y-97480000D03*
D16*
X198500000Y-93200000D03*
X200000000Y-103800000D03*
X202100000Y-103700000D03*
X203900000Y-103400000D03*
X195000000Y-103000000D03*
X200300000Y-93200000D03*
X196798372Y-114180777D03*
X192100000Y-115200000D03*
X198480000Y-114475000D03*
D17*
X203072004Y-104750000D02*
X203072004Y-105500000D01*
X203072004Y-99927996D02*
X203072004Y-104750000D01*
X203100000Y-99900000D02*
X203072004Y-99927996D01*
X202275000Y-98180000D02*
X202275000Y-99075000D01*
X202275000Y-99075000D02*
X203100000Y-99900000D01*
X196010668Y-105441334D02*
X196010668Y-105500000D01*
X193825001Y-103255667D02*
X196010668Y-105441334D01*
X193825001Y-99279999D02*
X193825001Y-103255667D01*
X194925000Y-98180000D02*
X193825001Y-99279999D01*
X198600000Y-101855000D02*
X198600000Y-103600000D01*
X199541336Y-104541336D02*
X199541336Y-105500000D01*
X198600000Y-103600000D02*
X199541336Y-104541336D01*
X204700000Y-104750000D02*
X204700000Y-105500000D01*
X204700000Y-97800000D02*
X204700000Y-104750000D01*
X202500000Y-95600000D02*
X204700000Y-97800000D01*
X201198617Y-95581383D02*
X201217234Y-95600000D01*
X201217234Y-95600000D02*
X202500000Y-95600000D01*
X202600000Y-116500000D02*
X201300000Y-115200000D01*
X201300000Y-115200000D02*
X192100000Y-115200000D01*
X194245334Y-105441334D02*
X194245334Y-105500000D01*
X193033667Y-104229667D02*
X194245334Y-105441334D01*
X193338857Y-95691658D02*
X193279349Y-95821582D01*
X193279349Y-95821582D02*
X193223103Y-95952794D01*
X196001383Y-95581383D02*
X193418617Y-95581383D01*
X193418617Y-95581383D02*
X193367949Y-95632051D01*
X193367949Y-95632051D02*
X193338857Y-95691658D01*
X193223103Y-95952794D02*
X193170048Y-96085462D01*
X193170048Y-96085462D02*
X193120275Y-96219370D01*
X193120275Y-96219370D02*
X193073812Y-96354427D01*
X193073812Y-96354427D02*
X193033667Y-96481147D01*
X193033667Y-96481147D02*
X193033667Y-104229667D01*
X197776002Y-105441334D02*
X197776002Y-105500000D01*
X197084669Y-104750001D02*
X197776002Y-105441334D01*
X197026003Y-104750001D02*
X197084669Y-104750001D01*
X196001383Y-103725381D02*
X197026003Y-104750001D01*
X196001383Y-100778617D02*
X196001383Y-103725381D01*
X202675000Y-114475000D02*
X198480000Y-114475000D01*
X204000000Y-115800000D02*
X202675000Y-114475000D01*
X204000000Y-117000000D02*
X204000000Y-115800000D01*
X203300000Y-117700000D02*
X204000000Y-117000000D01*
X197900000Y-119000000D02*
X199200000Y-117700000D01*
X199200000Y-117700000D02*
X203300000Y-117700000D01*
X201198617Y-105391947D02*
X201306670Y-105500000D01*
X201198617Y-100760940D02*
X201198617Y-105391947D01*
X193144576Y-95089562D02*
X193070383Y-95224363D01*
X192999505Y-95360973D02*
X192997157Y-95365783D01*
X192932020Y-95499241D02*
X192867926Y-95639177D01*
X192480000Y-96817494D02*
X192480000Y-104750000D01*
X193222058Y-94956617D02*
X193144576Y-95089562D01*
X192997157Y-95365783D02*
X192932020Y-95499241D01*
X192867926Y-95639177D02*
X192807316Y-95780568D01*
X192807316Y-95780568D02*
X192750164Y-95923481D01*
X192482384Y-96806233D02*
X192480000Y-96817494D01*
X193070383Y-95224363D02*
X192999505Y-95360973D01*
X192750164Y-95923481D02*
X192696546Y-96067731D01*
X192480000Y-104750000D02*
X192480000Y-105500000D01*
X192696546Y-96067731D02*
X192646489Y-96213234D01*
X192517943Y-96656506D02*
X192482384Y-96806233D01*
X194000000Y-94000000D02*
X193592240Y-94407760D01*
X192557150Y-96507749D02*
X192517943Y-96656506D01*
X193563918Y-94444985D02*
X193473781Y-94569690D01*
X192600013Y-96359941D02*
X192557150Y-96507749D01*
X192646489Y-96213234D02*
X192600013Y-96359941D01*
X193302794Y-94825591D02*
X193222058Y-94956617D01*
X193386718Y-94696591D02*
X193302794Y-94825591D01*
X196675634Y-94000000D02*
X194000000Y-94000000D01*
X198600000Y-95924366D02*
X196675634Y-94000000D01*
X198600000Y-97480000D02*
X198600000Y-95924366D01*
X193592240Y-94407760D02*
X193563918Y-94444985D01*
X193473781Y-94569690D02*
X193386718Y-94696591D01*
D18*
G36*
X205840000Y-119698389D02*
G01*
X205813419Y-119696196D01*
X205364672Y-119747600D01*
X204934576Y-119885562D01*
X204600491Y-120064133D01*
X204425475Y-120395870D01*
X205840000Y-121810395D01*
X205840000Y-122189605D01*
X204425475Y-123604130D01*
X204600491Y-123935867D01*
X205002168Y-124142437D01*
X205436428Y-124266674D01*
X205840000Y-124299962D01*
X205840000Y-127140000D01*
X191360000Y-127140000D01*
X191360000Y-124301612D01*
X191386581Y-124303804D01*
X191835328Y-124252400D01*
X192265424Y-124114438D01*
X192599509Y-123935867D01*
X192774525Y-123604130D01*
X191360000Y-122189605D01*
X191360000Y-122000000D01*
X191529605Y-122000000D01*
X192954130Y-123424525D01*
X193285867Y-123249509D01*
X193328355Y-123166890D01*
X196318524Y-123166890D01*
X196339437Y-123260953D01*
X196454709Y-123529426D01*
X196620143Y-123770252D01*
X196829381Y-123974176D01*
X197074382Y-124133361D01*
X197345731Y-124241690D01*
X197633000Y-124295000D01*
X198483000Y-124295000D01*
X198483000Y-122937000D01*
X198737000Y-122937000D01*
X198737000Y-124295000D01*
X199587000Y-124295000D01*
X199874269Y-124241690D01*
X200145618Y-124133361D01*
X200390619Y-123974176D01*
X200599857Y-123770252D01*
X200765291Y-123529426D01*
X200880563Y-123260953D01*
X200901476Y-123166890D01*
X200780155Y-122937000D01*
X198737000Y-122937000D01*
X198483000Y-122937000D01*
X196439845Y-122937000D01*
X196318524Y-123166890D01*
X193328355Y-123166890D01*
X193492437Y-122847832D01*
X193605362Y-122453110D01*
X196318524Y-122453110D01*
X196439845Y-122683000D01*
X198483000Y-122683000D01*
X198483000Y-122663000D01*
X198737000Y-122663000D01*
X198737000Y-122683000D01*
X200780155Y-122683000D01*
X200901476Y-122453110D01*
X200880563Y-122359047D01*
X200765291Y-122090574D01*
X200728201Y-122036581D01*
X203546196Y-122036581D01*
X203597600Y-122485328D01*
X203735562Y-122915424D01*
X203914133Y-123249509D01*
X204245870Y-123424525D01*
X205670395Y-122000000D01*
X204245870Y-120575475D01*
X203914133Y-120750491D01*
X203707563Y-121152168D01*
X203583326Y-121586428D01*
X203546196Y-122036581D01*
X200728201Y-122036581D01*
X200599857Y-121849748D01*
X200390619Y-121645824D01*
X200145618Y-121486639D01*
X199874269Y-121378310D01*
X199587000Y-121325000D01*
X197633000Y-121325000D01*
X197345731Y-121378310D01*
X197074382Y-121486639D01*
X196829381Y-121645824D01*
X196620143Y-121849748D01*
X196454709Y-122090574D01*
X196339437Y-122359047D01*
X196318524Y-122453110D01*
X193605362Y-122453110D01*
X193616674Y-122413572D01*
X193653804Y-121963419D01*
X193602400Y-121514672D01*
X193464438Y-121084576D01*
X193285867Y-120750491D01*
X192954130Y-120575475D01*
X191529605Y-122000000D01*
X191360000Y-122000000D01*
X191360000Y-121810395D01*
X192774525Y-120395870D01*
X192599509Y-120064133D01*
X192197832Y-119857563D01*
X191763572Y-119733326D01*
X191360000Y-119700038D01*
X191360000Y-115923711D01*
X191440226Y-116003937D01*
X191609744Y-116117205D01*
X191798102Y-116195226D01*
X191998061Y-116235000D01*
X192201939Y-116235000D01*
X192401898Y-116195226D01*
X192590256Y-116117205D01*
X192759774Y-116003937D01*
X192803711Y-115960000D01*
X193374352Y-115960000D01*
X193312457Y-116109428D01*
X193261000Y-116368120D01*
X193261000Y-116631880D01*
X193312457Y-116890572D01*
X193413393Y-117134254D01*
X193559931Y-117353563D01*
X193746437Y-117540069D01*
X193965746Y-117686607D01*
X194118791Y-117750000D01*
X193965746Y-117813393D01*
X193746437Y-117959931D01*
X193559931Y-118146437D01*
X193413393Y-118365746D01*
X193312457Y-118609428D01*
X193261000Y-118868120D01*
X193261000Y-119131880D01*
X193312457Y-119390572D01*
X193413393Y-119634254D01*
X193559931Y-119853563D01*
X193746437Y-120040069D01*
X193965746Y-120186607D01*
X194209428Y-120287543D01*
X194468120Y-120339000D01*
X194731880Y-120339000D01*
X194990572Y-120287543D01*
X195234254Y-120186607D01*
X195453563Y-120040069D01*
X195640069Y-119853563D01*
X195786607Y-119634254D01*
X195887543Y-119390572D01*
X195939000Y-119131880D01*
X195939000Y-118868120D01*
X195887543Y-118609428D01*
X195786607Y-118365746D01*
X195640069Y-118146437D01*
X195453563Y-117959931D01*
X195234254Y-117813393D01*
X195081209Y-117750000D01*
X195234254Y-117686607D01*
X195453563Y-117540069D01*
X195600000Y-117393632D01*
X195746437Y-117540069D01*
X195965746Y-117686607D01*
X196209428Y-117787543D01*
X196468120Y-117839000D01*
X196731880Y-117839000D01*
X196990572Y-117787543D01*
X197234254Y-117686607D01*
X197453563Y-117540069D01*
X197600000Y-117393632D01*
X197746437Y-117540069D01*
X197927423Y-117661000D01*
X197768120Y-117661000D01*
X197509428Y-117712457D01*
X197265746Y-117813393D01*
X197046437Y-117959931D01*
X196859931Y-118146437D01*
X196713393Y-118365746D01*
X196612457Y-118609428D01*
X196561000Y-118868120D01*
X196561000Y-119131880D01*
X196612457Y-119390572D01*
X196713393Y-119634254D01*
X196859931Y-119853563D01*
X197046437Y-120040069D01*
X197265746Y-120186607D01*
X197509428Y-120287543D01*
X197768120Y-120339000D01*
X198031880Y-120339000D01*
X198290572Y-120287543D01*
X198534254Y-120186607D01*
X198686898Y-120084613D01*
X198744815Y-120155185D01*
X198841506Y-120234537D01*
X198951820Y-120293502D01*
X199071518Y-120329812D01*
X199196000Y-120342072D01*
X200604000Y-120342072D01*
X200728482Y-120329812D01*
X200848180Y-120293502D01*
X200958494Y-120234537D01*
X201055185Y-120155185D01*
X201134537Y-120058494D01*
X201193502Y-119948180D01*
X201229812Y-119828482D01*
X201242072Y-119704000D01*
X201242072Y-118460000D01*
X201374352Y-118460000D01*
X201312457Y-118609428D01*
X201261000Y-118868120D01*
X201261000Y-119131880D01*
X201312457Y-119390572D01*
X201413393Y-119634254D01*
X201559931Y-119853563D01*
X201746437Y-120040069D01*
X201965746Y-120186607D01*
X202209428Y-120287543D01*
X202468120Y-120339000D01*
X202731880Y-120339000D01*
X202990572Y-120287543D01*
X203234254Y-120186607D01*
X203453563Y-120040069D01*
X203640069Y-119853563D01*
X203786607Y-119634254D01*
X203887543Y-119390572D01*
X203939000Y-119131880D01*
X203939000Y-118868120D01*
X203887543Y-118609428D01*
X203786607Y-118365746D01*
X203751253Y-118312835D01*
X203840001Y-118240001D01*
X203863803Y-118210998D01*
X204511009Y-117563794D01*
X204540001Y-117540001D01*
X204563795Y-117511008D01*
X204563799Y-117511004D01*
X204634973Y-117424277D01*
X204634974Y-117424276D01*
X204705546Y-117292247D01*
X204749003Y-117148986D01*
X204760000Y-117037333D01*
X204760000Y-117037324D01*
X204763676Y-117000001D01*
X204760000Y-116962678D01*
X204760000Y-115837323D01*
X204763676Y-115800000D01*
X204760000Y-115762677D01*
X204760000Y-115762667D01*
X204749003Y-115651014D01*
X204705546Y-115507753D01*
X204679984Y-115459931D01*
X204634974Y-115375723D01*
X204563799Y-115288997D01*
X204540001Y-115259999D01*
X204511003Y-115236201D01*
X203238804Y-113964003D01*
X203215001Y-113934999D01*
X203099276Y-113840026D01*
X202967247Y-113769454D01*
X202823986Y-113725997D01*
X202712333Y-113715000D01*
X202712322Y-113715000D01*
X202675000Y-113711324D01*
X202637678Y-113715000D01*
X199183711Y-113715000D01*
X199139774Y-113671063D01*
X198970256Y-113557795D01*
X198781898Y-113479774D01*
X198581939Y-113440000D01*
X198378061Y-113440000D01*
X198178102Y-113479774D01*
X197989744Y-113557795D01*
X197820226Y-113671063D01*
X197676063Y-113815226D01*
X197562795Y-113984744D01*
X197484774Y-114173102D01*
X197445000Y-114373061D01*
X197445000Y-114440000D01*
X192803711Y-114440000D01*
X192759774Y-114396063D01*
X192590256Y-114282795D01*
X192401898Y-114204774D01*
X192201939Y-114165000D01*
X191998061Y-114165000D01*
X191798102Y-114204774D01*
X191609744Y-114282795D01*
X191440226Y-114396063D01*
X191360000Y-114476289D01*
X191360000Y-113306423D01*
X191408192Y-113332182D01*
X191678691Y-113414236D01*
X191889508Y-113435000D01*
X205270492Y-113435000D01*
X205481309Y-113414236D01*
X205751808Y-113332182D01*
X205840001Y-113285042D01*
X205840000Y-119698389D01*
X205840000Y-119698389D01*
G37*
X205840000Y-119698389D02*
X205813419Y-119696196D01*
X205364672Y-119747600D01*
X204934576Y-119885562D01*
X204600491Y-120064133D01*
X204425475Y-120395870D01*
X205840000Y-121810395D01*
X205840000Y-122189605D01*
X204425475Y-123604130D01*
X204600491Y-123935867D01*
X205002168Y-124142437D01*
X205436428Y-124266674D01*
X205840000Y-124299962D01*
X205840000Y-127140000D01*
X191360000Y-127140000D01*
X191360000Y-124301612D01*
X191386581Y-124303804D01*
X191835328Y-124252400D01*
X192265424Y-124114438D01*
X192599509Y-123935867D01*
X192774525Y-123604130D01*
X191360000Y-122189605D01*
X191360000Y-122000000D01*
X191529605Y-122000000D01*
X192954130Y-123424525D01*
X193285867Y-123249509D01*
X193328355Y-123166890D01*
X196318524Y-123166890D01*
X196339437Y-123260953D01*
X196454709Y-123529426D01*
X196620143Y-123770252D01*
X196829381Y-123974176D01*
X197074382Y-124133361D01*
X197345731Y-124241690D01*
X197633000Y-124295000D01*
X198483000Y-124295000D01*
X198483000Y-122937000D01*
X198737000Y-122937000D01*
X198737000Y-124295000D01*
X199587000Y-124295000D01*
X199874269Y-124241690D01*
X200145618Y-124133361D01*
X200390619Y-123974176D01*
X200599857Y-123770252D01*
X200765291Y-123529426D01*
X200880563Y-123260953D01*
X200901476Y-123166890D01*
X200780155Y-122937000D01*
X198737000Y-122937000D01*
X198483000Y-122937000D01*
X196439845Y-122937000D01*
X196318524Y-123166890D01*
X193328355Y-123166890D01*
X193492437Y-122847832D01*
X193605362Y-122453110D01*
X196318524Y-122453110D01*
X196439845Y-122683000D01*
X198483000Y-122683000D01*
X198483000Y-122663000D01*
X198737000Y-122663000D01*
X198737000Y-122683000D01*
X200780155Y-122683000D01*
X200901476Y-122453110D01*
X200880563Y-122359047D01*
X200765291Y-122090574D01*
X200728201Y-122036581D01*
X203546196Y-122036581D01*
X203597600Y-122485328D01*
X203735562Y-122915424D01*
X203914133Y-123249509D01*
X204245870Y-123424525D01*
X205670395Y-122000000D01*
X204245870Y-120575475D01*
X203914133Y-120750491D01*
X203707563Y-121152168D01*
X203583326Y-121586428D01*
X203546196Y-122036581D01*
X200728201Y-122036581D01*
X200599857Y-121849748D01*
X200390619Y-121645824D01*
X200145618Y-121486639D01*
X199874269Y-121378310D01*
X199587000Y-121325000D01*
X197633000Y-121325000D01*
X197345731Y-121378310D01*
X197074382Y-121486639D01*
X196829381Y-121645824D01*
X196620143Y-121849748D01*
X196454709Y-122090574D01*
X196339437Y-122359047D01*
X196318524Y-122453110D01*
X193605362Y-122453110D01*
X193616674Y-122413572D01*
X193653804Y-121963419D01*
X193602400Y-121514672D01*
X193464438Y-121084576D01*
X193285867Y-120750491D01*
X192954130Y-120575475D01*
X191529605Y-122000000D01*
X191360000Y-122000000D01*
X191360000Y-121810395D01*
X192774525Y-120395870D01*
X192599509Y-120064133D01*
X192197832Y-119857563D01*
X191763572Y-119733326D01*
X191360000Y-119700038D01*
X191360000Y-115923711D01*
X191440226Y-116003937D01*
X191609744Y-116117205D01*
X191798102Y-116195226D01*
X191998061Y-116235000D01*
X192201939Y-116235000D01*
X192401898Y-116195226D01*
X192590256Y-116117205D01*
X192759774Y-116003937D01*
X192803711Y-115960000D01*
X193374352Y-115960000D01*
X193312457Y-116109428D01*
X193261000Y-116368120D01*
X193261000Y-116631880D01*
X193312457Y-116890572D01*
X193413393Y-117134254D01*
X193559931Y-117353563D01*
X193746437Y-117540069D01*
X193965746Y-117686607D01*
X194118791Y-117750000D01*
X193965746Y-117813393D01*
X193746437Y-117959931D01*
X193559931Y-118146437D01*
X193413393Y-118365746D01*
X193312457Y-118609428D01*
X193261000Y-118868120D01*
X193261000Y-119131880D01*
X193312457Y-119390572D01*
X193413393Y-119634254D01*
X193559931Y-119853563D01*
X193746437Y-120040069D01*
X193965746Y-120186607D01*
X194209428Y-120287543D01*
X194468120Y-120339000D01*
X194731880Y-120339000D01*
X194990572Y-120287543D01*
X195234254Y-120186607D01*
X195453563Y-120040069D01*
X195640069Y-119853563D01*
X195786607Y-119634254D01*
X195887543Y-119390572D01*
X195939000Y-119131880D01*
X195939000Y-118868120D01*
X195887543Y-118609428D01*
X195786607Y-118365746D01*
X195640069Y-118146437D01*
X195453563Y-117959931D01*
X195234254Y-117813393D01*
X195081209Y-117750000D01*
X195234254Y-117686607D01*
X195453563Y-117540069D01*
X195600000Y-117393632D01*
X195746437Y-117540069D01*
X195965746Y-117686607D01*
X196209428Y-117787543D01*
X196468120Y-117839000D01*
X196731880Y-117839000D01*
X196990572Y-117787543D01*
X197234254Y-117686607D01*
X197453563Y-117540069D01*
X197600000Y-117393632D01*
X197746437Y-117540069D01*
X197927423Y-117661000D01*
X197768120Y-117661000D01*
X197509428Y-117712457D01*
X197265746Y-117813393D01*
X197046437Y-117959931D01*
X196859931Y-118146437D01*
X196713393Y-118365746D01*
X196612457Y-118609428D01*
X196561000Y-118868120D01*
X196561000Y-119131880D01*
X196612457Y-119390572D01*
X196713393Y-119634254D01*
X196859931Y-119853563D01*
X197046437Y-120040069D01*
X197265746Y-120186607D01*
X197509428Y-120287543D01*
X197768120Y-120339000D01*
X198031880Y-120339000D01*
X198290572Y-120287543D01*
X198534254Y-120186607D01*
X198686898Y-120084613D01*
X198744815Y-120155185D01*
X198841506Y-120234537D01*
X198951820Y-120293502D01*
X199071518Y-120329812D01*
X199196000Y-120342072D01*
X200604000Y-120342072D01*
X200728482Y-120329812D01*
X200848180Y-120293502D01*
X200958494Y-120234537D01*
X201055185Y-120155185D01*
X201134537Y-120058494D01*
X201193502Y-119948180D01*
X201229812Y-119828482D01*
X201242072Y-119704000D01*
X201242072Y-118460000D01*
X201374352Y-118460000D01*
X201312457Y-118609428D01*
X201261000Y-118868120D01*
X201261000Y-119131880D01*
X201312457Y-119390572D01*
X201413393Y-119634254D01*
X201559931Y-119853563D01*
X201746437Y-120040069D01*
X201965746Y-120186607D01*
X202209428Y-120287543D01*
X202468120Y-120339000D01*
X202731880Y-120339000D01*
X202990572Y-120287543D01*
X203234254Y-120186607D01*
X203453563Y-120040069D01*
X203640069Y-119853563D01*
X203786607Y-119634254D01*
X203887543Y-119390572D01*
X203939000Y-119131880D01*
X203939000Y-118868120D01*
X203887543Y-118609428D01*
X203786607Y-118365746D01*
X203751253Y-118312835D01*
X203840001Y-118240001D01*
X203863803Y-118210998D01*
X204511009Y-117563794D01*
X204540001Y-117540001D01*
X204563795Y-117511008D01*
X204563799Y-117511004D01*
X204634973Y-117424277D01*
X204634974Y-117424276D01*
X204705546Y-117292247D01*
X204749003Y-117148986D01*
X204760000Y-117037333D01*
X204760000Y-117037324D01*
X204763676Y-117000001D01*
X204760000Y-116962678D01*
X204760000Y-115837323D01*
X204763676Y-115800000D01*
X204760000Y-115762677D01*
X204760000Y-115762667D01*
X204749003Y-115651014D01*
X204705546Y-115507753D01*
X204679984Y-115459931D01*
X204634974Y-115375723D01*
X204563799Y-115288997D01*
X204540001Y-115259999D01*
X204511003Y-115236201D01*
X203238804Y-113964003D01*
X203215001Y-113934999D01*
X203099276Y-113840026D01*
X202967247Y-113769454D01*
X202823986Y-113725997D01*
X202712333Y-113715000D01*
X202712322Y-113715000D01*
X202675000Y-113711324D01*
X202637678Y-113715000D01*
X199183711Y-113715000D01*
X199139774Y-113671063D01*
X198970256Y-113557795D01*
X198781898Y-113479774D01*
X198581939Y-113440000D01*
X198378061Y-113440000D01*
X198178102Y-113479774D01*
X197989744Y-113557795D01*
X197820226Y-113671063D01*
X197676063Y-113815226D01*
X197562795Y-113984744D01*
X197484774Y-114173102D01*
X197445000Y-114373061D01*
X197445000Y-114440000D01*
X192803711Y-114440000D01*
X192759774Y-114396063D01*
X192590256Y-114282795D01*
X192401898Y-114204774D01*
X192201939Y-114165000D01*
X191998061Y-114165000D01*
X191798102Y-114204774D01*
X191609744Y-114282795D01*
X191440226Y-114396063D01*
X191360000Y-114476289D01*
X191360000Y-113306423D01*
X191408192Y-113332182D01*
X191678691Y-113414236D01*
X191889508Y-113435000D01*
X205270492Y-113435000D01*
X205481309Y-113414236D01*
X205751808Y-113332182D01*
X205840001Y-113285042D01*
X205840000Y-119698389D01*
G36*
X198793748Y-101840858D02*
G01*
X198779605Y-101855000D01*
X199806712Y-102882107D01*
X200081338Y-102774274D01*
X200232216Y-102467616D01*
X200292420Y-102242106D01*
X200376786Y-102298477D01*
X200438617Y-102324088D01*
X200438618Y-104528736D01*
X200424003Y-104540731D01*
X200337163Y-104469463D01*
X200226849Y-104410498D01*
X200107151Y-104374188D01*
X199982669Y-104361928D01*
X199827086Y-104365000D01*
X199668336Y-104523750D01*
X199668336Y-105373000D01*
X199688336Y-105373000D01*
X199688336Y-105627000D01*
X199668336Y-105627000D01*
X199668336Y-106476250D01*
X199827086Y-106635000D01*
X199982669Y-106638072D01*
X200107151Y-106625812D01*
X200226849Y-106589502D01*
X200337163Y-106530537D01*
X200424003Y-106459269D01*
X200510843Y-106530537D01*
X200621157Y-106589502D01*
X200740855Y-106625812D01*
X200865337Y-106638072D01*
X201748003Y-106638072D01*
X201872485Y-106625812D01*
X201992183Y-106589502D01*
X202102497Y-106530537D01*
X202189337Y-106459269D01*
X202276177Y-106530537D01*
X202386491Y-106589502D01*
X202506189Y-106625812D01*
X202630671Y-106638072D01*
X203513337Y-106638072D01*
X203637819Y-106625812D01*
X203757517Y-106589502D01*
X203867831Y-106530537D01*
X203886002Y-106515624D01*
X203904173Y-106530537D01*
X204014487Y-106589502D01*
X204134185Y-106625812D01*
X204258667Y-106638072D01*
X204560000Y-106638072D01*
X204560001Y-106940000D01*
X204367581Y-106940000D01*
X204334613Y-106943247D01*
X204321633Y-106943247D01*
X204312468Y-106944210D01*
X204118518Y-106965965D01*
X204060019Y-106978400D01*
X204001325Y-106990022D01*
X203992522Y-106992747D01*
X203806491Y-107051760D01*
X203751509Y-107075326D01*
X203696206Y-107098120D01*
X203688100Y-107102503D01*
X203653071Y-107121761D01*
X203569205Y-107065723D01*
X203408145Y-106999010D01*
X203237165Y-106965000D01*
X203062835Y-106965000D01*
X202891855Y-106999010D01*
X202775000Y-107047413D01*
X202658145Y-106999010D01*
X202487165Y-106965000D01*
X202312835Y-106965000D01*
X202141855Y-106999010D01*
X202025000Y-107047413D01*
X201908145Y-106999010D01*
X201737165Y-106965000D01*
X201562835Y-106965000D01*
X201391855Y-106999010D01*
X201230795Y-107065723D01*
X201146323Y-107122166D01*
X201090921Y-107092708D01*
X201035606Y-107069909D01*
X200980634Y-107046348D01*
X200971831Y-107043623D01*
X200784995Y-106987214D01*
X200726307Y-106975594D01*
X200667804Y-106963158D01*
X200658639Y-106962195D01*
X200464405Y-106943150D01*
X200464402Y-106943150D01*
X200432419Y-106940000D01*
X196567581Y-106940000D01*
X196534613Y-106943247D01*
X196521633Y-106943247D01*
X196512468Y-106944210D01*
X196318518Y-106965965D01*
X196260019Y-106978400D01*
X196201325Y-106990022D01*
X196192522Y-106992747D01*
X196006491Y-107051760D01*
X195951509Y-107075326D01*
X195896206Y-107098120D01*
X195888100Y-107102503D01*
X195853071Y-107121761D01*
X195769205Y-107065723D01*
X195608145Y-106999010D01*
X195437165Y-106965000D01*
X195262835Y-106965000D01*
X195091855Y-106999010D01*
X194975000Y-107047413D01*
X194858145Y-106999010D01*
X194687165Y-106965000D01*
X194512835Y-106965000D01*
X194341855Y-106999010D01*
X194225000Y-107047413D01*
X194108145Y-106999010D01*
X193937165Y-106965000D01*
X193762835Y-106965000D01*
X193591855Y-106999010D01*
X193430795Y-107065723D01*
X193346323Y-107122166D01*
X193290921Y-107092708D01*
X193235606Y-107069909D01*
X193180634Y-107046348D01*
X193171831Y-107043623D01*
X192984995Y-106987214D01*
X192926307Y-106975594D01*
X192867804Y-106963158D01*
X192858639Y-106962195D01*
X192664405Y-106943150D01*
X192664402Y-106943150D01*
X192640000Y-106940747D01*
X192640000Y-106638072D01*
X192921333Y-106638072D01*
X193045815Y-106625812D01*
X193165513Y-106589502D01*
X193275827Y-106530537D01*
X193362667Y-106459269D01*
X193449507Y-106530537D01*
X193559821Y-106589502D01*
X193679519Y-106625812D01*
X193804001Y-106638072D01*
X194686667Y-106638072D01*
X194811149Y-106625812D01*
X194930847Y-106589502D01*
X195041161Y-106530537D01*
X195128001Y-106459269D01*
X195214841Y-106530537D01*
X195325155Y-106589502D01*
X195444853Y-106625812D01*
X195569335Y-106638072D01*
X196452001Y-106638072D01*
X196576483Y-106625812D01*
X196696181Y-106589502D01*
X196806495Y-106530537D01*
X196893335Y-106459269D01*
X196980175Y-106530537D01*
X197090489Y-106589502D01*
X197210187Y-106625812D01*
X197334669Y-106638072D01*
X198217335Y-106638072D01*
X198341817Y-106625812D01*
X198461515Y-106589502D01*
X198571829Y-106530537D01*
X198658669Y-106459269D01*
X198745509Y-106530537D01*
X198855823Y-106589502D01*
X198975521Y-106625812D01*
X199100003Y-106638072D01*
X199255586Y-106635000D01*
X199414336Y-106476250D01*
X199414336Y-105627000D01*
X199394336Y-105627000D01*
X199394336Y-105373000D01*
X199414336Y-105373000D01*
X199414336Y-104523750D01*
X199255586Y-104365000D01*
X199100003Y-104361928D01*
X198975521Y-104374188D01*
X198855823Y-104410498D01*
X198745509Y-104469463D01*
X198658669Y-104540731D01*
X198571829Y-104469463D01*
X198461515Y-104410498D01*
X198341817Y-104374188D01*
X198217335Y-104361928D01*
X197771397Y-104361928D01*
X197648472Y-104239003D01*
X197624670Y-104210000D01*
X197508945Y-104115027D01*
X197416322Y-104065518D01*
X196761383Y-103410580D01*
X196761383Y-103061712D01*
X197572893Y-103061712D01*
X197680726Y-103336338D01*
X197987384Y-103487216D01*
X198317585Y-103575369D01*
X198658639Y-103597409D01*
X198997439Y-103552489D01*
X199320966Y-103442336D01*
X199519274Y-103336338D01*
X199627107Y-103061712D01*
X198600000Y-102034605D01*
X197572893Y-103061712D01*
X196761383Y-103061712D01*
X196761383Y-102341765D01*
X196823214Y-102316154D01*
X196905487Y-102261181D01*
X197012664Y-102575966D01*
X197118662Y-102774274D01*
X197393288Y-102882107D01*
X198420395Y-101855000D01*
X198406253Y-101840858D01*
X198585858Y-101661253D01*
X198600000Y-101675395D01*
X198614143Y-101661253D01*
X198793748Y-101840858D01*
X198793748Y-101840858D01*
G37*
X198793748Y-101840858D02*
X198779605Y-101855000D01*
X199806712Y-102882107D01*
X200081338Y-102774274D01*
X200232216Y-102467616D01*
X200292420Y-102242106D01*
X200376786Y-102298477D01*
X200438617Y-102324088D01*
X200438618Y-104528736D01*
X200424003Y-104540731D01*
X200337163Y-104469463D01*
X200226849Y-104410498D01*
X200107151Y-104374188D01*
X199982669Y-104361928D01*
X199827086Y-104365000D01*
X199668336Y-104523750D01*
X199668336Y-105373000D01*
X199688336Y-105373000D01*
X199688336Y-105627000D01*
X199668336Y-105627000D01*
X199668336Y-106476250D01*
X199827086Y-106635000D01*
X199982669Y-106638072D01*
X200107151Y-106625812D01*
X200226849Y-106589502D01*
X200337163Y-106530537D01*
X200424003Y-106459269D01*
X200510843Y-106530537D01*
X200621157Y-106589502D01*
X200740855Y-106625812D01*
X200865337Y-106638072D01*
X201748003Y-106638072D01*
X201872485Y-106625812D01*
X201992183Y-106589502D01*
X202102497Y-106530537D01*
X202189337Y-106459269D01*
X202276177Y-106530537D01*
X202386491Y-106589502D01*
X202506189Y-106625812D01*
X202630671Y-106638072D01*
X203513337Y-106638072D01*
X203637819Y-106625812D01*
X203757517Y-106589502D01*
X203867831Y-106530537D01*
X203886002Y-106515624D01*
X203904173Y-106530537D01*
X204014487Y-106589502D01*
X204134185Y-106625812D01*
X204258667Y-106638072D01*
X204560000Y-106638072D01*
X204560001Y-106940000D01*
X204367581Y-106940000D01*
X204334613Y-106943247D01*
X204321633Y-106943247D01*
X204312468Y-106944210D01*
X204118518Y-106965965D01*
X204060019Y-106978400D01*
X204001325Y-106990022D01*
X203992522Y-106992747D01*
X203806491Y-107051760D01*
X203751509Y-107075326D01*
X203696206Y-107098120D01*
X203688100Y-107102503D01*
X203653071Y-107121761D01*
X203569205Y-107065723D01*
X203408145Y-106999010D01*
X203237165Y-106965000D01*
X203062835Y-106965000D01*
X202891855Y-106999010D01*
X202775000Y-107047413D01*
X202658145Y-106999010D01*
X202487165Y-106965000D01*
X202312835Y-106965000D01*
X202141855Y-106999010D01*
X202025000Y-107047413D01*
X201908145Y-106999010D01*
X201737165Y-106965000D01*
X201562835Y-106965000D01*
X201391855Y-106999010D01*
X201230795Y-107065723D01*
X201146323Y-107122166D01*
X201090921Y-107092708D01*
X201035606Y-107069909D01*
X200980634Y-107046348D01*
X200971831Y-107043623D01*
X200784995Y-106987214D01*
X200726307Y-106975594D01*
X200667804Y-106963158D01*
X200658639Y-106962195D01*
X200464405Y-106943150D01*
X200464402Y-106943150D01*
X200432419Y-106940000D01*
X196567581Y-106940000D01*
X196534613Y-106943247D01*
X196521633Y-106943247D01*
X196512468Y-106944210D01*
X196318518Y-106965965D01*
X196260019Y-106978400D01*
X196201325Y-106990022D01*
X196192522Y-106992747D01*
X196006491Y-107051760D01*
X195951509Y-107075326D01*
X195896206Y-107098120D01*
X195888100Y-107102503D01*
X195853071Y-107121761D01*
X195769205Y-107065723D01*
X195608145Y-106999010D01*
X195437165Y-106965000D01*
X195262835Y-106965000D01*
X195091855Y-106999010D01*
X194975000Y-107047413D01*
X194858145Y-106999010D01*
X194687165Y-106965000D01*
X194512835Y-106965000D01*
X194341855Y-106999010D01*
X194225000Y-107047413D01*
X194108145Y-106999010D01*
X193937165Y-106965000D01*
X193762835Y-106965000D01*
X193591855Y-106999010D01*
X193430795Y-107065723D01*
X193346323Y-107122166D01*
X193290921Y-107092708D01*
X193235606Y-107069909D01*
X193180634Y-107046348D01*
X193171831Y-107043623D01*
X192984995Y-106987214D01*
X192926307Y-106975594D01*
X192867804Y-106963158D01*
X192858639Y-106962195D01*
X192664405Y-106943150D01*
X192664402Y-106943150D01*
X192640000Y-106940747D01*
X192640000Y-106638072D01*
X192921333Y-106638072D01*
X193045815Y-106625812D01*
X193165513Y-106589502D01*
X193275827Y-106530537D01*
X193362667Y-106459269D01*
X193449507Y-106530537D01*
X193559821Y-106589502D01*
X193679519Y-106625812D01*
X193804001Y-106638072D01*
X194686667Y-106638072D01*
X194811149Y-106625812D01*
X194930847Y-106589502D01*
X195041161Y-106530537D01*
X195128001Y-106459269D01*
X195214841Y-106530537D01*
X195325155Y-106589502D01*
X195444853Y-106625812D01*
X195569335Y-106638072D01*
X196452001Y-106638072D01*
X196576483Y-106625812D01*
X196696181Y-106589502D01*
X196806495Y-106530537D01*
X196893335Y-106459269D01*
X196980175Y-106530537D01*
X197090489Y-106589502D01*
X197210187Y-106625812D01*
X197334669Y-106638072D01*
X198217335Y-106638072D01*
X198341817Y-106625812D01*
X198461515Y-106589502D01*
X198571829Y-106530537D01*
X198658669Y-106459269D01*
X198745509Y-106530537D01*
X198855823Y-106589502D01*
X198975521Y-106625812D01*
X199100003Y-106638072D01*
X199255586Y-106635000D01*
X199414336Y-106476250D01*
X199414336Y-105627000D01*
X199394336Y-105627000D01*
X199394336Y-105373000D01*
X199414336Y-105373000D01*
X199414336Y-104523750D01*
X199255586Y-104365000D01*
X199100003Y-104361928D01*
X198975521Y-104374188D01*
X198855823Y-104410498D01*
X198745509Y-104469463D01*
X198658669Y-104540731D01*
X198571829Y-104469463D01*
X198461515Y-104410498D01*
X198341817Y-104374188D01*
X198217335Y-104361928D01*
X197771397Y-104361928D01*
X197648472Y-104239003D01*
X197624670Y-104210000D01*
X197508945Y-104115027D01*
X197416322Y-104065518D01*
X196761383Y-103410580D01*
X196761383Y-103061712D01*
X197572893Y-103061712D01*
X197680726Y-103336338D01*
X197987384Y-103487216D01*
X198317585Y-103575369D01*
X198658639Y-103597409D01*
X198997439Y-103552489D01*
X199320966Y-103442336D01*
X199519274Y-103336338D01*
X199627107Y-103061712D01*
X198600000Y-102034605D01*
X197572893Y-103061712D01*
X196761383Y-103061712D01*
X196761383Y-102341765D01*
X196823214Y-102316154D01*
X196905487Y-102261181D01*
X197012664Y-102575966D01*
X197118662Y-102774274D01*
X197393288Y-102882107D01*
X198420395Y-101855000D01*
X198406253Y-101840858D01*
X198585858Y-101661253D01*
X198600000Y-101675395D01*
X198614143Y-101661253D01*
X198793748Y-101840858D01*
G36*
X202312005Y-104450312D02*
G01*
X202276177Y-104469463D01*
X202189337Y-104540731D01*
X202102497Y-104469463D01*
X201992183Y-104410498D01*
X201958617Y-104400316D01*
X201958617Y-102324088D01*
X202020448Y-102298477D01*
X202304615Y-102108603D01*
X202312004Y-102101214D01*
X202312005Y-104450312D01*
X202312005Y-104450312D01*
G37*
X202312005Y-104450312D02*
X202276177Y-104469463D01*
X202189337Y-104540731D01*
X202102497Y-104469463D01*
X201992183Y-104410498D01*
X201958617Y-104400316D01*
X201958617Y-102324088D01*
X202020448Y-102298477D01*
X202304615Y-102108603D01*
X202312004Y-102101214D01*
X202312005Y-104450312D01*
G36*
X203940001Y-104450312D02*
G01*
X203904173Y-104469463D01*
X203886002Y-104484376D01*
X203867831Y-104469463D01*
X203832004Y-104450313D01*
X203832004Y-100105022D01*
X203849002Y-100048985D01*
X203854096Y-99997263D01*
X203863676Y-99900001D01*
X203863676Y-99899999D01*
X203849002Y-99751013D01*
X203805546Y-99607753D01*
X203734973Y-99475723D01*
X203663799Y-99388997D01*
X203663789Y-99388987D01*
X203640000Y-99360000D01*
X203611013Y-99336211D01*
X203591731Y-99316930D01*
X203622663Y-99285998D01*
X203812537Y-99001831D01*
X203940000Y-98694108D01*
X203940001Y-104450312D01*
X203940001Y-104450312D01*
G37*
X203940001Y-104450312D02*
X203904173Y-104469463D01*
X203886002Y-104484376D01*
X203867831Y-104469463D01*
X203832004Y-104450313D01*
X203832004Y-100105022D01*
X203849002Y-100048985D01*
X203854096Y-99997263D01*
X203863676Y-99900001D01*
X203863676Y-99899999D01*
X203849002Y-99751013D01*
X203805546Y-99607753D01*
X203734973Y-99475723D01*
X203663799Y-99388997D01*
X203663789Y-99388987D01*
X203640000Y-99360000D01*
X203611013Y-99336211D01*
X203591731Y-99316930D01*
X203622663Y-99285998D01*
X203812537Y-99001831D01*
X203940000Y-98694108D01*
X203940001Y-104450312D01*
G36*
X194653720Y-101884615D02*
G01*
X194895385Y-102126280D01*
X195179552Y-102316154D01*
X195241384Y-102341765D01*
X195241384Y-103597249D01*
X194585001Y-102940866D01*
X194585001Y-101781770D01*
X194653720Y-101884615D01*
X194653720Y-101884615D01*
G37*
X194653720Y-101884615D02*
X194895385Y-102126280D01*
X195179552Y-102316154D01*
X195241384Y-102341765D01*
X195241384Y-103597249D01*
X194585001Y-102940866D01*
X194585001Y-101781770D01*
X194653720Y-101884615D01*
G36*
X199532028Y-92295392D02*
G01*
X200441113Y-92513645D01*
X201304852Y-92871417D01*
X202102001Y-93359910D01*
X202812913Y-93967087D01*
X203420090Y-94677999D01*
X203908583Y-95475148D01*
X204232886Y-96258084D01*
X203063804Y-95089003D01*
X203040001Y-95059999D01*
X202924276Y-94965026D01*
X202792247Y-94894454D01*
X202792001Y-94894380D01*
X202736154Y-94759552D01*
X202546280Y-94475385D01*
X202304615Y-94233720D01*
X202020448Y-94043846D01*
X201704698Y-93913058D01*
X201369500Y-93846383D01*
X201027734Y-93846383D01*
X200692536Y-93913058D01*
X200376786Y-94043846D01*
X200092619Y-94233720D01*
X199850954Y-94475385D01*
X199661080Y-94759552D01*
X199530292Y-95075302D01*
X199463617Y-95410500D01*
X199463617Y-95752266D01*
X199513654Y-96003817D01*
X199421831Y-95942463D01*
X199363061Y-95918120D01*
X199360000Y-95887042D01*
X199360000Y-95887033D01*
X199349003Y-95775380D01*
X199305546Y-95632119D01*
X199234974Y-95500090D01*
X199218229Y-95479686D01*
X199163799Y-95413362D01*
X199163795Y-95413358D01*
X199140001Y-95384365D01*
X199111008Y-95360571D01*
X197239438Y-93489002D01*
X197215635Y-93459999D01*
X197099910Y-93365026D01*
X196967881Y-93294454D01*
X196824620Y-93250997D01*
X196712967Y-93240000D01*
X196712956Y-93240000D01*
X196675634Y-93236324D01*
X196638312Y-93240000D01*
X195293675Y-93240000D01*
X195895148Y-92871417D01*
X196758887Y-92513645D01*
X197667972Y-92295392D01*
X198600000Y-92222040D01*
X199532028Y-92295392D01*
X199532028Y-92295392D01*
G37*
X199532028Y-92295392D02*
X200441113Y-92513645D01*
X201304852Y-92871417D01*
X202102001Y-93359910D01*
X202812913Y-93967087D01*
X203420090Y-94677999D01*
X203908583Y-95475148D01*
X204232886Y-96258084D01*
X203063804Y-95089003D01*
X203040001Y-95059999D01*
X202924276Y-94965026D01*
X202792247Y-94894454D01*
X202792001Y-94894380D01*
X202736154Y-94759552D01*
X202546280Y-94475385D01*
X202304615Y-94233720D01*
X202020448Y-94043846D01*
X201704698Y-93913058D01*
X201369500Y-93846383D01*
X201027734Y-93846383D01*
X200692536Y-93913058D01*
X200376786Y-94043846D01*
X200092619Y-94233720D01*
X199850954Y-94475385D01*
X199661080Y-94759552D01*
X199530292Y-95075302D01*
X199463617Y-95410500D01*
X199463617Y-95752266D01*
X199513654Y-96003817D01*
X199421831Y-95942463D01*
X199363061Y-95918120D01*
X199360000Y-95887042D01*
X199360000Y-95887033D01*
X199349003Y-95775380D01*
X199305546Y-95632119D01*
X199234974Y-95500090D01*
X199218229Y-95479686D01*
X199163799Y-95413362D01*
X199163795Y-95413358D01*
X199140001Y-95384365D01*
X199111008Y-95360571D01*
X197239438Y-93489002D01*
X197215635Y-93459999D01*
X197099910Y-93365026D01*
X196967881Y-93294454D01*
X196824620Y-93250997D01*
X196712967Y-93240000D01*
X196712956Y-93240000D01*
X196675634Y-93236324D01*
X196638312Y-93240000D01*
X195293675Y-93240000D01*
X195895148Y-92871417D01*
X196758887Y-92513645D01*
X197667972Y-92295392D01*
X198600000Y-92222040D01*
X199532028Y-92295392D01*
M02*
