M48
; DRILL file {KiCad (5.1.0)-1} date 6/26/2019 3:16:15 PM
; FORMAT={-:-/ absolute / inch / decimal}
; #@! TF.CreationDate,2019-06-26T15:16:15-04:00
; #@! TF.GenerationSoftware,Kicad,Pcbnew,(5.1.0)-1
FMAT,2
INCH
T1C0.0157
T2C0.0276
T3C0.0354
T4C0.0669
T5C0.0906
T6C0.0197
%
G90
G05
T1
X7.563Y-4.5354
X7.6772Y-4.0551
X7.748Y-4.4953
X7.8142Y-4.5069
X7.815Y-3.6693
X7.874Y-4.0866
X7.8858Y-3.6693
X7.9567Y-4.0827
X8.0276Y-4.0709
T2
X7.8193Y-4.835
T3
X7.6614Y-4.5866
X7.6614Y-4.685
X7.7402Y-4.5866
X7.7913Y-4.685
X7.8189Y-4.5866
X7.8701Y-4.685
X7.8976Y-4.5866
X7.9764Y-4.5866
X7.9764Y-4.685
T4
X7.6742Y-3.8654
X7.7166Y-3.763
X7.7166Y-3.9677
X7.8189Y-3.8378
X7.8189Y-4.01
X7.9212Y-3.763
X7.9212Y-3.967
X7.9636Y-3.8654
T5
X7.5335Y-4.8031
X8.1043Y-4.8031
T6
X7.939Y-4.2461
X7.939Y-4.3051
X7.9685Y-4.2461
X7.9685Y-4.3051
X7.998Y-4.2461
X7.998Y-4.3051
X7.6319Y-4.2461
X7.6319Y-4.3051
X7.6614Y-4.2461
X7.6614Y-4.3051
X7.6909Y-4.2461
X7.6909Y-4.3051
T0
M30
