G04 #@! TF.GenerationSoftware,KiCad,Pcbnew,(5.1.0)-1*
G04 #@! TF.CreationDate,2019-06-26T15:16:10-04:00*
G04 #@! TF.ProjectId,8 Pin DIN to 9 Pin Mini DIN,38205069-6e20-4444-994e-20746f203920,rev?*
G04 #@! TF.SameCoordinates,Original*
G04 #@! TF.FileFunction,Legend,Top*
G04 #@! TF.FilePolarity,Positive*
%FSLAX46Y46*%
G04 Gerber Fmt 4.6, Leading zero omitted, Abs format (unit mm)*
G04 Created by KiCad (PCBNEW (5.1.0)-1) date 2019-06-26 15:16:10*
%MOMM*%
%LPD*%
G04 APERTURE LIST*
%ADD10C,0.127000*%
%ADD11C,0.100000*%
%ADD12C,0.120000*%
%ADD13C,0.050000*%
%ADD14C,0.150000*%
G04 APERTURE END LIST*
D10*
X206000000Y-127510000D02*
X191200000Y-127510000D01*
X191200000Y-114300000D02*
X206000000Y-114300000D01*
X206000000Y-127500000D02*
X206000000Y-123800000D01*
X206000000Y-114300000D02*
X206000000Y-120200000D01*
X191200000Y-127500000D02*
X191200000Y-123800000D01*
X191200000Y-114300000D02*
X191200000Y-120200000D01*
D11*
X200400000Y-109600000D02*
G75*
G03X200400000Y-107600000I0J1000000D01*
G01*
X204400000Y-107600000D02*
G75*
G03X204400000Y-109600000I0J-1000000D01*
G01*
X196600000Y-107600000D02*
G75*
G03X196600000Y-109600000I0J-1000000D01*
G01*
X192600000Y-109600000D02*
G75*
G03X192600000Y-107600000I0J1000000D01*
G01*
D12*
X202275000Y-98180000D02*
G75*
G03X202275000Y-98180000I-3675000J0D01*
G01*
D13*
X204066440Y-125752008D02*
X204066440Y-126466780D01*
X204018788Y-126609734D01*
X203923485Y-126705037D01*
X203780531Y-126752688D01*
X203685228Y-126752688D01*
X204495302Y-125847311D02*
X204542954Y-125799660D01*
X204638257Y-125752008D01*
X204876514Y-125752008D01*
X204971817Y-125799660D01*
X205019468Y-125847311D01*
X205067120Y-125942614D01*
X205067120Y-126037917D01*
X205019468Y-126180871D01*
X204447651Y-126752688D01*
X205067120Y-126752688D01*
X195140921Y-125553258D02*
X195140921Y-124551318D01*
X195474901Y-125266990D01*
X195808881Y-124551318D01*
X195808881Y-125553258D01*
X196285995Y-125553258D02*
X196285995Y-124551318D01*
X196524552Y-124551318D01*
X196667687Y-124599030D01*
X196763110Y-124694452D01*
X196810821Y-124789875D01*
X196858532Y-124980721D01*
X196858532Y-125123855D01*
X196810821Y-125314701D01*
X196763110Y-125410124D01*
X196667687Y-125505547D01*
X196524552Y-125553258D01*
X196285995Y-125553258D01*
X197287935Y-125171567D02*
X198051318Y-125171567D01*
X198576144Y-125553258D02*
X198766990Y-125553258D01*
X198862412Y-125505547D01*
X198910124Y-125457835D01*
X199005547Y-125314701D01*
X199053258Y-125123855D01*
X199053258Y-124742164D01*
X199005547Y-124646741D01*
X198957835Y-124599030D01*
X198862412Y-124551318D01*
X198671567Y-124551318D01*
X198576144Y-124599030D01*
X198528432Y-124646741D01*
X198480721Y-124742164D01*
X198480721Y-124980721D01*
X198528432Y-125076144D01*
X198576144Y-125123855D01*
X198671567Y-125171567D01*
X198862412Y-125171567D01*
X198957835Y-125123855D01*
X199005547Y-125076144D01*
X199053258Y-124980721D01*
X199673507Y-124551318D02*
X199768930Y-124551318D01*
X199864352Y-124599030D01*
X199912064Y-124646741D01*
X199959775Y-124742164D01*
X200007487Y-124933010D01*
X200007487Y-125171567D01*
X199959775Y-125362412D01*
X199912064Y-125457835D01*
X199864352Y-125505547D01*
X199768930Y-125553258D01*
X199673507Y-125553258D01*
X199578084Y-125505547D01*
X199530372Y-125457835D01*
X199482661Y-125362412D01*
X199434950Y-125171567D01*
X199434950Y-124933010D01*
X199482661Y-124742164D01*
X199530372Y-124646741D01*
X199578084Y-124599030D01*
X199673507Y-124551318D01*
X200389178Y-125505547D02*
X200532312Y-125553258D01*
X200770870Y-125553258D01*
X200866292Y-125505547D01*
X200914004Y-125457835D01*
X200961715Y-125362412D01*
X200961715Y-125266990D01*
X200914004Y-125171567D01*
X200866292Y-125123855D01*
X200770870Y-125076144D01*
X200580024Y-125028432D01*
X200484601Y-124980721D01*
X200436890Y-124933010D01*
X200389178Y-124837587D01*
X200389178Y-124742164D01*
X200436890Y-124646741D01*
X200484601Y-124599030D01*
X200580024Y-124551318D01*
X200818581Y-124551318D01*
X200961715Y-124599030D01*
X201391118Y-125553258D02*
X201391118Y-124551318D01*
X201725098Y-125266990D01*
X202059078Y-124551318D01*
X202059078Y-125553258D01*
D14*
X198266666Y-105132380D02*
X198266666Y-105846666D01*
X198219047Y-105989523D01*
X198123809Y-106084761D01*
X197980952Y-106132380D01*
X197885714Y-106132380D01*
X199266666Y-106132380D02*
X198695238Y-106132380D01*
X198980952Y-106132380D02*
X198980952Y-105132380D01*
X198885714Y-105275238D01*
X198790476Y-105370476D01*
X198695238Y-105418095D01*
M02*
