G04 #@! TF.GenerationSoftware,KiCad,Pcbnew,(5.1.0)-1*
G04 #@! TF.CreationDate,2019-06-26T15:16:10-04:00*
G04 #@! TF.ProjectId,8 Pin DIN to 9 Pin Mini DIN,38205069-6e20-4444-994e-20746f203920,rev?*
G04 #@! TF.SameCoordinates,Original*
G04 #@! TF.FileFunction,Legend,Bot*
G04 #@! TF.FilePolarity,Positive*
%FSLAX46Y46*%
G04 Gerber Fmt 4.6, Leading zero omitted, Abs format (unit mm)*
G04 Created by KiCad (PCBNEW (5.1.0)-1) date 2019-06-26 15:16:10*
%MOMM*%
%LPD*%
G04 APERTURE LIST*
%ADD10C,0.150000*%
G04 APERTURE END LIST*
D10*
X202750000Y-124016666D02*
X202350000Y-124016666D01*
X202550000Y-124716666D02*
X202550000Y-124016666D01*
X202116666Y-124716666D02*
X202116666Y-124250000D01*
X202116666Y-124016666D02*
X202150000Y-124050000D01*
X202116666Y-124083333D01*
X202083333Y-124050000D01*
X202116666Y-124016666D01*
X202116666Y-124083333D01*
X201783333Y-124250000D02*
X201783333Y-124716666D01*
X201783333Y-124316666D02*
X201750000Y-124283333D01*
X201683333Y-124250000D01*
X201583333Y-124250000D01*
X201516666Y-124283333D01*
X201483333Y-124350000D01*
X201483333Y-124716666D01*
X201150000Y-124716666D02*
X201150000Y-124016666D01*
X201083333Y-124450000D02*
X200883333Y-124716666D01*
X200883333Y-124250000D02*
X201150000Y-124516666D01*
X200316666Y-124683333D02*
X200383333Y-124716666D01*
X200516666Y-124716666D01*
X200583333Y-124683333D01*
X200616666Y-124616666D01*
X200616666Y-124350000D01*
X200583333Y-124283333D01*
X200516666Y-124250000D01*
X200383333Y-124250000D01*
X200316666Y-124283333D01*
X200283333Y-124350000D01*
X200283333Y-124416666D01*
X200616666Y-124483333D01*
X199983333Y-124716666D02*
X199983333Y-124250000D01*
X199983333Y-124383333D02*
X199950000Y-124316666D01*
X199916666Y-124283333D01*
X199850000Y-124250000D01*
X199783333Y-124250000D01*
X199550000Y-124250000D02*
X199550000Y-124950000D01*
X199550000Y-124283333D02*
X199483333Y-124250000D01*
X199350000Y-124250000D01*
X199283333Y-124283333D01*
X199250000Y-124316666D01*
X199216666Y-124383333D01*
X199216666Y-124583333D01*
X199250000Y-124650000D01*
X199283333Y-124683333D01*
X199350000Y-124716666D01*
X199483333Y-124716666D01*
X199550000Y-124683333D01*
X198816666Y-124716666D02*
X198883333Y-124683333D01*
X198916666Y-124616666D01*
X198916666Y-124016666D01*
X198250000Y-124250000D02*
X198250000Y-124716666D01*
X198550000Y-124250000D02*
X198550000Y-124616666D01*
X198516666Y-124683333D01*
X198450000Y-124716666D01*
X198350000Y-124716666D01*
X198283333Y-124683333D01*
X198250000Y-124650000D01*
X197916666Y-124250000D02*
X197916666Y-124716666D01*
X197916666Y-124316666D02*
X197883333Y-124283333D01*
X197816666Y-124250000D01*
X197716666Y-124250000D01*
X197650000Y-124283333D01*
X197616666Y-124350000D01*
X197616666Y-124716666D01*
X197283333Y-124716666D02*
X197283333Y-124016666D01*
X197216666Y-124450000D02*
X197016666Y-124716666D01*
X197016666Y-124250000D02*
X197283333Y-124516666D01*
X196716666Y-124650000D02*
X196683333Y-124683333D01*
X196716666Y-124716666D01*
X196750000Y-124683333D01*
X196716666Y-124650000D01*
X196716666Y-124716666D01*
X196083333Y-124683333D02*
X196150000Y-124716666D01*
X196283333Y-124716666D01*
X196350000Y-124683333D01*
X196383333Y-124650000D01*
X196416666Y-124583333D01*
X196416666Y-124383333D01*
X196383333Y-124316666D01*
X196350000Y-124283333D01*
X196283333Y-124250000D01*
X196150000Y-124250000D01*
X196083333Y-124283333D01*
X195683333Y-124716666D02*
X195750000Y-124683333D01*
X195783333Y-124650000D01*
X195816666Y-124583333D01*
X195816666Y-124383333D01*
X195783333Y-124316666D01*
X195750000Y-124283333D01*
X195683333Y-124250000D01*
X195583333Y-124250000D01*
X195516666Y-124283333D01*
X195483333Y-124316666D01*
X195450000Y-124383333D01*
X195450000Y-124583333D01*
X195483333Y-124650000D01*
X195516666Y-124683333D01*
X195583333Y-124716666D01*
X195683333Y-124716666D01*
X195150000Y-124716666D02*
X195150000Y-124250000D01*
X195150000Y-124316666D02*
X195116666Y-124283333D01*
X195050000Y-124250000D01*
X194950000Y-124250000D01*
X194883333Y-124283333D01*
X194850000Y-124350000D01*
X194850000Y-124716666D01*
X194850000Y-124350000D02*
X194816666Y-124283333D01*
X194750000Y-124250000D01*
X194650000Y-124250000D01*
X194583333Y-124283333D01*
X194550000Y-124350000D01*
X194550000Y-124716666D01*
X203916666Y-125916666D02*
X203916666Y-125216666D01*
X203650000Y-125216666D01*
X203583333Y-125250000D01*
X203550000Y-125283333D01*
X203516666Y-125350000D01*
X203516666Y-125450000D01*
X203550000Y-125516666D01*
X203583333Y-125550000D01*
X203650000Y-125583333D01*
X203916666Y-125583333D01*
X202816666Y-125850000D02*
X202850000Y-125883333D01*
X202950000Y-125916666D01*
X203016666Y-125916666D01*
X203116666Y-125883333D01*
X203183333Y-125816666D01*
X203216666Y-125750000D01*
X203250000Y-125616666D01*
X203250000Y-125516666D01*
X203216666Y-125383333D01*
X203183333Y-125316666D01*
X203116666Y-125250000D01*
X203016666Y-125216666D01*
X202950000Y-125216666D01*
X202850000Y-125250000D01*
X202816666Y-125283333D01*
X201983333Y-125550000D02*
X201750000Y-125550000D01*
X201650000Y-125916666D02*
X201983333Y-125916666D01*
X201983333Y-125216666D01*
X201650000Y-125216666D01*
X201350000Y-125450000D02*
X201350000Y-125916666D01*
X201350000Y-125516666D02*
X201316666Y-125483333D01*
X201250000Y-125450000D01*
X201150000Y-125450000D01*
X201083333Y-125483333D01*
X201050000Y-125550000D01*
X201050000Y-125916666D01*
X200416666Y-125450000D02*
X200416666Y-126016666D01*
X200450000Y-126083333D01*
X200483333Y-126116666D01*
X200550000Y-126150000D01*
X200650000Y-126150000D01*
X200716666Y-126116666D01*
X200416666Y-125883333D02*
X200483333Y-125916666D01*
X200616666Y-125916666D01*
X200683333Y-125883333D01*
X200716666Y-125850000D01*
X200750000Y-125783333D01*
X200750000Y-125583333D01*
X200716666Y-125516666D01*
X200683333Y-125483333D01*
X200616666Y-125450000D01*
X200483333Y-125450000D01*
X200416666Y-125483333D01*
X200083333Y-125916666D02*
X200083333Y-125450000D01*
X200083333Y-125216666D02*
X200116666Y-125250000D01*
X200083333Y-125283333D01*
X200050000Y-125250000D01*
X200083333Y-125216666D01*
X200083333Y-125283333D01*
X199750000Y-125450000D02*
X199750000Y-125916666D01*
X199750000Y-125516666D02*
X199716666Y-125483333D01*
X199650000Y-125450000D01*
X199550000Y-125450000D01*
X199483333Y-125483333D01*
X199450000Y-125550000D01*
X199450000Y-125916666D01*
X198850000Y-125883333D02*
X198916666Y-125916666D01*
X199050000Y-125916666D01*
X199116666Y-125883333D01*
X199150000Y-125816666D01*
X199150000Y-125550000D01*
X199116666Y-125483333D01*
X199050000Y-125450000D01*
X198916666Y-125450000D01*
X198850000Y-125483333D01*
X198816666Y-125550000D01*
X198816666Y-125616666D01*
X199150000Y-125683333D01*
X198016666Y-125183333D02*
X198616666Y-126083333D01*
X197883333Y-125216666D02*
X197483333Y-125216666D01*
X197683333Y-125916666D02*
X197683333Y-125216666D01*
X196950000Y-125450000D02*
X196950000Y-125916666D01*
X197250000Y-125450000D02*
X197250000Y-125816666D01*
X197216666Y-125883333D01*
X197150000Y-125916666D01*
X197050000Y-125916666D01*
X196983333Y-125883333D01*
X196950000Y-125850000D01*
X196616666Y-125916666D02*
X196616666Y-125450000D01*
X196616666Y-125583333D02*
X196583333Y-125516666D01*
X196550000Y-125483333D01*
X196483333Y-125450000D01*
X196416666Y-125450000D01*
X196183333Y-125916666D02*
X196183333Y-125216666D01*
X196183333Y-125483333D02*
X196116666Y-125450000D01*
X195983333Y-125450000D01*
X195916666Y-125483333D01*
X195883333Y-125516666D01*
X195850000Y-125583333D01*
X195850000Y-125783333D01*
X195883333Y-125850000D01*
X195916666Y-125883333D01*
X195983333Y-125916666D01*
X196116666Y-125916666D01*
X196183333Y-125883333D01*
X195450000Y-125916666D02*
X195516666Y-125883333D01*
X195550000Y-125850000D01*
X195583333Y-125783333D01*
X195583333Y-125583333D01*
X195550000Y-125516666D01*
X195516666Y-125483333D01*
X195450000Y-125450000D01*
X195350000Y-125450000D01*
X195283333Y-125483333D01*
X195250000Y-125516666D01*
X195216666Y-125583333D01*
X195216666Y-125783333D01*
X195250000Y-125850000D01*
X195283333Y-125883333D01*
X195350000Y-125916666D01*
X195450000Y-125916666D01*
X194916666Y-125916666D02*
X194916666Y-125216666D01*
X194750000Y-125216666D01*
X194650000Y-125250000D01*
X194583333Y-125316666D01*
X194550000Y-125383333D01*
X194516666Y-125516666D01*
X194516666Y-125616666D01*
X194550000Y-125750000D01*
X194583333Y-125816666D01*
X194650000Y-125883333D01*
X194750000Y-125916666D01*
X194916666Y-125916666D01*
X193916666Y-125450000D02*
X193916666Y-125916666D01*
X194216666Y-125450000D02*
X194216666Y-125816666D01*
X194183333Y-125883333D01*
X194116666Y-125916666D01*
X194016666Y-125916666D01*
X193950000Y-125883333D01*
X193916666Y-125850000D01*
X193483333Y-125916666D02*
X193550000Y-125883333D01*
X193583333Y-125850000D01*
X193616666Y-125783333D01*
X193616666Y-125583333D01*
X193583333Y-125516666D01*
X193550000Y-125483333D01*
X193483333Y-125450000D01*
X193383333Y-125450000D01*
X193316666Y-125483333D01*
X193283333Y-125516666D01*
X193250000Y-125583333D01*
X193250000Y-125783333D01*
X193283333Y-125850000D01*
X193316666Y-125883333D01*
X193383333Y-125916666D01*
X193483333Y-125916666D01*
X205166666Y-126650000D02*
X204900000Y-126650000D01*
X205066666Y-126416666D02*
X205066666Y-127016666D01*
X205033333Y-127083333D01*
X204966666Y-127116666D01*
X204900000Y-127116666D01*
X204566666Y-127116666D02*
X204633333Y-127083333D01*
X204666666Y-127050000D01*
X204700000Y-126983333D01*
X204700000Y-126783333D01*
X204666666Y-126716666D01*
X204633333Y-126683333D01*
X204566666Y-126650000D01*
X204466666Y-126650000D01*
X204400000Y-126683333D01*
X204366666Y-126716666D01*
X204333333Y-126783333D01*
X204333333Y-126983333D01*
X204366666Y-127050000D01*
X204400000Y-127083333D01*
X204466666Y-127116666D01*
X204566666Y-127116666D01*
X203500000Y-127116666D02*
X203500000Y-126416666D01*
X203500000Y-126750000D02*
X203100000Y-126750000D01*
X203100000Y-127116666D02*
X203100000Y-126416666D01*
X202766666Y-127116666D02*
X202766666Y-126416666D01*
X202600000Y-126416666D01*
X202500000Y-126450000D01*
X202433333Y-126516666D01*
X202400000Y-126583333D01*
X202366666Y-126716666D01*
X202366666Y-126816666D01*
X202400000Y-126950000D01*
X202433333Y-127016666D01*
X202500000Y-127083333D01*
X202600000Y-127116666D01*
X202766666Y-127116666D01*
X201666666Y-127116666D02*
X201900000Y-126783333D01*
X202066666Y-127116666D02*
X202066666Y-126416666D01*
X201800000Y-126416666D01*
X201733333Y-126450000D01*
X201700000Y-126483333D01*
X201666666Y-126550000D01*
X201666666Y-126650000D01*
X201700000Y-126716666D01*
X201733333Y-126750000D01*
X201800000Y-126783333D01*
X202066666Y-126783333D01*
X201100000Y-127083333D02*
X201166666Y-127116666D01*
X201300000Y-127116666D01*
X201366666Y-127083333D01*
X201400000Y-127016666D01*
X201400000Y-126750000D01*
X201366666Y-126683333D01*
X201300000Y-126650000D01*
X201166666Y-126650000D01*
X201100000Y-126683333D01*
X201066666Y-126750000D01*
X201066666Y-126816666D01*
X201400000Y-126883333D01*
X200866666Y-126650000D02*
X200600000Y-126650000D01*
X200766666Y-126416666D02*
X200766666Y-127016666D01*
X200733333Y-127083333D01*
X200666666Y-127116666D01*
X200600000Y-127116666D01*
X200366666Y-127116666D02*
X200366666Y-126650000D01*
X200366666Y-126783333D02*
X200333333Y-126716666D01*
X200300000Y-126683333D01*
X200233333Y-126650000D01*
X200166666Y-126650000D01*
X199833333Y-127116666D02*
X199900000Y-127083333D01*
X199933333Y-127050000D01*
X199966666Y-126983333D01*
X199966666Y-126783333D01*
X199933333Y-126716666D01*
X199900000Y-126683333D01*
X199833333Y-126650000D01*
X199733333Y-126650000D01*
X199666666Y-126683333D01*
X199633333Y-126716666D01*
X199600000Y-126783333D01*
X199600000Y-126983333D01*
X199633333Y-127050000D01*
X199666666Y-127083333D01*
X199733333Y-127116666D01*
X199833333Y-127116666D01*
X199366666Y-126650000D02*
X199200000Y-127116666D01*
X199033333Y-126650000D01*
X198766666Y-127116666D02*
X198766666Y-126650000D01*
X198766666Y-126416666D02*
X198800000Y-126450000D01*
X198766666Y-126483333D01*
X198733333Y-126450000D01*
X198766666Y-126416666D01*
X198766666Y-126483333D01*
X198466666Y-127083333D02*
X198400000Y-127116666D01*
X198266666Y-127116666D01*
X198200000Y-127083333D01*
X198166666Y-127016666D01*
X198166666Y-126983333D01*
X198200000Y-126916666D01*
X198266666Y-126883333D01*
X198366666Y-126883333D01*
X198433333Y-126850000D01*
X198466666Y-126783333D01*
X198466666Y-126750000D01*
X198433333Y-126683333D01*
X198366666Y-126650000D01*
X198266666Y-126650000D01*
X198200000Y-126683333D01*
X197866666Y-127116666D02*
X197866666Y-126650000D01*
X197866666Y-126416666D02*
X197900000Y-126450000D01*
X197866666Y-126483333D01*
X197833333Y-126450000D01*
X197866666Y-126416666D01*
X197866666Y-126483333D01*
X197433333Y-127116666D02*
X197500000Y-127083333D01*
X197533333Y-127050000D01*
X197566666Y-126983333D01*
X197566666Y-126783333D01*
X197533333Y-126716666D01*
X197500000Y-126683333D01*
X197433333Y-126650000D01*
X197333333Y-126650000D01*
X197266666Y-126683333D01*
X197233333Y-126716666D01*
X197200000Y-126783333D01*
X197200000Y-126983333D01*
X197233333Y-127050000D01*
X197266666Y-127083333D01*
X197333333Y-127116666D01*
X197433333Y-127116666D01*
X196900000Y-126650000D02*
X196900000Y-127116666D01*
X196900000Y-126716666D02*
X196866666Y-126683333D01*
X196800000Y-126650000D01*
X196700000Y-126650000D01*
X196633333Y-126683333D01*
X196600000Y-126750000D01*
X196600000Y-127116666D01*
X195766666Y-126916666D02*
X195433333Y-126916666D01*
X195833333Y-127116666D02*
X195600000Y-126416666D01*
X195366666Y-127116666D01*
X194833333Y-127116666D02*
X194833333Y-126416666D01*
X194833333Y-127083333D02*
X194900000Y-127116666D01*
X195033333Y-127116666D01*
X195100000Y-127083333D01*
X195133333Y-127050000D01*
X195166666Y-126983333D01*
X195166666Y-126783333D01*
X195133333Y-126716666D01*
X195100000Y-126683333D01*
X195033333Y-126650000D01*
X194900000Y-126650000D01*
X194833333Y-126683333D01*
X194200000Y-127116666D02*
X194200000Y-126750000D01*
X194233333Y-126683333D01*
X194300000Y-126650000D01*
X194433333Y-126650000D01*
X194500000Y-126683333D01*
X194200000Y-127083333D02*
X194266666Y-127116666D01*
X194433333Y-127116666D01*
X194500000Y-127083333D01*
X194533333Y-127016666D01*
X194533333Y-126950000D01*
X194500000Y-126883333D01*
X194433333Y-126850000D01*
X194266666Y-126850000D01*
X194200000Y-126816666D01*
X193866666Y-126650000D02*
X193866666Y-127350000D01*
X193866666Y-126683333D02*
X193800000Y-126650000D01*
X193666666Y-126650000D01*
X193600000Y-126683333D01*
X193566666Y-126716666D01*
X193533333Y-126783333D01*
X193533333Y-126983333D01*
X193566666Y-127050000D01*
X193600000Y-127083333D01*
X193666666Y-127116666D01*
X193800000Y-127116666D01*
X193866666Y-127083333D01*
X193333333Y-126650000D02*
X193066666Y-126650000D01*
X193233333Y-126416666D02*
X193233333Y-127016666D01*
X193200000Y-127083333D01*
X193133333Y-127116666D01*
X193066666Y-127116666D01*
X192566666Y-127083333D02*
X192633333Y-127116666D01*
X192766666Y-127116666D01*
X192833333Y-127083333D01*
X192866666Y-127016666D01*
X192866666Y-126750000D01*
X192833333Y-126683333D01*
X192766666Y-126650000D01*
X192633333Y-126650000D01*
X192566666Y-126683333D01*
X192533333Y-126750000D01*
X192533333Y-126816666D01*
X192866666Y-126883333D01*
X192233333Y-127116666D02*
X192233333Y-126650000D01*
X192233333Y-126783333D02*
X192200000Y-126716666D01*
X192166666Y-126683333D01*
X192100000Y-126650000D01*
X192033333Y-126650000D01*
M02*
