G04 #@! TF.GenerationSoftware,KiCad,Pcbnew,(5.1.0)-1*
G04 #@! TF.CreationDate,2019-06-26T15:16:10-04:00*
G04 #@! TF.ProjectId,8 Pin DIN to 9 Pin Mini DIN,38205069-6e20-4444-994e-20746f203920,rev?*
G04 #@! TF.SameCoordinates,Original*
G04 #@! TF.FileFunction,Profile,NP*
%FSLAX46Y46*%
G04 Gerber Fmt 4.6, Leading zero omitted, Abs format (unit mm)*
G04 Created by KiCad (PCBNEW (5.1.0)-1) date 2019-06-26 15:16:10*
%MOMM*%
%LPD*%
G04 APERTURE LIST*
%ADD10C,1.600000*%
%ADD11C,0.050000*%
G04 APERTURE END LIST*
D10*
X191960000Y-112000000D02*
X205200000Y-112000000D01*
D11*
X205220000Y-106000000D02*
X205220000Y-107600000D01*
X206500000Y-106000000D02*
X205220000Y-106000000D01*
X205220000Y-105000000D02*
X206500000Y-105000000D01*
X206500000Y-105000000D02*
X206500000Y-106000000D01*
X191980000Y-106000000D02*
X191980000Y-107600000D01*
X190700000Y-105000000D02*
X191980000Y-105000000D01*
X190700000Y-106000000D02*
X190700000Y-105000000D01*
X191980000Y-106000000D02*
X190700000Y-106000000D01*
X192600000Y-107600000D02*
X191980000Y-107600000D01*
X200400000Y-107600000D02*
X196600000Y-107600000D01*
X204400000Y-109600000D02*
X206500000Y-109600000D01*
X196600000Y-109600000D02*
X200400000Y-109600000D01*
X192600000Y-107600000D02*
G75*
G02X192600000Y-109600000I0J-1000000D01*
G01*
X196600000Y-109600000D02*
G75*
G02X196600000Y-107600000I0J1000000D01*
G01*
X204400000Y-109600000D02*
G75*
G02X204400000Y-107600000I0J1000000D01*
G01*
X200400000Y-107600000D02*
G75*
G02X200400000Y-109600000I0J-1000000D01*
G01*
X190700000Y-127800000D02*
X190700000Y-109600000D01*
X206500000Y-127800000D02*
X206500000Y-109600000D01*
X190700000Y-127800000D02*
X206500000Y-127800000D01*
X190700000Y-109600000D02*
X192600000Y-109600000D01*
X205220000Y-105000000D02*
X205220000Y-98180000D01*
X204400000Y-107600000D02*
X205220000Y-107600000D01*
X191980000Y-98180000D02*
X191980000Y-105000000D01*
X191980000Y-98180000D02*
G75*
G02X205220000Y-98180000I6620000J0D01*
G01*
M02*
