G04 #@! TF.GenerationSoftware,KiCad,Pcbnew,(5.1.0)-1*
G04 #@! TF.CreationDate,2019-07-11T17:38:34-04:00*
G04 #@! TF.ProjectId,8 Pin DIN to 9 Pin Mini DIN,38205069-6e20-4444-994e-20746f203920,rev?*
G04 #@! TF.SameCoordinates,Original*
G04 #@! TF.FileFunction,Legend,Top*
G04 #@! TF.FilePolarity,Positive*
%FSLAX46Y46*%
G04 Gerber Fmt 4.6, Leading zero omitted, Abs format (unit mm)*
G04 Created by KiCad (PCBNEW (5.1.0)-1) date 2019-07-11 17:38:34*
%MOMM*%
%LPD*%
G04 APERTURE LIST*
%ADD10C,0.127000*%
%ADD11C,0.120000*%
%ADD12C,0.100000*%
%ADD13C,0.050000*%
%ADD14C,0.150000*%
G04 APERTURE END LIST*
D10*
X206000000Y-131710000D02*
X191200000Y-131710000D01*
X191200000Y-118500000D02*
X206000000Y-118500000D01*
X206000000Y-131700000D02*
X206000000Y-128000000D01*
X206000000Y-118500000D02*
X206000000Y-128000000D01*
X191200000Y-131700000D02*
X191200000Y-128000000D01*
X191200000Y-118500000D02*
X191200000Y-128000000D01*
D11*
X202325000Y-98180000D02*
G75*
G03X202325000Y-98180000I-3725000J0D01*
G01*
D12*
X200400000Y-109600000D02*
G75*
G03X200400000Y-107600000I0J1000000D01*
G01*
X204400000Y-107600000D02*
G75*
G03X204400000Y-109600000I0J-1000000D01*
G01*
X196600000Y-107600000D02*
G75*
G03X196600000Y-109600000I0J-1000000D01*
G01*
X192600000Y-109600000D02*
G75*
G03X192600000Y-107600000I0J1000000D01*
G01*
D13*
X204066440Y-129952008D02*
X204066440Y-130666780D01*
X204018788Y-130809734D01*
X203923485Y-130905037D01*
X203780531Y-130952688D01*
X203685228Y-130952688D01*
X204495302Y-130047311D02*
X204542954Y-129999660D01*
X204638257Y-129952008D01*
X204876514Y-129952008D01*
X204971817Y-129999660D01*
X205019468Y-130047311D01*
X205067120Y-130142614D01*
X205067120Y-130237917D01*
X205019468Y-130380871D01*
X204447651Y-130952688D01*
X205067120Y-130952688D01*
X195140921Y-129753258D02*
X195140921Y-128751318D01*
X195474901Y-129466990D01*
X195808881Y-128751318D01*
X195808881Y-129753258D01*
X196285995Y-129753258D02*
X196285995Y-128751318D01*
X196524552Y-128751318D01*
X196667687Y-128799030D01*
X196763110Y-128894452D01*
X196810821Y-128989875D01*
X196858532Y-129180721D01*
X196858532Y-129323855D01*
X196810821Y-129514701D01*
X196763110Y-129610124D01*
X196667687Y-129705547D01*
X196524552Y-129753258D01*
X196285995Y-129753258D01*
X197287935Y-129371567D02*
X198051318Y-129371567D01*
X198576144Y-129753258D02*
X198766990Y-129753258D01*
X198862412Y-129705547D01*
X198910124Y-129657835D01*
X199005547Y-129514701D01*
X199053258Y-129323855D01*
X199053258Y-128942164D01*
X199005547Y-128846741D01*
X198957835Y-128799030D01*
X198862412Y-128751318D01*
X198671567Y-128751318D01*
X198576144Y-128799030D01*
X198528432Y-128846741D01*
X198480721Y-128942164D01*
X198480721Y-129180721D01*
X198528432Y-129276144D01*
X198576144Y-129323855D01*
X198671567Y-129371567D01*
X198862412Y-129371567D01*
X198957835Y-129323855D01*
X199005547Y-129276144D01*
X199053258Y-129180721D01*
X199673507Y-128751318D02*
X199768930Y-128751318D01*
X199864352Y-128799030D01*
X199912064Y-128846741D01*
X199959775Y-128942164D01*
X200007487Y-129133010D01*
X200007487Y-129371567D01*
X199959775Y-129562412D01*
X199912064Y-129657835D01*
X199864352Y-129705547D01*
X199768930Y-129753258D01*
X199673507Y-129753258D01*
X199578084Y-129705547D01*
X199530372Y-129657835D01*
X199482661Y-129562412D01*
X199434950Y-129371567D01*
X199434950Y-129133010D01*
X199482661Y-128942164D01*
X199530372Y-128846741D01*
X199578084Y-128799030D01*
X199673507Y-128751318D01*
X200389178Y-129705547D02*
X200532312Y-129753258D01*
X200770870Y-129753258D01*
X200866292Y-129705547D01*
X200914004Y-129657835D01*
X200961715Y-129562412D01*
X200961715Y-129466990D01*
X200914004Y-129371567D01*
X200866292Y-129323855D01*
X200770870Y-129276144D01*
X200580024Y-129228432D01*
X200484601Y-129180721D01*
X200436890Y-129133010D01*
X200389178Y-129037587D01*
X200389178Y-128942164D01*
X200436890Y-128846741D01*
X200484601Y-128799030D01*
X200580024Y-128751318D01*
X200818581Y-128751318D01*
X200961715Y-128799030D01*
X201391118Y-129753258D02*
X201391118Y-128751318D01*
X201725098Y-129466990D01*
X202059078Y-128751318D01*
X202059078Y-129753258D01*
D14*
X198266666Y-105132380D02*
X198266666Y-105846666D01*
X198219047Y-105989523D01*
X198123809Y-106084761D01*
X197980952Y-106132380D01*
X197885714Y-106132380D01*
X199266666Y-106132380D02*
X198695238Y-106132380D01*
X198980952Y-106132380D02*
X198980952Y-105132380D01*
X198885714Y-105275238D01*
X198790476Y-105370476D01*
X198695238Y-105418095D01*
M02*
