G04 #@! TF.GenerationSoftware,KiCad,Pcbnew,(5.1.0)-1*
G04 #@! TF.CreationDate,2019-07-11T17:38:34-04:00*
G04 #@! TF.ProjectId,8 Pin DIN to 9 Pin Mini DIN,38205069-6e20-4444-994e-20746f203920,rev?*
G04 #@! TF.SameCoordinates,Original*
G04 #@! TF.FileFunction,Copper,L1,Top*
G04 #@! TF.FilePolarity,Positive*
%FSLAX46Y46*%
G04 Gerber Fmt 4.6, Leading zero omitted, Abs format (unit mm)*
G04 Created by KiCad (PCBNEW (5.1.0)-1) date 2019-07-11 17:38:34*
%MOMM*%
%LPD*%
G04 APERTURE LIST*
%ADD10O,3.400000X1.700000*%
%ADD11C,1.408000*%
%ADD12R,1.408000X1.408000*%
%ADD13C,3.200000*%
%ADD14C,2.500000*%
%ADD15R,0.882667X1.000000*%
%ADD16C,0.800000*%
%ADD17C,0.250000*%
%ADD18C,0.254000*%
G04 APERTURE END LIST*
D10*
X198610000Y-127010000D03*
D11*
X202600000Y-123200000D03*
D12*
X199900000Y-123200000D03*
D11*
X197900000Y-123200000D03*
X194600000Y-123200000D03*
X202600000Y-120700000D03*
X194600000Y-120700000D03*
X196600000Y-120700000D03*
X200600000Y-120700000D03*
X198600000Y-120700000D03*
D13*
X191350000Y-126200000D03*
X205850000Y-126200000D03*
D14*
X202375000Y-98180000D03*
X194825000Y-98180000D03*
X198600000Y-101955000D03*
X201269328Y-95510672D03*
X195930672Y-95510672D03*
X195930672Y-100849328D03*
X201269328Y-100831651D03*
X198600000Y-97480000D03*
D15*
X192500000Y-117500000D03*
X194127996Y-117500000D03*
X195893330Y-117500000D03*
X197658664Y-117500000D03*
X199423998Y-117500000D03*
X201189332Y-117500000D03*
X202954666Y-117500000D03*
X204720000Y-117500000D03*
D16*
X198450000Y-110150000D03*
X198450000Y-111250000D03*
X198700000Y-94000000D03*
X200400000Y-102900000D03*
X202100000Y-102800000D03*
X203800000Y-102700000D03*
X200300000Y-93200000D03*
X196798372Y-118380777D03*
X192100000Y-119400000D03*
X198480000Y-118675000D03*
D17*
X194127996Y-118250000D02*
X194127996Y-117500000D01*
X193200000Y-119177996D02*
X194127996Y-118250000D01*
X193200000Y-121100000D02*
X193200000Y-119177996D01*
X194000000Y-121900000D02*
X193200000Y-121100000D01*
X200600000Y-120700000D02*
X199400000Y-121900000D01*
X199400000Y-121900000D02*
X194000000Y-121900000D01*
X201189332Y-117558666D02*
X201189332Y-117500000D01*
X199347998Y-119400000D02*
X201189332Y-117558666D01*
X196600000Y-120700000D02*
X197900000Y-119400000D01*
X197900000Y-119400000D02*
X199347998Y-119400000D01*
X197658664Y-117500000D02*
X197658664Y-117558666D01*
X196836553Y-118380777D02*
X196798372Y-118380777D01*
X197658664Y-117558666D02*
X196836553Y-118380777D01*
X197884315Y-111250000D02*
X198450000Y-111250000D01*
X195318996Y-111250000D02*
X197884315Y-111250000D01*
X190834990Y-115734006D02*
X195318996Y-111250000D01*
X190834990Y-121184990D02*
X190834990Y-115734006D01*
X196660000Y-127010000D02*
X190834990Y-121184990D01*
X198610000Y-127010000D02*
X196660000Y-127010000D01*
X192500000Y-119000000D02*
X192500000Y-117500000D01*
X192100000Y-119400000D02*
X192500000Y-119000000D01*
X202954666Y-118250000D02*
X202954666Y-117500000D01*
X199900000Y-122246000D02*
X200246000Y-121900000D01*
X199900000Y-123200000D02*
X199900000Y-122246000D01*
X200246000Y-121900000D02*
X203300000Y-121900000D01*
X203300000Y-121900000D02*
X204000000Y-121200000D01*
X204000000Y-121200000D02*
X204000000Y-119295334D01*
X204000000Y-119295334D02*
X202954666Y-118250000D01*
X198480000Y-118443998D02*
X199423998Y-117500000D01*
X198480000Y-118675000D02*
X198480000Y-118443998D01*
X195893330Y-117558666D02*
X195893330Y-117500000D01*
X195900000Y-117565336D02*
X195893330Y-117558666D01*
X195900000Y-118800000D02*
X195900000Y-117565336D01*
X194600000Y-120700000D02*
X194600000Y-120100000D01*
X194600000Y-120100000D02*
X195900000Y-118800000D01*
X204720000Y-118250000D02*
X204720000Y-117500000D01*
X204720000Y-122075606D02*
X204720000Y-118250000D01*
X203595606Y-123200000D02*
X204720000Y-122075606D01*
X202600000Y-123200000D02*
X203595606Y-123200000D01*
D18*
G36*
X206340000Y-124015710D02*
G01*
X206249945Y-123990086D01*
X205811127Y-123954524D01*
X205373803Y-124005254D01*
X204954779Y-124140326D01*
X204634802Y-124311357D01*
X204466761Y-124637155D01*
X205850000Y-126020395D01*
X205864142Y-126006252D01*
X206043748Y-126185858D01*
X206029605Y-126200000D01*
X206043748Y-126214143D01*
X205864142Y-126393748D01*
X205850000Y-126379605D01*
X204466761Y-127762845D01*
X204634802Y-128088643D01*
X205026607Y-128289426D01*
X205450055Y-128409914D01*
X205888873Y-128445476D01*
X206326197Y-128394746D01*
X206340000Y-128390297D01*
X206340000Y-131340000D01*
X190860000Y-131340000D01*
X190860000Y-128384290D01*
X190950055Y-128409914D01*
X191388873Y-128445476D01*
X191826197Y-128394746D01*
X192245221Y-128259674D01*
X192565198Y-128088643D01*
X192733239Y-127762845D01*
X191350000Y-126379605D01*
X191335858Y-126393748D01*
X191156253Y-126214143D01*
X191170395Y-126200000D01*
X191529605Y-126200000D01*
X192912845Y-127583239D01*
X193238643Y-127415198D01*
X193263398Y-127366890D01*
X196318524Y-127366890D01*
X196339437Y-127460953D01*
X196454709Y-127729426D01*
X196620143Y-127970252D01*
X196829381Y-128174176D01*
X197074382Y-128333361D01*
X197345731Y-128441690D01*
X197633000Y-128495000D01*
X198483000Y-128495000D01*
X198483000Y-127137000D01*
X198737000Y-127137000D01*
X198737000Y-128495000D01*
X199587000Y-128495000D01*
X199874269Y-128441690D01*
X200145618Y-128333361D01*
X200390619Y-128174176D01*
X200599857Y-127970252D01*
X200765291Y-127729426D01*
X200880563Y-127460953D01*
X200901476Y-127366890D01*
X200780155Y-127137000D01*
X198737000Y-127137000D01*
X198483000Y-127137000D01*
X196439845Y-127137000D01*
X196318524Y-127366890D01*
X193263398Y-127366890D01*
X193439426Y-127023393D01*
X193544786Y-126653110D01*
X196318524Y-126653110D01*
X196439845Y-126883000D01*
X198483000Y-126883000D01*
X198483000Y-126863000D01*
X198737000Y-126863000D01*
X198737000Y-126883000D01*
X200780155Y-126883000D01*
X200901476Y-126653110D01*
X200880563Y-126559047D01*
X200765291Y-126290574D01*
X200729776Y-126238873D01*
X203604524Y-126238873D01*
X203655254Y-126676197D01*
X203790326Y-127095221D01*
X203961357Y-127415198D01*
X204287155Y-127583239D01*
X205670395Y-126200000D01*
X204287155Y-124816761D01*
X203961357Y-124984802D01*
X203760574Y-125376607D01*
X203640086Y-125800055D01*
X203604524Y-126238873D01*
X200729776Y-126238873D01*
X200599857Y-126049748D01*
X200390619Y-125845824D01*
X200145618Y-125686639D01*
X199874269Y-125578310D01*
X199587000Y-125525000D01*
X197633000Y-125525000D01*
X197345731Y-125578310D01*
X197074382Y-125686639D01*
X196829381Y-125845824D01*
X196620143Y-126049748D01*
X196454709Y-126290574D01*
X196339437Y-126559047D01*
X196318524Y-126653110D01*
X193544786Y-126653110D01*
X193559914Y-126599945D01*
X193595476Y-126161127D01*
X193544746Y-125723803D01*
X193409674Y-125304779D01*
X193238643Y-124984802D01*
X192912845Y-124816761D01*
X191529605Y-126200000D01*
X191170395Y-126200000D01*
X191156253Y-126185858D01*
X191335858Y-126006253D01*
X191350000Y-126020395D01*
X192733239Y-124637155D01*
X192565198Y-124311357D01*
X192173393Y-124110574D01*
X191749945Y-123990086D01*
X191311127Y-123954524D01*
X190873803Y-124005254D01*
X190860000Y-124009703D01*
X190860000Y-117121650D01*
X190940392Y-117219608D01*
X191158899Y-117398932D01*
X191408192Y-117532182D01*
X191420595Y-117535944D01*
X191420595Y-118000000D01*
X191432855Y-118124482D01*
X191469165Y-118244180D01*
X191528130Y-118354494D01*
X191607482Y-118451185D01*
X191633838Y-118472815D01*
X191609744Y-118482795D01*
X191440226Y-118596063D01*
X191296063Y-118740226D01*
X191182795Y-118909744D01*
X191104774Y-119098102D01*
X191065000Y-119298061D01*
X191065000Y-119501939D01*
X191104774Y-119701898D01*
X191182795Y-119890256D01*
X191296063Y-120059774D01*
X191440226Y-120203937D01*
X191609744Y-120317205D01*
X191798102Y-120395226D01*
X191998061Y-120435000D01*
X192201939Y-120435000D01*
X192401898Y-120395226D01*
X192440000Y-120379443D01*
X192440000Y-121062677D01*
X192436324Y-121100000D01*
X192440000Y-121137322D01*
X192440000Y-121137332D01*
X192450997Y-121248985D01*
X192481332Y-121348987D01*
X192494454Y-121392246D01*
X192565026Y-121524276D01*
X192604871Y-121572826D01*
X192659999Y-121640001D01*
X192689002Y-121663803D01*
X193436201Y-122411002D01*
X193459999Y-122440001D01*
X193484163Y-122459832D01*
X193413393Y-122565746D01*
X193312457Y-122809428D01*
X193261000Y-123068120D01*
X193261000Y-123331880D01*
X193312457Y-123590572D01*
X193413393Y-123834254D01*
X193559931Y-124053563D01*
X193746437Y-124240069D01*
X193965746Y-124386607D01*
X194209428Y-124487543D01*
X194468120Y-124539000D01*
X194731880Y-124539000D01*
X194990572Y-124487543D01*
X195234254Y-124386607D01*
X195453563Y-124240069D01*
X195640069Y-124053563D01*
X195786607Y-123834254D01*
X195887543Y-123590572D01*
X195939000Y-123331880D01*
X195939000Y-123068120D01*
X195887543Y-122809428D01*
X195825648Y-122660000D01*
X196674352Y-122660000D01*
X196612457Y-122809428D01*
X196561000Y-123068120D01*
X196561000Y-123331880D01*
X196612457Y-123590572D01*
X196713393Y-123834254D01*
X196859931Y-124053563D01*
X197046437Y-124240069D01*
X197265746Y-124386607D01*
X197509428Y-124487543D01*
X197768120Y-124539000D01*
X198031880Y-124539000D01*
X198290572Y-124487543D01*
X198534254Y-124386607D01*
X198686898Y-124284613D01*
X198744815Y-124355185D01*
X198841506Y-124434537D01*
X198951820Y-124493502D01*
X199071518Y-124529812D01*
X199196000Y-124542072D01*
X200604000Y-124542072D01*
X200728482Y-124529812D01*
X200848180Y-124493502D01*
X200958494Y-124434537D01*
X201055185Y-124355185D01*
X201134537Y-124258494D01*
X201193502Y-124148180D01*
X201229812Y-124028482D01*
X201242072Y-123904000D01*
X201242072Y-122660000D01*
X201374352Y-122660000D01*
X201312457Y-122809428D01*
X201261000Y-123068120D01*
X201261000Y-123331880D01*
X201312457Y-123590572D01*
X201413393Y-123834254D01*
X201559931Y-124053563D01*
X201746437Y-124240069D01*
X201965746Y-124386607D01*
X202209428Y-124487543D01*
X202468120Y-124539000D01*
X202731880Y-124539000D01*
X202990572Y-124487543D01*
X203234254Y-124386607D01*
X203453563Y-124240069D01*
X203640069Y-124053563D01*
X203707492Y-123952657D01*
X203744592Y-123949003D01*
X203887853Y-123905546D01*
X204019882Y-123834974D01*
X204135607Y-123740001D01*
X204159410Y-123710998D01*
X205231004Y-122639404D01*
X205260001Y-122615607D01*
X205354974Y-122499882D01*
X205425546Y-122367853D01*
X205469003Y-122224592D01*
X205480000Y-122112939D01*
X205480000Y-122112930D01*
X205483676Y-122075607D01*
X205480000Y-122038284D01*
X205480000Y-118549687D01*
X205515827Y-118530537D01*
X205612518Y-118451185D01*
X205691870Y-118354494D01*
X205750835Y-118244180D01*
X205787145Y-118124482D01*
X205799405Y-118000000D01*
X205799405Y-117506741D01*
X206001101Y-117398932D01*
X206219608Y-117219608D01*
X206340001Y-117072909D01*
X206340000Y-124015710D01*
X206340000Y-124015710D01*
G37*
X206340000Y-124015710D02*
X206249945Y-123990086D01*
X205811127Y-123954524D01*
X205373803Y-124005254D01*
X204954779Y-124140326D01*
X204634802Y-124311357D01*
X204466761Y-124637155D01*
X205850000Y-126020395D01*
X205864142Y-126006252D01*
X206043748Y-126185858D01*
X206029605Y-126200000D01*
X206043748Y-126214143D01*
X205864142Y-126393748D01*
X205850000Y-126379605D01*
X204466761Y-127762845D01*
X204634802Y-128088643D01*
X205026607Y-128289426D01*
X205450055Y-128409914D01*
X205888873Y-128445476D01*
X206326197Y-128394746D01*
X206340000Y-128390297D01*
X206340000Y-131340000D01*
X190860000Y-131340000D01*
X190860000Y-128384290D01*
X190950055Y-128409914D01*
X191388873Y-128445476D01*
X191826197Y-128394746D01*
X192245221Y-128259674D01*
X192565198Y-128088643D01*
X192733239Y-127762845D01*
X191350000Y-126379605D01*
X191335858Y-126393748D01*
X191156253Y-126214143D01*
X191170395Y-126200000D01*
X191529605Y-126200000D01*
X192912845Y-127583239D01*
X193238643Y-127415198D01*
X193263398Y-127366890D01*
X196318524Y-127366890D01*
X196339437Y-127460953D01*
X196454709Y-127729426D01*
X196620143Y-127970252D01*
X196829381Y-128174176D01*
X197074382Y-128333361D01*
X197345731Y-128441690D01*
X197633000Y-128495000D01*
X198483000Y-128495000D01*
X198483000Y-127137000D01*
X198737000Y-127137000D01*
X198737000Y-128495000D01*
X199587000Y-128495000D01*
X199874269Y-128441690D01*
X200145618Y-128333361D01*
X200390619Y-128174176D01*
X200599857Y-127970252D01*
X200765291Y-127729426D01*
X200880563Y-127460953D01*
X200901476Y-127366890D01*
X200780155Y-127137000D01*
X198737000Y-127137000D01*
X198483000Y-127137000D01*
X196439845Y-127137000D01*
X196318524Y-127366890D01*
X193263398Y-127366890D01*
X193439426Y-127023393D01*
X193544786Y-126653110D01*
X196318524Y-126653110D01*
X196439845Y-126883000D01*
X198483000Y-126883000D01*
X198483000Y-126863000D01*
X198737000Y-126863000D01*
X198737000Y-126883000D01*
X200780155Y-126883000D01*
X200901476Y-126653110D01*
X200880563Y-126559047D01*
X200765291Y-126290574D01*
X200729776Y-126238873D01*
X203604524Y-126238873D01*
X203655254Y-126676197D01*
X203790326Y-127095221D01*
X203961357Y-127415198D01*
X204287155Y-127583239D01*
X205670395Y-126200000D01*
X204287155Y-124816761D01*
X203961357Y-124984802D01*
X203760574Y-125376607D01*
X203640086Y-125800055D01*
X203604524Y-126238873D01*
X200729776Y-126238873D01*
X200599857Y-126049748D01*
X200390619Y-125845824D01*
X200145618Y-125686639D01*
X199874269Y-125578310D01*
X199587000Y-125525000D01*
X197633000Y-125525000D01*
X197345731Y-125578310D01*
X197074382Y-125686639D01*
X196829381Y-125845824D01*
X196620143Y-126049748D01*
X196454709Y-126290574D01*
X196339437Y-126559047D01*
X196318524Y-126653110D01*
X193544786Y-126653110D01*
X193559914Y-126599945D01*
X193595476Y-126161127D01*
X193544746Y-125723803D01*
X193409674Y-125304779D01*
X193238643Y-124984802D01*
X192912845Y-124816761D01*
X191529605Y-126200000D01*
X191170395Y-126200000D01*
X191156253Y-126185858D01*
X191335858Y-126006253D01*
X191350000Y-126020395D01*
X192733239Y-124637155D01*
X192565198Y-124311357D01*
X192173393Y-124110574D01*
X191749945Y-123990086D01*
X191311127Y-123954524D01*
X190873803Y-124005254D01*
X190860000Y-124009703D01*
X190860000Y-117121650D01*
X190940392Y-117219608D01*
X191158899Y-117398932D01*
X191408192Y-117532182D01*
X191420595Y-117535944D01*
X191420595Y-118000000D01*
X191432855Y-118124482D01*
X191469165Y-118244180D01*
X191528130Y-118354494D01*
X191607482Y-118451185D01*
X191633838Y-118472815D01*
X191609744Y-118482795D01*
X191440226Y-118596063D01*
X191296063Y-118740226D01*
X191182795Y-118909744D01*
X191104774Y-119098102D01*
X191065000Y-119298061D01*
X191065000Y-119501939D01*
X191104774Y-119701898D01*
X191182795Y-119890256D01*
X191296063Y-120059774D01*
X191440226Y-120203937D01*
X191609744Y-120317205D01*
X191798102Y-120395226D01*
X191998061Y-120435000D01*
X192201939Y-120435000D01*
X192401898Y-120395226D01*
X192440000Y-120379443D01*
X192440000Y-121062677D01*
X192436324Y-121100000D01*
X192440000Y-121137322D01*
X192440000Y-121137332D01*
X192450997Y-121248985D01*
X192481332Y-121348987D01*
X192494454Y-121392246D01*
X192565026Y-121524276D01*
X192604871Y-121572826D01*
X192659999Y-121640001D01*
X192689002Y-121663803D01*
X193436201Y-122411002D01*
X193459999Y-122440001D01*
X193484163Y-122459832D01*
X193413393Y-122565746D01*
X193312457Y-122809428D01*
X193261000Y-123068120D01*
X193261000Y-123331880D01*
X193312457Y-123590572D01*
X193413393Y-123834254D01*
X193559931Y-124053563D01*
X193746437Y-124240069D01*
X193965746Y-124386607D01*
X194209428Y-124487543D01*
X194468120Y-124539000D01*
X194731880Y-124539000D01*
X194990572Y-124487543D01*
X195234254Y-124386607D01*
X195453563Y-124240069D01*
X195640069Y-124053563D01*
X195786607Y-123834254D01*
X195887543Y-123590572D01*
X195939000Y-123331880D01*
X195939000Y-123068120D01*
X195887543Y-122809428D01*
X195825648Y-122660000D01*
X196674352Y-122660000D01*
X196612457Y-122809428D01*
X196561000Y-123068120D01*
X196561000Y-123331880D01*
X196612457Y-123590572D01*
X196713393Y-123834254D01*
X196859931Y-124053563D01*
X197046437Y-124240069D01*
X197265746Y-124386607D01*
X197509428Y-124487543D01*
X197768120Y-124539000D01*
X198031880Y-124539000D01*
X198290572Y-124487543D01*
X198534254Y-124386607D01*
X198686898Y-124284613D01*
X198744815Y-124355185D01*
X198841506Y-124434537D01*
X198951820Y-124493502D01*
X199071518Y-124529812D01*
X199196000Y-124542072D01*
X200604000Y-124542072D01*
X200728482Y-124529812D01*
X200848180Y-124493502D01*
X200958494Y-124434537D01*
X201055185Y-124355185D01*
X201134537Y-124258494D01*
X201193502Y-124148180D01*
X201229812Y-124028482D01*
X201242072Y-123904000D01*
X201242072Y-122660000D01*
X201374352Y-122660000D01*
X201312457Y-122809428D01*
X201261000Y-123068120D01*
X201261000Y-123331880D01*
X201312457Y-123590572D01*
X201413393Y-123834254D01*
X201559931Y-124053563D01*
X201746437Y-124240069D01*
X201965746Y-124386607D01*
X202209428Y-124487543D01*
X202468120Y-124539000D01*
X202731880Y-124539000D01*
X202990572Y-124487543D01*
X203234254Y-124386607D01*
X203453563Y-124240069D01*
X203640069Y-124053563D01*
X203707492Y-123952657D01*
X203744592Y-123949003D01*
X203887853Y-123905546D01*
X204019882Y-123834974D01*
X204135607Y-123740001D01*
X204159410Y-123710998D01*
X205231004Y-122639404D01*
X205260001Y-122615607D01*
X205354974Y-122499882D01*
X205425546Y-122367853D01*
X205469003Y-122224592D01*
X205480000Y-122112939D01*
X205480000Y-122112930D01*
X205483676Y-122075607D01*
X205480000Y-122038284D01*
X205480000Y-118549687D01*
X205515827Y-118530537D01*
X205612518Y-118451185D01*
X205691870Y-118354494D01*
X205750835Y-118244180D01*
X205787145Y-118124482D01*
X205799405Y-118000000D01*
X205799405Y-117506741D01*
X206001101Y-117398932D01*
X206219608Y-117219608D01*
X206340001Y-117072909D01*
X206340000Y-124015710D01*
G36*
X196862837Y-118530537D02*
G01*
X196973151Y-118589502D01*
X197092849Y-118625812D01*
X197217331Y-118638072D01*
X197372914Y-118635000D01*
X197447520Y-118560394D01*
X197445000Y-118573061D01*
X197445000Y-118776939D01*
X197447275Y-118788374D01*
X197359999Y-118859999D01*
X197336201Y-118888997D01*
X196842245Y-119382953D01*
X196731880Y-119361000D01*
X196468120Y-119361000D01*
X196400315Y-119374487D01*
X196411004Y-119363798D01*
X196440001Y-119340001D01*
X196534974Y-119224276D01*
X196605546Y-119092247D01*
X196649003Y-118948986D01*
X196660000Y-118837333D01*
X196660000Y-118837325D01*
X196663676Y-118800000D01*
X196660000Y-118762675D01*
X196660000Y-118546122D01*
X196689157Y-118530537D01*
X196775997Y-118459269D01*
X196862837Y-118530537D01*
X196862837Y-118530537D01*
G37*
X196862837Y-118530537D02*
X196973151Y-118589502D01*
X197092849Y-118625812D01*
X197217331Y-118638072D01*
X197372914Y-118635000D01*
X197447520Y-118560394D01*
X197445000Y-118573061D01*
X197445000Y-118776939D01*
X197447275Y-118788374D01*
X197359999Y-118859999D01*
X197336201Y-118888997D01*
X196842245Y-119382953D01*
X196731880Y-119361000D01*
X196468120Y-119361000D01*
X196400315Y-119374487D01*
X196411004Y-119363798D01*
X196440001Y-119340001D01*
X196534974Y-119224276D01*
X196605546Y-119092247D01*
X196649003Y-118948986D01*
X196660000Y-118837333D01*
X196660000Y-118837325D01*
X196663676Y-118800000D01*
X196660000Y-118762675D01*
X196660000Y-118546122D01*
X196689157Y-118530537D01*
X196775997Y-118459269D01*
X196862837Y-118530537D01*
G36*
X197785664Y-117647000D02*
G01*
X197531664Y-117647000D01*
X197531664Y-117635000D01*
X197785664Y-117635000D01*
X197785664Y-117647000D01*
X197785664Y-117647000D01*
G37*
X197785664Y-117647000D02*
X197531664Y-117647000D01*
X197531664Y-117635000D01*
X197785664Y-117635000D01*
X197785664Y-117647000D01*
G36*
X203709080Y-110107292D02*
G01*
X203764392Y-110130090D01*
X203819366Y-110153652D01*
X203828169Y-110156377D01*
X204015006Y-110212786D01*
X204073686Y-110224405D01*
X204132196Y-110236842D01*
X204141361Y-110237805D01*
X204335594Y-110256850D01*
X204335598Y-110256850D01*
X204367581Y-110260000D01*
X206340001Y-110260000D01*
X206340001Y-115327091D01*
X206219608Y-115180392D01*
X206001101Y-115001068D01*
X205751808Y-114867818D01*
X205481309Y-114785764D01*
X205270492Y-114765000D01*
X191889508Y-114765000D01*
X191678691Y-114785764D01*
X191408192Y-114867818D01*
X191158899Y-115001068D01*
X190940392Y-115180392D01*
X190860000Y-115278350D01*
X190860000Y-110260000D01*
X192632419Y-110260000D01*
X192665387Y-110256753D01*
X192678367Y-110256753D01*
X192687532Y-110255790D01*
X192881481Y-110234035D01*
X192939966Y-110221603D01*
X192998676Y-110209978D01*
X193007479Y-110207253D01*
X193193509Y-110148240D01*
X193248519Y-110124662D01*
X193303794Y-110101880D01*
X193311900Y-110097497D01*
X193346929Y-110078239D01*
X193430795Y-110134277D01*
X193591855Y-110200990D01*
X193762835Y-110235000D01*
X193937165Y-110235000D01*
X194108145Y-110200990D01*
X194225000Y-110152587D01*
X194341855Y-110200990D01*
X194512835Y-110235000D01*
X194687165Y-110235000D01*
X194858145Y-110200990D01*
X194975000Y-110152587D01*
X195091855Y-110200990D01*
X195262835Y-110235000D01*
X195437165Y-110235000D01*
X195608145Y-110200990D01*
X195769205Y-110134277D01*
X195853677Y-110077834D01*
X195909080Y-110107292D01*
X195964392Y-110130090D01*
X196019366Y-110153652D01*
X196028169Y-110156377D01*
X196215006Y-110212786D01*
X196273686Y-110224405D01*
X196332196Y-110236842D01*
X196341361Y-110237805D01*
X196535594Y-110256850D01*
X196535598Y-110256850D01*
X196567581Y-110260000D01*
X200432419Y-110260000D01*
X200465387Y-110256753D01*
X200478367Y-110256753D01*
X200487532Y-110255790D01*
X200681481Y-110234035D01*
X200739966Y-110221603D01*
X200798676Y-110209978D01*
X200807479Y-110207253D01*
X200993509Y-110148240D01*
X201048519Y-110124662D01*
X201103794Y-110101880D01*
X201111900Y-110097497D01*
X201146929Y-110078239D01*
X201230795Y-110134277D01*
X201391855Y-110200990D01*
X201562835Y-110235000D01*
X201737165Y-110235000D01*
X201908145Y-110200990D01*
X202025000Y-110152587D01*
X202141855Y-110200990D01*
X202312835Y-110235000D01*
X202487165Y-110235000D01*
X202658145Y-110200990D01*
X202775000Y-110152587D01*
X202891855Y-110200990D01*
X203062835Y-110235000D01*
X203237165Y-110235000D01*
X203408145Y-110200990D01*
X203569205Y-110134277D01*
X203653677Y-110077834D01*
X203709080Y-110107292D01*
X203709080Y-110107292D01*
G37*
X203709080Y-110107292D02*
X203764392Y-110130090D01*
X203819366Y-110153652D01*
X203828169Y-110156377D01*
X204015006Y-110212786D01*
X204073686Y-110224405D01*
X204132196Y-110236842D01*
X204141361Y-110237805D01*
X204335594Y-110256850D01*
X204335598Y-110256850D01*
X204367581Y-110260000D01*
X206340001Y-110260000D01*
X206340001Y-115327091D01*
X206219608Y-115180392D01*
X206001101Y-115001068D01*
X205751808Y-114867818D01*
X205481309Y-114785764D01*
X205270492Y-114765000D01*
X191889508Y-114765000D01*
X191678691Y-114785764D01*
X191408192Y-114867818D01*
X191158899Y-115001068D01*
X190940392Y-115180392D01*
X190860000Y-115278350D01*
X190860000Y-110260000D01*
X192632419Y-110260000D01*
X192665387Y-110256753D01*
X192678367Y-110256753D01*
X192687532Y-110255790D01*
X192881481Y-110234035D01*
X192939966Y-110221603D01*
X192998676Y-110209978D01*
X193007479Y-110207253D01*
X193193509Y-110148240D01*
X193248519Y-110124662D01*
X193303794Y-110101880D01*
X193311900Y-110097497D01*
X193346929Y-110078239D01*
X193430795Y-110134277D01*
X193591855Y-110200990D01*
X193762835Y-110235000D01*
X193937165Y-110235000D01*
X194108145Y-110200990D01*
X194225000Y-110152587D01*
X194341855Y-110200990D01*
X194512835Y-110235000D01*
X194687165Y-110235000D01*
X194858145Y-110200990D01*
X194975000Y-110152587D01*
X195091855Y-110200990D01*
X195262835Y-110235000D01*
X195437165Y-110235000D01*
X195608145Y-110200990D01*
X195769205Y-110134277D01*
X195853677Y-110077834D01*
X195909080Y-110107292D01*
X195964392Y-110130090D01*
X196019366Y-110153652D01*
X196028169Y-110156377D01*
X196215006Y-110212786D01*
X196273686Y-110224405D01*
X196332196Y-110236842D01*
X196341361Y-110237805D01*
X196535594Y-110256850D01*
X196535598Y-110256850D01*
X196567581Y-110260000D01*
X200432419Y-110260000D01*
X200465387Y-110256753D01*
X200478367Y-110256753D01*
X200487532Y-110255790D01*
X200681481Y-110234035D01*
X200739966Y-110221603D01*
X200798676Y-110209978D01*
X200807479Y-110207253D01*
X200993509Y-110148240D01*
X201048519Y-110124662D01*
X201103794Y-110101880D01*
X201111900Y-110097497D01*
X201146929Y-110078239D01*
X201230795Y-110134277D01*
X201391855Y-110200990D01*
X201562835Y-110235000D01*
X201737165Y-110235000D01*
X201908145Y-110200990D01*
X202025000Y-110152587D01*
X202141855Y-110200990D01*
X202312835Y-110235000D01*
X202487165Y-110235000D01*
X202658145Y-110200990D01*
X202775000Y-110152587D01*
X202891855Y-110200990D01*
X203062835Y-110235000D01*
X203237165Y-110235000D01*
X203408145Y-110200990D01*
X203569205Y-110134277D01*
X203653677Y-110077834D01*
X203709080Y-110107292D01*
G36*
X200320891Y-92475982D02*
G01*
X201192007Y-92815415D01*
X201999305Y-93286944D01*
X202722896Y-93878953D01*
X203344967Y-94576867D01*
X203850204Y-95363508D01*
X204226161Y-96219495D01*
X204463586Y-97123761D01*
X204558868Y-98076429D01*
X204560001Y-98183573D01*
X204560000Y-105967581D01*
X204560000Y-105967582D01*
X204560001Y-106940000D01*
X204367581Y-106940000D01*
X204334613Y-106943247D01*
X204321633Y-106943247D01*
X204312468Y-106944210D01*
X204118518Y-106965965D01*
X204060019Y-106978400D01*
X204001325Y-106990022D01*
X203992522Y-106992747D01*
X203806491Y-107051760D01*
X203751509Y-107075326D01*
X203696206Y-107098120D01*
X203688100Y-107102503D01*
X203653071Y-107121761D01*
X203569205Y-107065723D01*
X203408145Y-106999010D01*
X203237165Y-106965000D01*
X203062835Y-106965000D01*
X202891855Y-106999010D01*
X202775000Y-107047413D01*
X202658145Y-106999010D01*
X202487165Y-106965000D01*
X202312835Y-106965000D01*
X202141855Y-106999010D01*
X202025000Y-107047413D01*
X201908145Y-106999010D01*
X201737165Y-106965000D01*
X201562835Y-106965000D01*
X201391855Y-106999010D01*
X201230795Y-107065723D01*
X201146323Y-107122166D01*
X201090921Y-107092708D01*
X201035606Y-107069909D01*
X200980634Y-107046348D01*
X200971831Y-107043623D01*
X200784995Y-106987214D01*
X200726307Y-106975594D01*
X200667804Y-106963158D01*
X200658639Y-106962195D01*
X200464405Y-106943150D01*
X200464402Y-106943150D01*
X200432419Y-106940000D01*
X196567581Y-106940000D01*
X196534613Y-106943247D01*
X196521633Y-106943247D01*
X196512468Y-106944210D01*
X196318518Y-106965965D01*
X196260019Y-106978400D01*
X196201325Y-106990022D01*
X196192522Y-106992747D01*
X196006491Y-107051760D01*
X195951509Y-107075326D01*
X195896206Y-107098120D01*
X195888100Y-107102503D01*
X195853071Y-107121761D01*
X195769205Y-107065723D01*
X195608145Y-106999010D01*
X195437165Y-106965000D01*
X195262835Y-106965000D01*
X195091855Y-106999010D01*
X194975000Y-107047413D01*
X194858145Y-106999010D01*
X194687165Y-106965000D01*
X194512835Y-106965000D01*
X194341855Y-106999010D01*
X194225000Y-107047413D01*
X194108145Y-106999010D01*
X193937165Y-106965000D01*
X193762835Y-106965000D01*
X193591855Y-106999010D01*
X193430795Y-107065723D01*
X193346323Y-107122166D01*
X193290921Y-107092708D01*
X193235606Y-107069909D01*
X193180634Y-107046348D01*
X193171831Y-107043623D01*
X192984995Y-106987214D01*
X192926307Y-106975594D01*
X192867804Y-106963158D01*
X192858639Y-106962195D01*
X192664405Y-106943150D01*
X192664402Y-106943150D01*
X192640000Y-106940747D01*
X192640000Y-103268605D01*
X197466000Y-103268605D01*
X197591914Y-103558577D01*
X197924126Y-103724433D01*
X198282312Y-103822290D01*
X198652706Y-103848389D01*
X199021075Y-103801725D01*
X199373262Y-103684094D01*
X199608086Y-103558577D01*
X199734000Y-103268605D01*
X198600000Y-102134605D01*
X197466000Y-103268605D01*
X192640000Y-103268605D01*
X192640000Y-98195977D01*
X192655868Y-97994344D01*
X192940000Y-97994344D01*
X192940000Y-98365656D01*
X193012439Y-98729834D01*
X193154534Y-99072882D01*
X193360825Y-99381618D01*
X193623382Y-99644175D01*
X193932118Y-99850466D01*
X194249628Y-99981983D01*
X194118111Y-100299494D01*
X194045672Y-100663672D01*
X194045672Y-101034984D01*
X194118111Y-101399162D01*
X194260206Y-101742210D01*
X194466497Y-102050946D01*
X194729054Y-102313503D01*
X195037790Y-102519794D01*
X195380838Y-102661889D01*
X195745016Y-102734328D01*
X196116328Y-102734328D01*
X196480506Y-102661889D01*
X196803985Y-102527900D01*
X196870906Y-102728262D01*
X196996423Y-102963086D01*
X197286395Y-103089000D01*
X198420395Y-101955000D01*
X198406253Y-101940858D01*
X198585858Y-101761253D01*
X198600000Y-101775395D01*
X198614143Y-101761253D01*
X198793748Y-101940858D01*
X198779605Y-101955000D01*
X199913605Y-103089000D01*
X200203577Y-102963086D01*
X200369433Y-102630874D01*
X200401747Y-102512597D01*
X200719494Y-102644212D01*
X201083672Y-102716651D01*
X201454984Y-102716651D01*
X201819162Y-102644212D01*
X202162210Y-102502117D01*
X202470946Y-102295826D01*
X202733503Y-102033269D01*
X202939794Y-101724533D01*
X203081889Y-101381485D01*
X203154328Y-101017307D01*
X203154328Y-100645995D01*
X203081889Y-100281817D01*
X202956621Y-99979394D01*
X203267882Y-99850466D01*
X203576618Y-99644175D01*
X203839175Y-99381618D01*
X204045466Y-99072882D01*
X204187561Y-98729834D01*
X204260000Y-98365656D01*
X204260000Y-97994344D01*
X204187561Y-97630166D01*
X204045466Y-97287118D01*
X203839175Y-96978382D01*
X203576618Y-96715825D01*
X203267882Y-96509534D01*
X202950372Y-96378017D01*
X203081889Y-96060506D01*
X203154328Y-95696328D01*
X203154328Y-95325016D01*
X203081889Y-94960838D01*
X202939794Y-94617790D01*
X202733503Y-94309054D01*
X202470946Y-94046497D01*
X202162210Y-93840206D01*
X201819162Y-93698111D01*
X201454984Y-93625672D01*
X201083672Y-93625672D01*
X200719494Y-93698111D01*
X200376446Y-93840206D01*
X200067710Y-94046497D01*
X199805153Y-94309054D01*
X199598862Y-94617790D01*
X199456767Y-94960838D01*
X199384328Y-95325016D01*
X199384328Y-95696328D01*
X199399121Y-95770697D01*
X199149834Y-95667439D01*
X198785656Y-95595000D01*
X198414344Y-95595000D01*
X198050166Y-95667439D01*
X197800879Y-95770697D01*
X197815672Y-95696328D01*
X197815672Y-95325016D01*
X197743233Y-94960838D01*
X197601138Y-94617790D01*
X197394847Y-94309054D01*
X197132290Y-94046497D01*
X196823554Y-93840206D01*
X196480506Y-93698111D01*
X196116328Y-93625672D01*
X195745016Y-93625672D01*
X195380838Y-93698111D01*
X195037790Y-93840206D01*
X194729054Y-94046497D01*
X194466497Y-94309054D01*
X194260206Y-94617790D01*
X194118111Y-94960838D01*
X194045672Y-95325016D01*
X194045672Y-95696328D01*
X194118111Y-96060506D01*
X194249628Y-96378017D01*
X193932118Y-96509534D01*
X193623382Y-96715825D01*
X193360825Y-96978382D01*
X193154534Y-97287118D01*
X193012439Y-97630166D01*
X192940000Y-97994344D01*
X192655868Y-97994344D01*
X192714619Y-97247849D01*
X192932898Y-96338651D01*
X193290724Y-95474782D01*
X193779274Y-94677542D01*
X194386533Y-93966533D01*
X195097539Y-93359276D01*
X195894787Y-92870722D01*
X196758651Y-92512898D01*
X197266413Y-92390996D01*
X197271596Y-92399338D01*
X197302437Y-92450554D01*
X197307990Y-92457908D01*
X197414915Y-92597482D01*
X197455752Y-92641190D01*
X197495979Y-92685468D01*
X197502855Y-92691603D01*
X197634855Y-92807750D01*
X197683365Y-92842665D01*
X197731460Y-92878312D01*
X197739397Y-92882995D01*
X197891441Y-92971291D01*
X197945849Y-92996138D01*
X197999916Y-93021747D01*
X198008611Y-93024799D01*
X198174909Y-93081881D01*
X198233112Y-93095687D01*
X198291119Y-93110306D01*
X198300241Y-93111612D01*
X198474460Y-93135306D01*
X198534246Y-93137545D01*
X198593975Y-93140618D01*
X198603177Y-93140126D01*
X198603182Y-93140126D01*
X198778681Y-93129530D01*
X198837706Y-93120123D01*
X198896956Y-93111527D01*
X198905888Y-93109257D01*
X199075990Y-93064773D01*
X199132090Y-93044070D01*
X199188510Y-93024141D01*
X199196831Y-93020180D01*
X199355053Y-92943505D01*
X199406059Y-92912303D01*
X199457543Y-92881789D01*
X199464936Y-92876287D01*
X199605252Y-92770339D01*
X199649224Y-92729826D01*
X199693802Y-92689892D01*
X199699985Y-92683059D01*
X199817050Y-92551874D01*
X199852334Y-92503567D01*
X199888284Y-92455764D01*
X199893023Y-92447860D01*
X199927052Y-92390195D01*
X200320891Y-92475982D01*
X200320891Y-92475982D01*
G37*
X200320891Y-92475982D02*
X201192007Y-92815415D01*
X201999305Y-93286944D01*
X202722896Y-93878953D01*
X203344967Y-94576867D01*
X203850204Y-95363508D01*
X204226161Y-96219495D01*
X204463586Y-97123761D01*
X204558868Y-98076429D01*
X204560001Y-98183573D01*
X204560000Y-105967581D01*
X204560000Y-105967582D01*
X204560001Y-106940000D01*
X204367581Y-106940000D01*
X204334613Y-106943247D01*
X204321633Y-106943247D01*
X204312468Y-106944210D01*
X204118518Y-106965965D01*
X204060019Y-106978400D01*
X204001325Y-106990022D01*
X203992522Y-106992747D01*
X203806491Y-107051760D01*
X203751509Y-107075326D01*
X203696206Y-107098120D01*
X203688100Y-107102503D01*
X203653071Y-107121761D01*
X203569205Y-107065723D01*
X203408145Y-106999010D01*
X203237165Y-106965000D01*
X203062835Y-106965000D01*
X202891855Y-106999010D01*
X202775000Y-107047413D01*
X202658145Y-106999010D01*
X202487165Y-106965000D01*
X202312835Y-106965000D01*
X202141855Y-106999010D01*
X202025000Y-107047413D01*
X201908145Y-106999010D01*
X201737165Y-106965000D01*
X201562835Y-106965000D01*
X201391855Y-106999010D01*
X201230795Y-107065723D01*
X201146323Y-107122166D01*
X201090921Y-107092708D01*
X201035606Y-107069909D01*
X200980634Y-107046348D01*
X200971831Y-107043623D01*
X200784995Y-106987214D01*
X200726307Y-106975594D01*
X200667804Y-106963158D01*
X200658639Y-106962195D01*
X200464405Y-106943150D01*
X200464402Y-106943150D01*
X200432419Y-106940000D01*
X196567581Y-106940000D01*
X196534613Y-106943247D01*
X196521633Y-106943247D01*
X196512468Y-106944210D01*
X196318518Y-106965965D01*
X196260019Y-106978400D01*
X196201325Y-106990022D01*
X196192522Y-106992747D01*
X196006491Y-107051760D01*
X195951509Y-107075326D01*
X195896206Y-107098120D01*
X195888100Y-107102503D01*
X195853071Y-107121761D01*
X195769205Y-107065723D01*
X195608145Y-106999010D01*
X195437165Y-106965000D01*
X195262835Y-106965000D01*
X195091855Y-106999010D01*
X194975000Y-107047413D01*
X194858145Y-106999010D01*
X194687165Y-106965000D01*
X194512835Y-106965000D01*
X194341855Y-106999010D01*
X194225000Y-107047413D01*
X194108145Y-106999010D01*
X193937165Y-106965000D01*
X193762835Y-106965000D01*
X193591855Y-106999010D01*
X193430795Y-107065723D01*
X193346323Y-107122166D01*
X193290921Y-107092708D01*
X193235606Y-107069909D01*
X193180634Y-107046348D01*
X193171831Y-107043623D01*
X192984995Y-106987214D01*
X192926307Y-106975594D01*
X192867804Y-106963158D01*
X192858639Y-106962195D01*
X192664405Y-106943150D01*
X192664402Y-106943150D01*
X192640000Y-106940747D01*
X192640000Y-103268605D01*
X197466000Y-103268605D01*
X197591914Y-103558577D01*
X197924126Y-103724433D01*
X198282312Y-103822290D01*
X198652706Y-103848389D01*
X199021075Y-103801725D01*
X199373262Y-103684094D01*
X199608086Y-103558577D01*
X199734000Y-103268605D01*
X198600000Y-102134605D01*
X197466000Y-103268605D01*
X192640000Y-103268605D01*
X192640000Y-98195977D01*
X192655868Y-97994344D01*
X192940000Y-97994344D01*
X192940000Y-98365656D01*
X193012439Y-98729834D01*
X193154534Y-99072882D01*
X193360825Y-99381618D01*
X193623382Y-99644175D01*
X193932118Y-99850466D01*
X194249628Y-99981983D01*
X194118111Y-100299494D01*
X194045672Y-100663672D01*
X194045672Y-101034984D01*
X194118111Y-101399162D01*
X194260206Y-101742210D01*
X194466497Y-102050946D01*
X194729054Y-102313503D01*
X195037790Y-102519794D01*
X195380838Y-102661889D01*
X195745016Y-102734328D01*
X196116328Y-102734328D01*
X196480506Y-102661889D01*
X196803985Y-102527900D01*
X196870906Y-102728262D01*
X196996423Y-102963086D01*
X197286395Y-103089000D01*
X198420395Y-101955000D01*
X198406253Y-101940858D01*
X198585858Y-101761253D01*
X198600000Y-101775395D01*
X198614143Y-101761253D01*
X198793748Y-101940858D01*
X198779605Y-101955000D01*
X199913605Y-103089000D01*
X200203577Y-102963086D01*
X200369433Y-102630874D01*
X200401747Y-102512597D01*
X200719494Y-102644212D01*
X201083672Y-102716651D01*
X201454984Y-102716651D01*
X201819162Y-102644212D01*
X202162210Y-102502117D01*
X202470946Y-102295826D01*
X202733503Y-102033269D01*
X202939794Y-101724533D01*
X203081889Y-101381485D01*
X203154328Y-101017307D01*
X203154328Y-100645995D01*
X203081889Y-100281817D01*
X202956621Y-99979394D01*
X203267882Y-99850466D01*
X203576618Y-99644175D01*
X203839175Y-99381618D01*
X204045466Y-99072882D01*
X204187561Y-98729834D01*
X204260000Y-98365656D01*
X204260000Y-97994344D01*
X204187561Y-97630166D01*
X204045466Y-97287118D01*
X203839175Y-96978382D01*
X203576618Y-96715825D01*
X203267882Y-96509534D01*
X202950372Y-96378017D01*
X203081889Y-96060506D01*
X203154328Y-95696328D01*
X203154328Y-95325016D01*
X203081889Y-94960838D01*
X202939794Y-94617790D01*
X202733503Y-94309054D01*
X202470946Y-94046497D01*
X202162210Y-93840206D01*
X201819162Y-93698111D01*
X201454984Y-93625672D01*
X201083672Y-93625672D01*
X200719494Y-93698111D01*
X200376446Y-93840206D01*
X200067710Y-94046497D01*
X199805153Y-94309054D01*
X199598862Y-94617790D01*
X199456767Y-94960838D01*
X199384328Y-95325016D01*
X199384328Y-95696328D01*
X199399121Y-95770697D01*
X199149834Y-95667439D01*
X198785656Y-95595000D01*
X198414344Y-95595000D01*
X198050166Y-95667439D01*
X197800879Y-95770697D01*
X197815672Y-95696328D01*
X197815672Y-95325016D01*
X197743233Y-94960838D01*
X197601138Y-94617790D01*
X197394847Y-94309054D01*
X197132290Y-94046497D01*
X196823554Y-93840206D01*
X196480506Y-93698111D01*
X196116328Y-93625672D01*
X195745016Y-93625672D01*
X195380838Y-93698111D01*
X195037790Y-93840206D01*
X194729054Y-94046497D01*
X194466497Y-94309054D01*
X194260206Y-94617790D01*
X194118111Y-94960838D01*
X194045672Y-95325016D01*
X194045672Y-95696328D01*
X194118111Y-96060506D01*
X194249628Y-96378017D01*
X193932118Y-96509534D01*
X193623382Y-96715825D01*
X193360825Y-96978382D01*
X193154534Y-97287118D01*
X193012439Y-97630166D01*
X192940000Y-97994344D01*
X192655868Y-97994344D01*
X192714619Y-97247849D01*
X192932898Y-96338651D01*
X193290724Y-95474782D01*
X193779274Y-94677542D01*
X194386533Y-93966533D01*
X195097539Y-93359276D01*
X195894787Y-92870722D01*
X196758651Y-92512898D01*
X197266413Y-92390996D01*
X197271596Y-92399338D01*
X197302437Y-92450554D01*
X197307990Y-92457908D01*
X197414915Y-92597482D01*
X197455752Y-92641190D01*
X197495979Y-92685468D01*
X197502855Y-92691603D01*
X197634855Y-92807750D01*
X197683365Y-92842665D01*
X197731460Y-92878312D01*
X197739397Y-92882995D01*
X197891441Y-92971291D01*
X197945849Y-92996138D01*
X197999916Y-93021747D01*
X198008611Y-93024799D01*
X198174909Y-93081881D01*
X198233112Y-93095687D01*
X198291119Y-93110306D01*
X198300241Y-93111612D01*
X198474460Y-93135306D01*
X198534246Y-93137545D01*
X198593975Y-93140618D01*
X198603177Y-93140126D01*
X198603182Y-93140126D01*
X198778681Y-93129530D01*
X198837706Y-93120123D01*
X198896956Y-93111527D01*
X198905888Y-93109257D01*
X199075990Y-93064773D01*
X199132090Y-93044070D01*
X199188510Y-93024141D01*
X199196831Y-93020180D01*
X199355053Y-92943505D01*
X199406059Y-92912303D01*
X199457543Y-92881789D01*
X199464936Y-92876287D01*
X199605252Y-92770339D01*
X199649224Y-92729826D01*
X199693802Y-92689892D01*
X199699985Y-92683059D01*
X199817050Y-92551874D01*
X199852334Y-92503567D01*
X199888284Y-92455764D01*
X199893023Y-92447860D01*
X199927052Y-92390195D01*
X200320891Y-92475982D01*
M02*
